<?xml version="1.0" encoding="UTF-8" standalone="no"?>
<!DOCTYPE svg PUBLIC "-//W3C//DTD SVG 1.1//EN" "http://www.w3.org/Graphics/SVG/1.1/DTD/svg11.dtd">
<svg version="1.1" xmlns="http://www.w3.org/2000/svg" xmlns:xlink="http://www.w3.org/1999/xlink" preserveAspectRatio="xMidYMid meet" viewBox="-0.7876537609740808 -0.9986597773408903 669.575267587431 478.2544837144587" width="665.58" height="474.25"><defs><path d="M0.21 417.09L665.79 417.09L665.79 416.77L0.21 416.77L0.21 417.09Z" id="a1wnOC55TD"></path><path d="M98.27 429.21L70.04 429.21L70.04 428.89L98.27 428.89L98.27 429.21" id="a1KPiKr1uQ"></path><path d="M341.13 425.76L228.03 425.76L228.03 425.44L341.13 425.44L341.13 425.76" id="a36WDuJv5T"></path><path d="M141.01 441.03L90.29 441.03L90.29 440.71L141.01 440.71L141.01 441.03" id="c3KEUvMiq"></path><path d="M599.1 438.89L541.6 438.89L541.6 438.57L599.1 438.57L599.1 438.89" id="a1OG4UuCvt"></path><path d="M521.32 438.89L537.26 438.89L537.26 438.57L521.32 438.57L521.32 438.89Z" id="bpLav3sXG"></path><path d="M463.3 433.52L493.92 433.52L493.92 433.2L463.3 433.2L463.3 433.52Z" id="dtgFizHFh"></path><path d="M447.92 433.52L383.44 433.52L383.44 433.2L447.92 433.2L447.92 433.52" id="buO85KU4u"></path><path d="M58.67 0.32C54.66 0.32 51.4 3.44 51.4 7.27C51.4 41.81 51.4 318.19 51.4 352.74C51.4 356.57 54.66 359.69 58.67 359.69C84.37 359.69 290.01 359.69 315.71 359.69C319.72 359.69 322.98 356.57 322.98 352.74C322.98 318.19 322.98 41.81 322.98 7.27C322.98 3.44 319.72 0.32 315.71 0.32C298.58 0.32 212.9 0.32 58.67 0.32M315.71 360.01C161.49 360.01 75.81 360.01 58.67 360.01C54.48 360.01 51.07 356.75 51.07 352.74C51.07 318.19 51.07 41.81 51.07 7.27C51.07 3.26 54.48 0 58.67 0C84.37 0 290.01 0 315.71 0C319.9 0 323.31 3.26 323.31 7.27C323.31 41.81 323.31 318.19 323.31 352.74C323.31 356.75 319.9 360.01 315.71 360.01" id="e1JLkiiy81"></path><path d="M346.59 0.32C342.59 0.32 339.33 3.44 339.33 7.27C339.33 41.81 339.33 318.19 339.33 352.74C339.33 356.57 342.59 359.69 346.59 359.69C372.3 359.69 577.93 359.69 603.64 359.69C607.64 359.69 610.9 356.57 610.9 352.74C610.9 318.19 610.9 41.81 610.9 7.27C610.9 3.44 607.64 0.32 603.64 0.32C586.5 0.32 500.82 0.32 346.59 0.32M603.64 360.01C449.41 360.01 363.73 360.01 346.59 360.01C342.4 360.01 339 356.75 339 352.74C339 318.19 339 41.81 339 7.27C339 3.26 342.4 0 346.59 0C372.3 0 577.93 0 603.64 0C607.83 0 611.24 3.26 611.24 7.27C611.24 41.81 611.24 318.19 611.24 352.74C611.24 356.75 607.83 360.01 603.64 360.01" id="a1eIMkZUZs"></path><path d="M441.29 282.15C436.63 282.15 431.97 281.57 427.45 280.41C427.81 279.12 430.69 268.82 431.05 267.53C434.41 268.4 437.86 268.83 441.31 268.83C448.88 268.83 456.45 266.75 463.01 262.6C462.77 267.74 462.54 272.95 462.33 278.03C455.63 280.77 448.46 282.15 441.29 282.15M491.03 212.45L484.23 212.45L484.23 212.45L475.63 212.45L475.63 212.45L491.03 212.45L491.03 212.45" id="afJpMFdM0"></path><path d="M464.6 200.61C462.65 199.24 460.59 198.06 458.47 197.08C456.59 194.54 454.82 191.96 453.28 189.41C451.8 186.93 450.52 184.34 450.04 182.29C449.88 181.61 449.85 181.01 449.89 180.67C454.64 181.42 459.26 182.77 463.61 184.68C463.82 189.55 464.14 194.84 464.6 200.61M422.16 198.03C422.77 193.97 422.54 189.79 421.47 185.73C421.47 185.52 421.47 183.85 421.47 183.65C423.23 182.98 425.02 182.39 426.84 181.91C428.33 186.25 429 190.78 428.83 195.24C426.54 195.97 424.3 196.9 422.16 198.03M432.75 194.21C432.77 189.79 432.04 185.34 430.59 181.04C432.61 180.64 434.67 180.36 436.74 180.19C436.74 182.45 437.29 184.31 437.88 185.93C439.02 188.86 440.49 191.21 442.08 193.33C441.81 193.33 441.54 193.33 441.28 193.33C438.42 193.33 435.56 193.62 432.75 194.21" id="a9MLqLGyt"></path><path d="M427.44 280.41C425.39 279.88 423.4 279.24 421.47 278.51C421.47 277.03 421.47 265.22 421.47 263.74C424.51 265.43 427.73 266.69 431.05 267.53C430.81 268.39 429.61 272.68 427.44 280.41" id="eeIYsGwlr"></path><path d="M449.5 147.31C439.05 134.36 432.83 118.12 432.83 100.5C432.83 72.12 448.97 47.31 472.95 34.07C474 35.81 482.37 49.67 483.41 51.41C465.68 61.17 453.76 79.5 453.76 100.5C453.76 112.66 457.77 123.93 464.59 133.17C462.55 134.15 460.45 135.59 458.37 137.51C455.06 140.57 452.02 144.09 449.5 147.31" id="g9YxqQd27v"></path><path d="M518.13 177.04C518.32 172.14 518.65 166.93 519.18 161.53C521.91 166.08 524.05 169.12 524.05 169.12C524.05 169.12 524.06 169.12 524.06 169.11C524.06 169.12 524.06 169.12 524.06 169.12C524.1 169.09 524.28 168.98 524.6 168.77C526.13 167.79 526.97 167.25 527.14 167.15C528.65 169.8 530.15 172.45 531.64 175.11C527.22 176.11 522.7 176.77 518.13 177.04M544.86 170.9C543.07 167.01 541.21 163.19 539.29 159.39C539.53 159.24 540.75 158.46 542.95 157.05C542.95 157.05 542.95 157.05 542.95 157.05C542.95 157.05 541.91 154.46 540.2 150.91C559.28 141.49 572.34 122.45 572.34 100.5C572.34 100.5 572.34 100.5 572.34 100.5L593.27 100.5C593.27 100.5 593.27 100.5 593.27 100.5C593.27 120.83 584.79 140.36 569.76 154.73C562.54 161.63 554.07 167.09 544.86 170.9" id="gs09F4MR8"></path><path d="M593.27 100.5L593.27 100.5L593.27 100.5M593.27 100.5L572.34 100.5C572.34 100.5 572.34 100.5 572.34 100.5C572.34 69.17 545.78 43.81 513.05 43.81C502.25 43.81 492.12 46.56 483.42 51.41C482.37 49.67 474 35.8 472.95 34.07C485.44 27.18 499.15 23.91 512.71 23.91C540.53 23.91 567.72 37.67 582.52 62.16C589.54 73.8 593.27 87.04 593.27 100.5" id="agKsUSiG8"></path><path d="M409.74 416.77L374.18 416.77L374.18 360.01L409.74 360.01L409.74 416.77M409.74 359.69L374.18 359.69L374.18 344.92L409.74 344.92L409.74 359.69" id="bWVOvsV78"></path><path d="M374.18 360.01L409.74 360.01L409.74 359.69L374.18 359.69L374.18 360.01Z" id="bQpkJtJOm"></path><path d="M366.92 416.77L331.36 416.77L331.36 382.03C341.81 382.03 347.62 382.03 348.78 382.03C357.85 382.03 365.21 376.01 366.92 367.95C366.92 371.21 366.92 387.48 366.92 416.77" id="b1OFfKcVAI"></path><path d="M288.53 416.77L324.1 416.77L324.1 385.06L288.53 385.06L288.53 416.77Z" id="dv0v14YPC"></path><path d="M543.18 416.77C540.84 416.77 539.55 416.77 539.29 416.77C537.5 403.16 535.1 384.64 532.85 366.59C533.53 366.59 536.98 366.59 543.18 366.59L543.18 416.77M519.62 416.77L507.61 416.77L507.61 366.59C508.39 366.59 508.82 366.59 508.91 366.59C512.74 384.74 516.7 403.21 519.62 416.77" id="aqKTJjKnV"></path><path d="M500.35 416.77C491.62 416.77 486.76 416.77 485.79 416.77C486.31 405.95 486.98 392.02 487.7 377.69C488.54 377.69 492.76 377.69 500.35 377.69L500.35 416.77M466.81 416.77L464.79 416.77C464.79 397.93 464.79 387.46 464.79 385.37C465.5 396.96 466.21 407.91 466.81 416.77" id="gk7r67zVi"></path><path d="M457.53 416.77L421.97 416.77L421.97 360.01L457.53 360.01L457.53 416.77M457.53 359.69L421.97 359.69L421.97 332.59L457.53 332.59L457.53 359.69" id="b1OZKEqUQ"></path><path d="M421.97 360.01L457.53 360.01L457.53 359.69L421.97 359.69L421.97 360.01Z" id="e69l6gny7E"></path><path d="M240.75 416.77L276.31 416.77L276.31 382.03L240.75 382.03L240.75 416.77Z" id="c1HtYLA0x0"></path><path d="M197.92 416.77L233.49 416.77L233.49 382.03L197.92 382.03L197.92 416.77Z" id="a1mhA4SNcD"></path><path d="M190.66 416.77L155.1 416.77L155.1 360.01L171.74 360.01C171.85 362.06 171.91 363.2 171.92 363.42C172.42 373.12 180.69 381.14 190.66 381.96C190.66 384.28 190.66 395.88 190.66 416.77M171.73 359.69L155.1 359.69L155.1 350.74L171.26 350.74L171.73 359.69" id="fbaEZtUlp"></path><path d="M171.74 360.01L155.1 360.01L155.1 359.69L171.73 359.69L171.74 360.01" id="q1KR8Ipotb"></path><path d="M375.59 59.11C360.39 59.11 351.94 59.11 350.25 59.11C348.14 54.48 344.17 50.72 339.33 48.73C339.33 46.98 339.33 38.25 339.33 22.53C355.64 22.53 364.71 22.53 366.52 22.53C371.51 22.53 375.59 26.43 375.59 31.2C375.59 33.06 375.59 42.37 375.59 59.11M157.49 59.11L74.9 59.11C74.9 42.37 74.9 33.06 74.9 31.2C74.9 26.43 78.99 22.53 83.97 22.53C99.91 22.53 179.58 22.53 322.98 22.53L322.98 47.17C234.21 47.17 184.9 47.17 175.03 47.17C166.78 47.17 159.95 52.15 157.49 59.11M148.24 33.63C144.09 33.63 140.72 36.85 140.72 40.82C140.72 44.79 144.09 48.01 148.24 48.01C152.39 48.01 155.77 44.79 155.77 40.82C155.77 36.85 152.39 33.63 148.24 33.63M123.94 33.63C119.79 33.63 116.42 36.85 116.42 40.82C116.42 44.79 119.79 48.01 123.94 48.01C128.09 48.01 131.46 44.79 131.46 40.82C131.46 36.85 128.09 33.63 123.94 33.63M99.64 33.63C95.49 33.63 92.11 36.85 92.11 40.82C92.11 44.79 95.49 48.01 99.64 48.01C103.79 48.01 107.16 44.79 107.16 40.82C107.16 36.85 103.79 33.63 99.64 33.63M339 48.6C336.65 47.68 334.11 47.17 331.48 47.17C331.16 47.17 328.63 47.17 328.31 47.17C328.29 47.17 328.26 47.17 328.23 47.17C327.9 47.17 326.26 47.17 323.31 47.17L323.31 22.53L339 22.53L339 48.6" id="b4bqqk9aSY"></path><path d="M322.98 47.17L323.31 47.17L323.31 22.53L322.98 22.53L322.98 47.17Z" id="a1yu07z9Am"></path><path d="M339.33 48.73C339.22 48.69 339.11 48.64 339 48.6C339 46.86 339 38.17 339 22.53L339.33 22.53L339.33 48.73" id="d5RFKJyGR5"></path><path d="M148.24 46.74C144.83 46.74 142.05 44.09 142.05 40.82C142.05 37.56 144.83 34.9 148.24 34.9C151.66 34.9 154.43 37.56 154.43 40.82C154.43 44.09 151.66 46.74 148.24 46.74M123.94 46.74C120.53 46.74 117.75 44.09 117.75 40.82C117.75 37.56 120.53 34.9 123.94 34.9C127.35 34.9 130.13 37.56 130.13 40.82C130.13 44.09 127.35 46.74 123.94 46.74M99.64 46.74C96.22 46.74 93.45 44.09 93.45 40.82C93.45 37.56 96.22 34.9 99.64 34.9C103.05 34.9 105.83 37.56 105.83 40.82C105.83 44.09 103.05 46.74 99.64 46.74" id="a50fx1jvQg"></path><path d="M148.24 48.01C144.09 48.01 140.72 44.79 140.72 40.82C140.72 36.85 144.09 33.63 148.24 33.63C152.39 33.63 155.77 36.85 155.77 40.82C155.77 44.79 152.39 48.01 148.24 48.01M148.24 34.9C144.83 34.9 142.05 37.56 142.05 40.82C142.05 44.09 144.83 46.74 148.24 46.74C151.66 46.74 154.43 44.09 154.43 40.82C154.43 37.56 151.66 34.9 148.24 34.9" id="c42HTGutxy"></path><path d="M123.94 48.01C119.79 48.01 116.42 44.79 116.42 40.82C116.42 36.85 119.79 33.63 123.94 33.63C128.09 33.63 131.46 36.85 131.46 40.82C131.46 44.79 128.09 48.01 123.94 48.01M123.94 34.9C120.53 34.9 117.75 37.56 117.75 40.82C117.75 44.09 120.53 46.74 123.94 46.74C127.35 46.74 130.13 44.09 130.13 40.82C130.13 37.56 127.35 34.9 123.94 34.9" id="d1WyV3SfrG"></path><path d="M99.64 48.01C95.49 48.01 92.11 44.79 92.11 40.82C92.11 36.85 95.49 33.63 99.64 33.63C103.79 33.63 107.16 36.85 107.16 40.82C107.16 44.79 103.79 48.01 99.64 48.01M99.64 34.9C96.22 34.9 93.45 37.56 93.45 40.82C93.45 44.09 96.22 46.74 99.64 46.74C103.05 46.74 105.83 44.09 105.83 40.82C105.83 37.56 103.05 34.9 99.64 34.9" id="cfSTyWaqx"></path><path d="M115.63 247.14C96.64 247.14 86.08 247.14 83.97 247.14C78.99 247.14 74.9 243.23 74.9 238.46C74.9 226.51 74.9 166.72 74.9 59.11C124.46 59.11 151.99 59.11 157.49 59.11C156.76 61.19 156.42 63.43 156.54 65.78C156.62 67.38 157.04 75.37 157.78 89.77C141.02 89.77 131.71 89.77 129.85 89.77C124.86 89.77 120.78 93.67 120.78 98.44C120.78 100.3 120.78 109.61 120.78 126.36L157.23 126.36L120.78 126.36L120.78 161.82L115.76 161.82L116.22 170.61L117.26 190.81L113.09 190.81C111.98 193.02 111.36 194.24 111.23 194.49C109.54 194.98 107.92 195.64 106.4 196.44C106.4 196.44 106.4 196.44 106.4 196.44L102.17 195.22L94.35 203.09L95.83 207.07C95.83 207.07 95.83 207.07 95.83 207.07C95.07 208.56 94.47 210.14 94.03 211.79C93.78 211.92 92.53 212.57 90.29 213.75L90.86 224.87L94.81 226.82C94.81 226.83 94.81 226.83 94.81 226.83C95.41 228.47 96.18 230.05 97.09 231.54C97.09 231.54 97.1 231.54 97.1 231.55L96.03 235.53L104.66 243.39C107.12 242.66 108.49 242.25 108.77 242.17C110.37 242.98 112.05 243.63 113.8 244.13C113.92 244.33 114.53 245.33 115.63 247.14M119.77 239.41C108.85 238.61 99.84 229.92 99.29 219.31C98.74 208.7 106.86 200 117.7 199.2C117.71 199.48 117.83 201.75 117.84 202.03C108.65 202.83 101.77 210.27 102.24 219.31C102.71 228.34 110.35 235.79 119.63 236.58C119.64 236.77 119.69 237.71 119.77 239.41M375.59 85.5L352.91 85.5C352.3 73.67 351.96 67.09 351.89 65.78C351.77 63.43 351.2 61.19 350.25 59.11C351.94 59.11 360.39 59.11 375.59 59.11L375.59 85.5" id="a2ChuoKL7P"></path><path d="M421.47 126.36L400.01 126.36L398.12 89.77C406.69 89.77 411.45 89.77 412.4 89.77C417.39 89.77 421.47 93.67 421.47 98.44C421.47 100.3 421.47 109.61 421.47 126.36M157.23 126.36L120.78 126.36C120.78 109.61 120.78 100.3 120.78 98.44C120.78 93.67 124.86 89.77 129.85 89.77C131.71 89.77 141.02 89.77 157.78 89.77C158.49 103.57 158.89 111.24 158.97 112.77C157.58 113.26 156.62 114.54 156.7 116.05C156.74 116.74 156.92 120.17 157.23 126.36M145.52 100.87C141.37 100.87 137.99 104.1 137.99 108.07C137.99 112.03 141.37 115.26 145.52 115.26C149.66 115.26 153.04 112.03 153.04 108.07C153.04 104.1 149.66 100.87 145.52 100.87M145.52 113.99C142.1 113.99 139.32 111.33 139.32 108.07C139.32 104.8 142.1 102.14 145.52 102.14C148.93 102.14 151.71 104.8 151.71 108.07C151.71 111.33 148.93 113.99 145.52 113.99" id="aS272pHlC"></path><path d="M145.52 115.26C141.37 115.26 137.99 112.03 137.99 108.07C137.99 104.1 141.37 100.87 145.52 100.87C149.66 100.87 153.04 104.1 153.04 108.07C153.04 112.03 149.66 115.26 145.52 115.26M145.52 102.14C142.1 102.14 139.32 104.8 139.32 108.07C139.32 111.33 142.1 113.99 145.52 113.99C148.93 113.99 151.71 111.33 151.71 108.07C151.71 104.8 148.93 102.14 145.52 102.14" id="ar4sRbtnU"></path><path d="M412.4 314.38L364.74 314.38L363.92 298.52L408.9 298.52C408.03 281.73 407.55 272.41 407.46 270.55C411.6 273.82 416.3 276.53 421.47 278.51C421.47 281.23 421.47 302.99 421.47 305.71C421.47 310.48 417.39 314.38 412.4 314.38M123.52 311.9C121.83 310.33 120.78 308.13 120.78 305.71C120.78 302.59 120.78 286.99 120.78 258.91L123.52 311.9M421.47 263.74C418.57 262.13 415.84 260.14 413.36 257.77C410.48 255.01 408.13 251.94 406.33 248.66C406.24 246.9 405.51 232.86 405.42 231.1C411.36 229.15 416.88 225.88 421.47 221.29C421.47 224.12 421.47 238.27 421.47 263.74M405.21 227.15C405.01 223.2 404.9 221 404.87 220.56C408.2 219.05 411.29 216.95 413.96 214.26C417.69 210.51 420.19 206.05 421.47 201.31C421.47 202.72 421.47 213.99 421.47 215.4C420.61 216.49 419.68 217.55 418.68 218.56C414.8 222.46 410.19 225.33 405.21 227.15M420.91 183.86C419.2 178.7 416.11 173.81 411.66 169.76C408.71 167.07 405.41 164.97 401.92 163.46C401.89 162.8 401.62 157.53 401.58 156.87C406.75 158.7 411.65 161.56 415.94 165.46C418.03 167.37 419.88 169.44 421.47 171.62C421.47 172.82 421.47 182.44 421.47 183.65C421.28 183.72 421.1 183.79 420.91 183.86M421.47 165.74C420.55 164.74 419.58 163.77 418.55 162.83C413.46 158.19 407.57 154.89 401.38 152.92C401.29 151.15 400.83 142.3 400.01 126.36L421.47 126.36L421.47 165.74M159.13 161.82L120.78 161.82L120.78 126.36L157.23 126.36C158.31 147.23 158.91 158.83 159.03 161.15C159.05 161.38 159.08 161.6 159.13 161.82" id="b3mQ5Pkwzo"></path><path d="M421.47 185.73C421.3 185.1 421.12 184.48 420.91 183.86C421.1 183.79 421.28 183.72 421.47 183.65C421.47 183.78 421.47 184.48 421.47 185.73" id="b6lBeruLx0"></path><path d="M421.47 278.51C416.3 276.53 411.6 273.82 407.46 270.55C407.34 268.36 406.44 250.85 406.33 248.66C408.13 251.94 410.48 255.01 413.36 257.77C415.84 260.14 418.57 262.13 421.47 263.74C421.47 264.73 421.47 269.65 421.47 278.51" id="bfQEPYOxW"></path><path d="M591.1 459.84C591.1 467.8 475.54 474.26 333 474.26C190.46 474.26 74.9 467.8 74.9 459.84C74.9 451.88 190.46 445.43 333 445.43C475.54 445.43 591.1 451.88 591.1 459.84" id="aEjmilkH8"></path><path d="M354.99 137.99C356.89 137.99 358.37 136.5 358.27 134.68C358.17 132.8 357.4 117.74 357.3 115.86C357.21 114.04 355.57 112.56 353.68 112.56C353.5 112.56 352.63 112.56 351.07 112.56C349.62 84.49 348.81 68.89 348.65 65.78C348.12 55.54 338.93 47.17 328.23 47.17C312.91 47.17 190.35 47.17 175.03 47.17C164.33 47.17 156.01 55.54 156.54 65.78C156.78 70.48 158.73 108.07 158.97 112.77C157.58 113.26 156.62 114.54 156.7 116.05C156.94 120.56 158.8 156.64 159.03 161.15C159.11 162.66 160.2 163.94 161.64 164.43C162.67 184.33 170.89 343.52 171.92 363.42C172.45 373.66 181.64 382.03 192.34 382.03C207.66 382.03 330.22 382.03 345.54 382.03C356.24 382.03 364.56 373.66 364.03 363.42C363.37 350.64 360.06 286.7 354.12 171.61C355.68 171.61 356.55 171.61 356.73 171.61C358.63 171.61 360.1 170.12 360.01 168.31C359.91 166.43 359.13 151.36 359.04 149.48C358.94 147.66 357.31 146.18 355.41 146.18C355.24 146.18 354.37 146.18 352.8 146.18L352.38 137.99L354.99 137.99" id="a2iEbIkzvW"></path><path d="M195.58 382.03C287.5 382.03 338.57 382.03 348.78 382.03C359.48 382.03 367.8 373.66 367.27 363.42C365.74 333.66 353.43 95.54 351.89 65.78C351.36 55.54 342.18 47.17 331.48 47.17C316.16 47.17 193.6 47.17 178.28 47.17C167.58 47.17 159.25 55.54 159.78 65.78C161.32 95.54 173.62 333.66 175.16 363.42C175.69 373.66 184.88 382.03 195.58 382.03" id="d4nnMK7EJt"></path><path d="M348.78 382.03C256.86 382.03 205.79 382.03 195.58 382.03C184.88 382.03 175.69 373.66 175.16 363.42C175.1 362.22 174.79 356.18 174.23 345.33L179.42 345.33C179.66 350.04 179.8 352.66 179.83 353.18C179.91 354.78 181.33 356.08 183.01 356.08C200.57 356.08 341.1 356.08 358.67 356.08C360.34 356.08 361.63 354.78 361.55 353.18C361.36 349.54 360.42 331.32 358.73 298.52L363.92 298.52C365.93 337.46 367.05 359.1 367.27 363.42C367.29 363.73 367.3 364.04 367.3 364.35C367.3 374.15 359.16 382.03 348.78 382.03M169.94 161.82L164.75 161.82C161.77 104.19 160.11 72.18 159.78 65.78C159.77 65.47 159.76 65.16 159.76 64.85C159.76 55.04 167.9 47.17 178.28 47.17C193.6 47.17 316.16 47.17 331.48 47.17C342.18 47.17 351.36 55.54 351.89 65.78C351.96 67.09 352.3 73.67 352.91 85.5L347.72 85.5C347.45 80.19 347.29 77.24 347.26 76.65C347.18 75.05 345.76 73.75 344.08 73.75C326.51 73.75 185.99 73.75 168.42 73.75C166.74 73.75 165.45 75.05 165.54 76.65C165.83 82.33 167.3 110.72 169.94 161.82M236.85 55.78C235.53 55.78 234.5 56.81 234.57 58.07C234.57 58.07 234.57 58.07 234.57 58.07C234.63 59.33 235.77 60.36 237.09 60.36C240.78 60.36 270.34 60.36 274.03 60.36C275.35 60.36 276.38 59.33 276.31 58.07C276.31 58.07 276.31 58.07 276.31 58.07C276.25 56.81 275.11 55.78 273.79 55.78C271.33 55.78 259.02 55.78 236.85 55.78" id="ehZDBVZ1o"></path><path d="M183.01 356.08C288.4 356.08 346.96 356.08 358.67 356.08C360.34 356.08 361.63 354.78 361.55 353.18C360.12 325.53 348.69 104.3 347.26 76.65C347.18 75.05 345.76 73.75 344.08 73.75C326.51 73.75 185.99 73.75 168.42 73.75C166.74 73.75 165.45 75.05 165.54 76.65C166.97 104.3 178.4 325.53 179.83 353.18C179.91 354.78 181.33 356.08 183.01 356.08" id="c2Pb3siWU1"></path><path d="M274.03 60.36C251.86 60.36 239.55 60.36 237.09 60.36C235.77 60.36 234.63 59.33 234.57 58.07C234.57 58.07 234.57 58.07 234.57 58.07C234.5 56.81 235.53 55.78 236.85 55.78C240.54 55.78 270.1 55.78 273.79 55.78C275.11 55.78 276.25 56.81 276.31 58.07C276.31 58.07 276.31 58.07 276.31 58.07C276.38 59.33 275.35 60.36 274.03 60.36" id="gDRVpKGA"></path><path d="M408.9 298.52L363.92 298.52C361.5 251.77 360.16 225.79 359.89 220.6C360.1 220.8 360.32 221 360.53 221.19C368.38 228.34 378.12 232.32 387.93 233.12C388.6 247.69 395.83 261.35 407.46 270.55C407.55 272.41 408.03 281.73 408.9 298.52M406.33 248.66C403.48 243.49 401.97 237.82 401.81 232.12C403.03 231.83 404.23 231.49 405.42 231.1C405.48 232.27 405.78 238.12 406.33 248.66M387.9 229.4C379.04 228.64 370.24 225.02 363.15 218.56C361.87 217.4 360.69 216.18 359.6 214.91C359.53 213.64 359.01 203.53 358.95 202.26C360.75 206.65 363.58 210.76 367.42 214.26C373.44 219.75 380.94 222.79 388.47 223.38C388.16 225.39 387.97 227.4 387.9 229.4M401.91 228.2C402.09 225.87 402.5 223.56 403.13 221.29C403.72 221.07 404.3 220.82 404.87 220.56C404.91 221.22 405.18 226.49 405.21 227.15C404.13 227.55 403.02 227.9 401.91 228.2" id="ciXwJEaUG"></path><path d="M407.46 270.55C395.83 261.35 388.6 247.69 387.93 233.12C389.18 233.23 390.43 233.28 391.68 233.28C392.32 233.28 392.96 233.26 393.6 233.24C393.56 232.87 393.27 229.89 393.23 229.52C392.65 229.55 392.07 229.56 391.49 229.56C390.3 229.56 389.1 229.51 387.9 229.4C387.97 227.4 388.16 225.39 388.47 223.38C389.37 223.45 390.27 223.48 391.17 223.48C395.27 223.48 399.34 222.75 403.13 221.29C402.5 223.56 402.09 225.87 401.91 228.2C399.08 228.95 396.17 229.4 393.23 229.52C393.27 229.89 393.56 232.87 393.6 233.24C396.37 233.12 399.12 232.74 401.81 232.12C401.97 237.82 403.48 243.49 406.33 248.66C406.4 250.12 406.78 257.41 407.46 270.55" id="a1B1cSXOVf"></path><path d="M357.89 181.76C357.57 175.63 357.39 172.23 357.36 171.55C358.94 171.27 360.09 169.92 360.01 168.31C360 168.08 359.9 166.22 359.89 165.99C360.06 165.81 360.23 165.64 360.4 165.46C367.69 158.13 377.55 154.47 387.6 154.47C391.45 154.47 395.32 155 399.1 156.08C399.1 156.08 399.1 156.08 399.1 156.08C399.93 156.32 400.76 156.58 401.58 156.87C401.62 157.53 401.89 162.8 401.92 163.46C397.44 161.51 392.65 160.54 387.91 160.54C379.49 160.54 371.23 163.61 365.12 169.76C361.64 173.26 359.24 177.37 357.89 181.76" id="b26dUDIp4H"></path><path d="M400.01 126.36L400.01 126.36L398.12 89.77L400.01 126.36" id="a5qE3e3KwA"></path><path d="M359.62 160.86C359.27 154.03 359.08 150.24 359.04 149.48C358.95 147.87 357.66 146.52 356.05 146.24C356.04 145.97 355.97 144.65 355.85 142.28L400.83 142.28L400.01 126.36L400.01 126.36C400.83 142.3 401.29 151.15 401.38 152.92C400.94 152.78 400.49 152.64 400.04 152.52C400.04 152.52 400.04 152.52 400.04 152.52C395.9 151.34 391.64 150.74 387.41 150.74C377.31 150.74 367.38 154.12 359.62 160.86" id="c48M3uDDLM"></path><path d="M357.36 171.55C357.28 170.09 357.24 169.28 357.23 169.11C358.05 168.03 358.93 166.99 359.89 165.99C359.9 166.22 360 168.08 360.01 168.31C360.09 169.92 358.94 171.27 357.36 171.55M356.94 163.42C356.41 153.11 356.11 147.38 356.05 146.24C357.66 146.52 358.95 147.87 359.04 149.48C359.09 150.62 359.57 159.72 359.62 160.86C358.9 161.49 358.2 162.14 357.52 162.83C357.32 163.03 357.13 163.22 356.94 163.42" id="l3Axe93Sxn"></path><path d="M363.92 298.52L358.73 298.52C356.12 248 354.67 219.94 354.38 214.32C355.98 216.53 357.82 218.64 359.89 220.6C360.16 225.79 361.5 251.77 363.92 298.52M359.6 214.91C357.3 212.23 355.42 209.34 353.96 206.31C353.82 203.45 352.63 180.57 352.49 177.71C353.63 174.68 355.21 171.79 357.23 169.11C357.3 170.38 357.82 180.49 357.89 181.76C355.85 188.39 356.22 195.63 358.95 202.26C358.99 203.11 359.21 207.32 359.6 214.91M352.07 169.7L350.65 142.28L355.85 142.28C356.5 154.96 356.87 162.01 356.94 163.42C355.07 165.39 353.45 167.49 352.07 169.7" id="b3KWi0S5RU"></path><path d="M358.73 298.52C340.59 298.52 330.51 298.52 328.5 298.52C330 296.22 331.15 293.72 331.91 291.1C331.64 291.02 329.49 290.36 329.22 290.28C328.36 293.24 326.96 296.04 325.05 298.52C324.43 298.52 319.5 298.52 318.88 298.52C326.03 291.93 327.89 281.17 322.69 271.99C318.19 264.02 309.58 259.4 300.88 259.4C297.39 259.4 293.89 260.14 290.62 261.72C279.23 267.21 275.11 280.71 281.43 291.87C282.89 294.45 284.78 296.68 286.96 298.52C286.34 298.52 281.41 298.52 280.79 298.52C279.54 297.08 278.41 295.5 277.45 293.79C271.99 284.16 273.05 273.07 279.2 265.19C278.97 265.02 277.16 263.69 276.94 263.53C270.18 272.19 269.02 284.38 275.01 294.97C275.71 296.21 276.49 297.4 277.34 298.52C275.88 298.52 268.53 298.52 255.31 298.52L244.3 85.5L347.72 85.5L244.3 85.5L247.24 142.28L350.65 142.28C351.5 158.73 351.98 167.87 352.07 169.7C347.77 176.63 345.9 184.6 346.41 192.54C346.41 192.54 346.41 192.54 346.41 192.54C346.91 200.13 349.58 207.7 354.38 214.32C354.67 219.94 356.12 248 358.73 298.52M309.25 253.57C308.86 255.1 308.64 255.96 308.6 256.13C316.02 258.17 322.69 263.03 326.68 270.08C330.39 276.63 331.08 283.85 329.22 290.28C329.49 290.36 331.64 291.02 331.91 291.1C333.96 284.04 333.19 276.1 329.12 268.9C324.73 261.15 317.4 255.82 309.25 253.57M300.51 252.38C295.94 252.38 291.34 253.36 287.06 255.42C282.93 257.41 279.52 260.21 276.94 263.53C277.16 263.69 278.97 265.02 279.2 265.19C281.55 262.17 284.65 259.62 288.41 257.81C292.31 255.94 296.49 255.05 300.65 255.05C303.34 255.05 306.01 255.42 308.6 256.13C308.67 255.87 309.18 253.83 309.25 253.57C306.4 252.79 303.46 252.38 300.51 252.38M353.96 206.31C351.83 201.9 350.61 197.2 350.3 192.49C350.3 192.49 350.3 192.49 350.3 192.49C349.97 187.46 350.7 182.43 352.49 177.71C352.58 179.61 353.08 189.15 353.96 206.31" id="a3fWjJScnE"></path><path d="M390.77 240.28L390.56 240.24L390.39 240.12L390.27 239.96C390.23 239.84 390.22 239.77 390.21 239.75C390.21 239.61 390.28 239.47 390.39 239.37C390.59 239.18 390.96 239.18 391.16 239.37C391.26 239.47 391.33 239.61 391.33 239.75C391.33 239.77 391.31 239.84 391.28 239.96L391.16 240.12L390.98 240.24L390.77 240.28" id="e1AMscqw4p"></path><path d="M390.96 243.25C391.25 243.24 391.52 243.46 391.53 243.75C391.54 244.04 391.32 244.3 391.01 244.31C391.01 244.31 390.99 244.31 390.98 244.31C390.69 244.31 390.44 244.09 390.43 243.81C390.41 243.52 390.65 243.27 390.96 243.25ZM391.16 247.29C391.46 247.28 391.73 247.49 391.74 247.79C391.76 248.08 391.52 248.32 391.21 248.35C391.21 248.35 391.19 248.35 391.18 248.35C390.89 248.35 390.65 248.12 390.64 247.84C390.63 247.54 390.85 247.3 391.16 247.29ZM391.37 251.31C391.68 251.3 391.93 251.53 391.94 251.82C391.96 252.11 391.73 252.35 391.42 252.37C391.42 252.37 391.4 252.37 391.4 252.37C391.1 252.37 390.87 252.15 390.85 251.87C390.83 251.58 391.06 251.32 391.37 251.31ZM391.58 255.35C391.88 255.33 392.14 255.55 392.16 255.84C392.17 256.13 391.94 256.39 391.64 256.4C391.63 256.4 391.61 256.4 391.61 256.4C391.32 256.4 391.06 256.19 391.05 255.89C391.04 255.61 391.28 255.36 391.58 255.35ZM391.78 259.38C392.09 259.35 392.34 259.58 392.37 259.88C392.38 260.17 392.14 260.41 391.84 260.44C391.83 260.44 391.81 260.44 391.81 260.44C391.52 260.44 391.28 260.21 391.26 259.93C391.25 259.63 391.48 259.39 391.78 259.38ZM392 263.4C392.3 263.39 392.56 263.62 392.57 263.91C392.58 264.2 392.36 264.45 392.05 264.46C392.05 264.46 392.03 264.46 392.02 264.46C391.73 264.46 391.49 264.24 391.46 263.96C391.45 263.67 391.69 263.41 392 263.4ZM392.2 267.44C392.5 267.42 392.77 267.64 392.78 267.93C392.8 268.23 392.56 268.48 392.26 268.49C392.26 268.49 392.24 268.49 392.24 268.49C391.94 268.49 391.69 268.28 391.68 267.98C391.66 267.7 391.9 267.45 392.2 267.44ZM392.41 271.47C392.72 271.45 392.97 271.68 392.98 271.97C393.01 272.26 392.77 272.5 392.46 272.53C392.46 272.53 392.44 272.53 392.44 272.53C392.14 272.53 391.9 272.3 391.89 272.02C391.88 271.73 392.1 271.48 392.41 271.47ZM392.62 275.49C392.93 275.48 393.18 275.71 393.19 276C393.21 276.3 392.98 276.54 392.68 276.55C392.67 276.55 392.65 276.55 392.65 276.55C392.36 276.55 392.1 276.33 392.09 276.05C392.08 275.76 392.32 275.51 392.62 275.49ZM392.3 280.08C392.29 279.8 392.52 279.54 392.82 279.53C393.13 279.52 393.39 279.73 393.41 280.02C393.42 280.32 393.18 280.57 392.88 280.58C392.87 280.58 392.85 280.58 392.85 280.58C392.57 280.58 392.32 280.37 392.3 280.08" id="aUZOj6PCY"></path><path d="M393.06 284.62C392.92 284.62 392.77 284.56 392.68 284.45C392.57 284.37 392.52 284.23 392.52 284.09C392.52 284.07 392.53 284 392.56 283.88L392.68 283.72C392.78 283.65 392.84 283.61 392.85 283.6C392.98 283.55 393.14 283.55 393.27 283.6C393.29 283.61 393.35 283.65 393.46 283.72L393.57 283.88C393.6 284 393.62 284.07 393.62 284.09C393.62 284.23 393.55 284.37 393.46 284.45C393.45 284.46 393.39 284.5 393.27 284.57L393.06 284.62" id="a8T5yoWfW"></path><path d="M343.93 283.56C344.23 283.56 344.47 283.79 344.47 284.09C344.47 284.38 344.23 284.62 343.93 284.62C343.62 284.62 343.37 284.38 343.37 284.09C343.37 283.79 343.62 283.56 343.93 283.56ZM348.39 283.56C348.69 283.56 348.95 283.79 348.95 284.09C348.95 284.38 348.69 284.62 348.39 284.62C348.08 284.62 347.84 284.38 347.84 284.09C347.84 283.79 348.08 283.56 348.39 283.56ZM352.86 283.56C353.17 283.56 353.41 283.79 353.41 284.09C353.41 284.38 353.17 284.62 352.86 284.62C352.55 284.62 352.3 284.38 352.3 284.09C352.3 283.79 352.55 283.56 352.86 283.56ZM357.32 283.56C357.63 283.56 357.88 283.79 357.88 284.09C357.88 284.38 357.63 284.62 357.32 284.62C357.03 284.62 356.77 284.38 356.77 284.09C356.77 283.79 357.03 283.56 357.32 283.56ZM361.79 283.56C362.1 283.56 362.34 283.79 362.34 284.09C362.34 284.38 362.1 284.62 361.79 284.62C361.49 284.62 361.23 284.38 361.23 284.09C361.23 283.79 361.49 283.56 361.79 283.56ZM366.27 283.56C366.57 283.56 366.81 283.79 366.81 284.09C366.81 284.38 366.57 284.62 366.27 284.62C365.96 284.62 365.71 284.38 365.71 284.09C365.71 283.79 365.96 283.56 366.27 283.56ZM370.72 283.56C371.03 283.56 371.28 283.79 371.28 284.09C371.28 284.38 371.03 284.62 370.72 284.62C370.42 284.62 370.18 284.38 370.18 284.09C370.18 283.79 370.42 283.56 370.72 283.56ZM375.2 283.56C375.5 283.56 375.74 283.79 375.74 284.09C375.74 284.38 375.5 284.62 375.2 284.62C374.89 284.62 374.64 284.38 374.64 284.09C374.64 283.79 374.89 283.56 375.2 283.56ZM379.66 283.56C379.96 283.56 380.22 283.79 380.22 284.09C380.22 284.38 379.96 284.62 379.66 284.62C379.35 284.62 379.11 284.38 379.11 284.09C379.11 283.79 379.35 283.56 379.66 283.56ZM384.13 283.56C384.44 283.56 384.68 283.79 384.68 284.09C384.68 284.38 384.44 284.62 384.13 284.62C383.82 284.62 383.57 284.38 383.57 284.09C383.57 283.79 383.82 283.56 384.13 283.56ZM388.04 284.09C388.04 283.79 388.3 283.56 388.6 283.56C388.89 283.56 389.15 283.79 389.15 284.09C389.15 284.38 388.89 284.62 388.6 284.62C388.3 284.62 388.04 284.38 388.04 284.09" id="bT95yrGw2"></path><path d="M339.46 284.62C339.31 284.62 339.18 284.56 339.07 284.45C339.06 284.44 339.02 284.39 338.95 284.29C338.93 284.17 338.91 284.1 338.91 284.09C338.91 283.95 338.96 283.81 339.07 283.72C339.22 283.56 339.46 283.51 339.67 283.6C339.69 283.61 339.82 283.7 339.84 283.72C339.95 283.81 340.02 283.95 340.02 284.09C340.01 284.1 339.99 284.17 339.96 284.29L339.84 284.45L339.67 284.57L339.46 284.62" id="a1DPRq7os"></path><path d="M398.12 89.77L375.59 89.77L375.59 85.5L397.9 85.5L398.12 89.77" id="b1qfByFsaR"></path><path d="M375.59 89.77L353.13 89.77L352.91 85.5L375.59 85.5L375.59 89.77" id="aeF8W1UFg"></path><path d="M400.01 126.36L357.84 126.36C357.52 120.06 357.34 116.56 357.3 115.86C357.22 114.25 355.93 112.9 354.31 112.61C354.23 111.09 353.84 103.48 353.13 89.77L375.59 89.77L398.12 89.77L400.01 126.36" id="b4JjMW81Hj"></path><path d="M400.83 142.28L355.85 142.28C355.71 139.67 355.64 138.22 355.62 137.93C357.21 137.64 358.36 136.29 358.27 134.68C358.24 134.13 358.1 131.35 357.84 126.36L400.01 126.36L400.83 142.28" id="b74UaFOO7"></path><path d="M355.62 137.93C354.84 122.74 354.4 114.3 354.31 112.61C355.93 112.9 357.22 114.25 357.3 115.86C357.34 116.56 357.52 120.06 357.84 126.36C358.1 131.35 358.24 134.13 358.27 134.68C358.36 136.29 357.21 137.64 355.62 137.93" id="a6qgEZxAc8"></path><path d="M355.85 142.28L350.65 142.28L347.72 85.5L352.91 85.5L355.85 142.28" id="acwuqDzFd"></path><path d="M350.65 142.28L247.24 142.28L244.3 85.5L347.72 85.5L350.65 142.28" id="bkifN2vC5"></path><path d="M393.6 233.24C393.38 231.01 393.26 229.77 393.23 229.52C402.67 229.12 411.81 225.47 418.68 218.56C422.71 214.5 425.54 209.74 427.17 204.68C427.54 204.8 430.53 205.8 430.9 205.93C429.1 211.5 426 216.73 421.57 221.19C414.02 228.78 403.97 232.79 393.6 233.24" id="dyhQtdKul"></path><path d="M430.9 205.93L430.9 205.93L430.9 205.93C428.66 205.18 427.42 204.76 427.17 204.68C428.16 201.62 428.71 198.44 428.83 195.24C430.12 194.83 431.43 194.49 432.75 194.21C432.74 198.19 432.12 202.14 430.9 205.93M426.84 181.91C425.61 178.31 423.82 174.84 421.47 171.62C421.47 171.03 421.47 166.33 421.47 165.74C425.68 170.33 428.73 175.56 430.59 181.04C429.33 181.28 428.08 181.57 426.84 181.91" id="aMVSqdFT2"></path><path d="M428.83 195.24C429 190.78 428.33 186.25 426.84 181.91C428.08 181.57 429.33 181.28 430.59 181.04C432.04 185.34 432.77 189.79 432.75 194.21C431.43 194.49 430.12 194.83 428.83 195.24" id="bBHhh5D"></path><path d="M421.47 171.62C419.88 169.44 418.03 167.37 415.94 165.46C411.65 161.56 406.75 158.7 401.58 156.87C401.56 156.48 401.4 153.32 401.38 152.92C407.57 154.89 413.46 158.19 418.55 162.83C419.58 163.77 420.55 164.74 421.47 165.74C421.47 166.13 421.47 168.09 421.47 171.62" id="a1l1P2jDof"></path><path d="M401.58 156.87C400.76 156.58 399.93 156.32 399.1 156.08C399.16 155.84 399.47 154.65 400.04 152.52C400.04 152.52 400.04 152.52 400.04 152.52C400.49 152.64 400.94 152.78 401.38 152.92C401.39 153.18 401.46 154.5 401.58 156.87" id="h1t5vgHNkZ"></path><path d="M360.53 221.19C351.83 213.27 347.09 202.93 346.41 192.54C346.8 192.54 349.91 192.5 350.3 192.49C350.92 201.94 355.23 211.35 363.15 218.56C371.66 226.32 382.63 229.97 393.23 229.52C393.27 229.89 393.56 232.87 393.6 233.24C381.95 233.73 369.89 229.72 360.53 221.19" id="ci1uby6iz"></path><path d="M359.89 165.99C359.73 162.91 359.64 161.2 359.62 160.86C367.38 154.12 377.31 150.74 387.41 150.74C391.64 150.74 395.9 151.34 400.04 152.52C399.98 152.76 399.66 153.94 399.1 156.08C399.1 156.08 399.1 156.08 399.1 156.08C395.32 155 391.45 154.47 387.6 154.47C377.55 154.47 367.69 158.13 360.4 165.46C360.23 165.64 360.06 165.81 359.89 165.99" id="c5xCXsPPty"></path><path d="M357.23 169.11C357.06 165.7 356.96 163.8 356.94 163.42C357.13 163.22 357.32 163.03 357.52 162.83C358.2 162.14 358.9 161.49 359.62 160.86C359.65 161.37 359.86 165.48 359.89 165.99C358.93 166.99 358.05 168.03 357.23 169.11" id="aaLtDyjim"></path><path d="M352.49 177.71C352.24 172.9 352.1 170.23 352.07 169.7C353.45 167.49 355.07 165.39 356.94 163.42C356.97 163.99 357.2 168.54 357.23 169.11C355.21 171.79 353.63 174.68 352.49 177.71" id="j5cGTHx52a"></path><path d="M346.41 192.54C345.9 184.6 347.77 176.63 352.07 169.7C352.11 170.5 352.44 176.91 352.49 177.71C350.7 182.43 349.97 187.46 350.3 192.49C350.04 192.5 348.75 192.51 346.41 192.54L346.41 192.54" id="b1KINXbNj"></path><path d="M421.47 201.31C421.47 199.57 421.47 198.6 421.47 198.41C421.7 198.28 421.93 198.16 422.16 198.03C421.99 199.14 421.76 200.23 421.47 201.31" id="k1xgnCRlb"></path><path d="M421.47 198.41C421.47 190.8 421.47 186.57 421.47 185.73C422.54 189.79 422.77 193.97 422.16 198.03C421.93 198.16 421.7 198.28 421.47 198.41" id="e1KAMxiB89"></path><path d="M404.87 220.56C404.76 218.35 404.7 217.12 404.68 216.87C406.61 212.33 409.5 208.07 413.36 204.38C412.7 203.76 409.44 200.63 403.55 195.01C409.44 200.63 412.7 203.76 413.36 204.38C415.84 202.01 418.57 200.02 421.47 198.41C421.47 198.7 421.47 201.02 421.47 201.31C420.19 206.05 417.69 210.51 413.96 214.26C411.29 216.95 408.2 219.05 404.87 220.56M403.55 194.91C402.57 176.04 402.03 165.56 401.92 163.46C405.41 164.97 408.71 167.07 411.66 169.76C416.11 173.81 419.2 178.7 420.91 183.86C414.48 186.4 408.57 190.13 403.55 194.91" id="a11EKQ6zM1"></path><path d="M413.36 204.38L403.55 195.01C403.55 194.95 403.55 194.92 403.55 194.91C408.57 190.13 414.48 186.4 420.91 183.86C421.12 184.48 421.3 185.1 421.47 185.73C421.47 187 421.47 197.14 421.47 198.41C418.57 200.02 415.84 202.01 413.36 204.38" id="cwtqNLZu"></path><path d="M404.68 216.87L403.55 195.01C409.44 200.63 412.7 203.76 413.36 204.38C409.5 208.07 406.61 212.33 404.68 216.87" id="aQmJTh8X9"></path><path d="M388.47 223.38C380.94 222.79 373.44 219.75 367.42 214.26C363.58 210.76 360.75 206.65 358.95 202.26C358.84 200.21 357.99 183.81 357.89 181.76C359.24 177.37 361.64 173.26 365.12 169.76C371.23 163.61 379.49 160.54 387.91 160.54C392.65 160.54 397.44 161.51 401.92 163.46C402.09 166.6 403.39 191.77 403.55 194.91C403.53 194.93 403.52 194.94 403.5 194.96C403.51 194.96 403.52 194.98 403.55 195.01C403.52 194.98 403.51 194.96 403.5 194.96C396.88 201.29 392.11 209.21 389.68 217.85C389.17 219.69 388.77 221.53 388.47 223.38M403.13 221.29C403.55 219.8 404.07 218.32 404.68 216.87C404.7 217.24 404.86 220.19 404.87 220.56C404.3 220.82 403.72 221.07 403.13 221.29" id="d6wheVg7Gg"></path><path d="M403.55 195.01C403.52 194.98 403.51 194.96 403.5 194.96C403.52 194.94 403.53 194.93 403.55 194.91C403.55 194.92 403.55 194.95 403.55 195.01" id="e2Y1eNRvRC"></path><path d="M391.17 223.48C390.27 223.48 389.37 223.45 388.47 223.38C388.77 221.53 389.17 219.69 389.68 217.85C392.11 209.21 396.88 201.29 403.5 194.96C403.51 194.96 403.52 194.98 403.55 195.01C404.23 208.12 404.61 215.41 404.68 216.87C404.07 218.32 403.55 219.8 403.13 221.29C399.34 222.75 395.27 223.48 391.17 223.48" id="a2ttMIVOx9"></path><path d="M358.95 202.26C356.22 195.63 355.85 188.39 357.89 181.76C357.96 183.13 358.31 189.96 358.95 202.26" id="a2aweNqPiP"></path><path d="M309.25 253.57C308.86 255.1 308.64 255.96 308.6 256.13C302 254.31 294.82 254.73 288.41 257.81C284.65 259.62 281.55 262.17 279.2 265.19C278.97 265.02 277.16 263.69 276.94 263.53C279.52 260.21 282.93 257.41 287.06 255.42C294.1 252.03 302 251.58 309.25 253.57" id="aej5B5tXL"></path><path d="M285.26 305.93C282.27 303.94 279.57 301.45 277.34 298.52C277.69 298.52 280.44 298.52 280.79 298.52C282.55 300.55 284.58 302.3 286.78 303.76C286.68 303.91 286.17 304.63 285.26 305.93" id="a20g2g8Aq9"></path><path d="M280.79 298.52C278.72 298.52 277.57 298.52 277.34 298.52C276.49 297.4 275.71 296.21 275.01 294.97C269.02 284.38 270.18 272.19 276.94 263.53C277.16 263.69 278.97 265.02 279.2 265.19C273.05 273.07 271.99 284.16 277.45 293.79C278.41 295.5 279.54 297.08 280.79 298.52" id="f4DA2k4qB"></path><path d="M331.91 291.1C330.29 290.61 329.4 290.33 329.22 290.28C331.08 283.85 330.39 276.63 326.68 270.08C322.69 263.03 316.02 258.17 308.6 256.13C308.67 255.87 309.18 253.83 309.25 253.57C317.4 255.82 324.73 261.15 329.12 268.9C333.19 276.1 333.96 284.04 331.91 291.1" id="dHbV0TfjQ"></path><path d="M331.91 291.1C329.79 298.41 324.66 304.79 317.06 308.45C306.73 313.42 294.54 312.07 285.26 305.93C285.41 305.71 286.63 303.98 286.78 303.76C295.22 309.36 306.31 310.59 315.71 306.06C322.62 302.73 327.29 296.93 329.22 290.28C329.4 290.33 330.29 290.61 331.91 291.1" id="b6qfJJ9STS"></path><path d="M303.24 304.47C297.36 304.47 291.52 302.35 286.96 298.52C290.15 298.52 315.69 298.52 318.88 298.52C317.33 299.94 315.53 301.18 313.5 302.15C310.24 303.72 306.73 304.47 303.24 304.47" id="h4wDknA5o"></path><path d="M318.88 298.52C299.73 298.52 289.09 298.52 286.96 298.52C284.78 296.68 282.89 294.45 281.43 291.87C275.11 280.71 279.23 267.21 290.62 261.72C293.89 260.14 297.39 259.4 300.88 259.4C309.58 259.4 318.19 264.02 322.69 271.99C327.89 281.17 326.03 291.93 318.88 298.52" id="cPRYRKRE"></path><path d="M342.32 92.66L337.05 92.66L323.8 111.54L339 130.43L344.28 130.43L329.07 111.54L342.32 92.66" id="c8lRYGdkp"></path><path d="M358.09 92.66L363.36 92.66L378.57 111.54L365.32 130.43L360.04 130.43L373.3 111.54L358.09 92.66" id="g79zs5A5Im"></path><path d="M224.98 136.7L208.14 136.7L207.81 130.35L204.77 130.35L210.86 130.35C210.16 126.12 209.77 123.77 209.7 123.3C210.81 122.59 211.45 121.37 211.38 120.04C211.27 117.87 209.33 116.11 207.08 116.11C207.08 116.11 207.08 116.11 207.08 116.11L206.75 109.75C196.65 109.75 191.04 109.75 189.92 109.75C188.58 109.75 187.53 110.77 187.53 112.03C187.53 110.77 188.58 109.75 189.92 109.75C193.28 109.75 220.22 109.75 223.58 109.75C224.97 109.75 226.15 110.84 226.22 112.15C226.33 114.37 227.25 132.08 227.36 134.3C227.43 135.62 226.36 136.7 224.98 136.7" id="foCvkwohD"></path><path d="M208.14 136.7C198.04 136.7 192.43 136.7 191.31 136.7C189.93 136.7 188.74 135.62 188.67 134.3C188.56 132.08 187.64 114.37 187.53 112.15C187.53 112.11 187.53 112.07 187.53 112.03C187.53 110.77 188.58 109.75 189.92 109.75C191.04 109.75 196.65 109.75 206.75 109.75C206.95 113.57 207.06 115.69 207.08 116.11C204.89 116.11 203.18 117.76 203.17 119.83C203.17 119.9 203.17 119.97 203.18 120.04C203.25 121.37 204 122.59 205.2 123.3C205.17 123.77 205.02 126.12 204.77 130.35L207.81 130.35L208.14 136.7" id="bgDbEeaxb"></path><path d="M220.5 108.16C219.27 108.16 218.22 107.21 218.16 106.03C218.15 105.82 218.06 104.08 218.05 103.87C217.74 97.9 212.69 92.76 206.44 92.46C206.24 92.45 206.05 92.45 205.85 92.45C199.46 92.45 194.51 97.43 194.83 103.54C194.84 103.79 194.94 105.78 194.95 106.03C195.01 107.21 194.07 108.16 192.84 108.16C191.61 108.16 190.56 107.21 190.5 106.03C190.49 105.82 190.4 104.13 190.39 103.92C189.96 95.61 196.34 88.52 205.02 88.2C205.22 88.19 205.43 88.19 205.63 88.19C214.49 88.19 222.05 95.08 222.49 103.54C222.5 103.79 222.6 105.78 222.61 106.03C222.68 107.21 221.73 108.16 220.5 108.16" id="c2qgh5dIJ4"></path><path d="M170.53 336.53L124.79 336.53C124.03 321.75 123.61 313.55 123.52 311.9C125.16 313.44 127.39 314.38 129.85 314.38C132.49 314.38 145.67 314.38 169.39 314.38L170.53 336.53M120.78 258.91L120.21 247.81L120.78 247.81L120.78 258.91" id="b145XSfiow"></path><path d="M120.78 190.81L117.26 190.81L116.22 170.61L120.78 170.61L120.78 190.81" id="b1FDL3hFT"></path><path d="M169.39 314.38C145.67 314.38 132.49 314.38 129.85 314.38C127.39 314.38 125.16 313.44 123.52 311.9C123.34 308.37 122.43 290.71 120.78 258.91L120.78 247.81L127.67 247.81L129.52 244.13C129.52 244.13 129.52 244.13 129.52 244.13C131.22 243.63 132.84 242.98 134.35 242.17C134.64 242.25 136.05 242.66 138.58 243.39L146.4 235.53L144.93 231.55C144.93 231.54 144.93 231.54 144.93 231.54C145.68 230.05 146.29 228.47 146.72 226.83C146.72 226.83 146.72 226.83 146.73 226.82L150.47 224.87L149.89 213.75C147.53 212.57 146.21 211.92 145.95 211.79C145.34 210.14 144.57 208.56 143.66 207.07C143.66 207.07 143.66 207.07 143.66 207.07L144.73 203.09L136.09 195.22L131.99 196.44C131.99 196.44 131.99 196.44 131.99 196.44C130.39 195.64 128.71 194.98 126.96 194.49C126.96 194.49 126.96 194.49 126.96 194.49L124.72 190.81L120.78 190.81L120.78 170.61L161.96 170.61L169.39 314.38" id="dLfpxDNVk"></path><path d="M173.77 336.53L170.53 336.53L169.39 314.38L161.96 170.61L165.2 170.61L173.77 336.53" id="dD444fD8e"></path><path d="M178.97 336.53L173.77 336.53L165.2 170.61L170.39 170.61L178.97 336.53" id="e1jHc3xqOg"></path><path d="M234.74 336.53L178.97 336.53L170.39 170.61L226.16 170.61L225.71 161.82L169.94 161.82L225.71 161.82L234.74 336.53" id="b3CaECm7uf"></path><path d="M120.78 239.47C120.44 239.46 120.11 239.44 119.77 239.41C119.76 239.13 119.64 236.87 119.63 236.58C120.01 236.62 120.4 236.64 120.78 236.65C120.78 236.83 120.78 237.77 120.78 239.47M117.84 202.03C117.76 200.33 117.71 199.39 117.7 199.2C118.24 199.16 118.78 199.14 119.34 199.14C119.82 199.14 120.3 199.16 120.78 199.19C120.78 199.47 120.78 201.72 120.78 202.01C120.35 201.98 119.92 201.96 119.48 201.96C118.93 201.96 118.38 201.99 117.84 202.03" id="av9G2lKO1"></path><path d="M121.42 239.47C121.21 239.47 120.99 239.47 120.78 239.47C120.78 239.18 120.78 236.93 120.78 236.65C120.95 236.65 121.11 236.65 121.27 236.65C131.28 236.65 139.01 228.87 138.52 219.31C138.05 210.16 130.21 202.65 120.78 202.01C120.78 201.72 120.78 199.47 120.78 199.19C131.79 199.9 140.92 208.63 141.47 219.31C142.05 230.45 133.07 239.47 121.42 239.47" id="a7SejUBb4M"></path><path d="M116.22 170.61L116.22 170.61L115.76 161.82L116.22 170.61" id="a4yxKei46p"></path><path d="M120.78 170.61L116.22 170.61L115.76 161.82L120.78 161.82L120.78 170.61" id="a22Z12mNdE"></path><path d="M161.96 170.61L120.78 170.61L120.78 161.82C143.79 161.82 156.58 161.82 159.13 161.82C159.45 163.03 160.42 164.02 161.64 164.43C161.66 164.84 161.76 166.9 161.96 170.61" id="c1G02ChQAU"></path><path d="M165.2 170.61L161.96 170.61C161.76 166.9 161.66 164.84 161.64 164.43C160.42 164.02 159.45 163.03 159.13 161.82C159.51 161.82 161.38 161.82 164.75 161.82L165.2 170.61" id="f2dzWcW8C6"></path><path d="M170.39 170.61L165.2 170.61L164.75 161.82L169.94 161.82L170.39 170.61" id="a461iU3wIz"></path><path d="M226.16 170.61L170.39 170.61L169.94 161.82L225.71 161.82L226.16 170.61" id="a1PmM8jPlw"></path><path d="M235.19 345.33L234.74 336.53L234.74 336.53L235.19 345.33" id="bj0x9WMLr"></path><path d="M170.98 345.33L125.25 345.33L124.79 336.53L170.53 336.53L170.98 345.33" id="bLXMJUTT"></path><path d="M174.23 345.33L170.98 345.33L170.53 336.53L173.77 336.53L174.23 345.33" id="a1onNWBWl"></path><path d="M179.42 345.33L174.23 345.33L173.77 336.53L178.97 336.53L179.42 345.33" id="i5nIrqhfIe"></path><path d="M235.19 345.33L179.42 345.33L178.97 336.53L234.74 336.53L235.19 345.33" id="a2jz2ZelF8"></path><path d="M121.42 239.47C109.77 239.47 99.86 230.45 99.29 219.31C98.71 208.17 107.69 199.14 119.34 199.14C130.98 199.14 140.9 208.17 141.47 219.31C142.05 230.45 133.07 239.47 121.42 239.47M149.89 213.75C147.53 212.57 146.21 211.92 145.95 211.79C145.34 210.14 144.57 208.56 143.66 207.07C143.66 207.07 143.66 207.07 143.66 207.07L144.73 203.09L136.09 195.22L131.99 196.44C131.99 196.44 131.99 196.44 131.99 196.44C130.39 195.64 128.71 194.98 126.96 194.49C126.96 194.49 126.96 194.49 126.96 194.49L124.72 190.81L113.09 190.81C111.98 193.02 111.36 194.24 111.23 194.49C109.54 194.98 107.92 195.64 106.4 196.44C106.4 196.44 106.4 196.44 106.4 196.44L102.17 195.22L94.35 203.09L95.83 207.07C95.83 207.07 95.83 207.07 95.83 207.07C95.07 208.56 94.47 210.14 94.03 211.79C93.78 211.92 92.53 212.57 90.29 213.75L90.86 224.87L94.81 226.82C94.81 226.83 94.81 226.83 94.81 226.83C95.41 228.47 96.18 230.05 97.09 231.54C97.09 231.54 97.1 231.54 97.1 231.55L96.03 235.53L104.66 243.39C107.12 242.66 108.49 242.25 108.77 242.17C110.37 242.98 112.05 243.63 113.8 244.13C113.95 244.37 114.69 245.6 116.03 247.81L127.67 247.81L129.52 244.13C129.52 244.13 129.52 244.13 129.52 244.13C131.22 243.63 132.84 242.98 134.35 242.17C134.64 242.25 136.05 242.66 138.58 243.39L146.4 235.53L144.93 231.55C144.93 231.54 144.93 231.54 144.93 231.54C145.68 230.05 146.29 228.47 146.72 226.83C146.72 226.83 146.72 226.83 146.73 226.82L150.47 224.87L149.89 213.75" id="fsOlxRWrT"></path><path d="M119.63 236.58C110.35 235.79 102.71 228.34 102.24 219.31C101.77 210.27 108.65 202.83 117.84 202.03C117.96 204.34 118.56 215.85 119.63 236.58" id="b5e4r6K2H6"></path><path d="M120.78 236.65C120.4 236.64 120.01 236.62 119.63 236.58C119.45 233.13 118.02 205.49 117.84 202.03C118.38 201.99 118.93 201.96 119.48 201.96C119.92 201.96 120.35 201.98 120.78 202.01C120.78 204.32 120.78 215.86 120.78 236.65" id="f54AHWWfy6"></path><path d="M121.27 236.65C121.11 236.65 120.95 236.65 120.78 236.65C120.78 233.18 120.78 205.47 120.78 202.01C130.21 202.65 138.05 210.16 138.52 219.31C139.01 228.87 131.28 236.65 121.27 236.65" id="aoR0Qa7Np"></path><path d="M236.34 230.95C198.89 230.95 178.08 230.95 173.92 230.95C171.29 230.95 169.26 232.99 169.39 235.5C169.55 238.57 170.82 263.08 170.97 266.14C171.11 268.66 173.34 270.69 175.97 270.69C178.47 270.69 190.98 270.69 213.49 270.69L214.18 283.98L227.39 270.69C233.99 270.69 237.66 270.69 238.39 270.69C241.02 270.69 243.04 268.66 242.92 266.14C242.76 263.08 241.49 238.57 241.33 235.5C241.2 232.99 238.97 230.95 236.34 230.95" id="jdJr3uGIu"></path><path d="M152.06 281.94C177.64 281.94 191.86 281.94 194.7 281.94C196.5 281.94 198.02 283.33 198.11 285.05C198.22 287.14 199.09 303.89 199.19 305.98C199.28 307.7 197.9 309.09 196.1 309.09C194.39 309.09 185.85 309.09 170.47 309.09L170.94 318.16L160.98 309.09C156.47 309.09 153.96 309.09 153.46 309.09C151.66 309.09 150.13 307.7 150.05 305.98C149.94 303.89 149.07 287.14 148.96 285.05C148.88 283.33 150.26 281.94 152.06 281.94" id="i2fbDOhswg"></path><path d="M520.94 207.12L514.64 206.85C516.35 213.71 517.29 217.52 517.48 218.28C517.48 218.28 521 216.06 523.59 213.13C524.67 211.91 524.53 210.09 523.27 209.04C523.11 208.91 522.33 208.27 520.94 207.12" id="a26oa4ypS2"></path><path d="M507.33 213.02L510.16 222.35L517.48 218.28L514.64 206.85L507.33 213.02" id="cCKChFzSx"></path><path d="M473.14 148.73C471.31 150.74 470.3 151.85 470.09 152.07C469.06 153.22 468.04 154.39 467.05 155.57C465.05 157.93 463.08 160.3 461.21 162.72C457.44 167.54 454.02 172.54 451.36 177.6C451.04 178.23 450.76 178.87 450.46 179.5C450.43 179.56 450.28 179.87 450.01 180.43C449.99 180.41 449.97 180.4 449.97 180.39C449.86 180.47 449.8 181.29 450.04 182.29C450.52 184.34 451.8 186.93 453.28 189.41C456.29 194.41 460.2 199.49 464.09 204.29C463.59 204.8 459.57 208.9 459.07 209.41C453.45 205.39 448.41 201.02 443.85 195.6C441.61 192.84 439.44 189.94 437.88 185.93C437.15 183.92 436.46 181.53 436.86 178.46C436.95 177.71 437.15 176.91 437.41 176.12C437.46 175.99 437.84 174.97 437.89 174.84C438.21 174.01 438.51 173.15 438.86 172.33C441.65 165.82 445.26 159.99 449.21 154.51C451.2 151.78 453.26 149.11 455.45 146.56C456.54 145.27 457.65 144.01 458.79 142.75C459.93 141.47 461.04 140.31 462.36 139C463.08 139.65 466.67 142.89 473.14 148.73" id="k55lGB55fH"></path><path d="M472.15 208.32L466.47 219.05L460.93 214.48L465.48 206.85L472.15 208.32" id="b2nts50002"></path><path d="M527.86 138.45C531.35 144.37 534.61 150.32 537.75 156.39C540.88 162.45 543.87 168.59 546.66 174.89C546.68 174.93 546.75 175.11 546.89 175.44C547.04 175.86 547.13 176.1 547.14 176.14C547.3 176.61 547.47 177.11 547.52 177.53C547.59 177.97 547.65 178.42 547.7 178.86C547.75 179.31 547.71 179.66 547.71 180.06C547.71 180.88 547.61 181.56 547.48 182.24C547.38 182.95 547.18 183.49 547.01 184.11C546.27 186.42 545.28 188.24 544.25 189.95C543.22 191.64 542.11 193.18 540.94 194.63C539.79 196.08 538.61 197.48 537.38 198.8C532.47 204.12 527.2 208.72 521.45 213.03C520.95 212.52 516.88 208.47 516.37 207.96C520.62 202.88 524.86 197.57 528.53 192.29C530.37 189.67 532.05 186.95 533.26 184.4C533.86 183.15 534.33 181.89 534.49 180.96C534.5 180.76 534.58 180.5 534.55 180.38C534.56 180.22 534.57 180.07 534.53 180.05C534.53 180.04 534.52 180.03 534.52 180L534.5 180.08L534.52 180.27C534.54 180.33 534.56 180.37 534.56 180.38C534.58 180.41 534.62 180.48 534.54 180.34C531.35 174.52 528.01 168.69 524.71 162.84C521.38 157.01 518.08 151.12 514.86 145.26C515.72 144.81 520.06 142.54 527.86 138.45" id="c1E5ViFS2h"></path><path d="M477.5 102.29C477.67 103.03 477.39 103.72 476.89 103.84C476.39 103.96 475.86 103.46 475.69 102.72C475.53 101.99 475.8 101.29 476.3 101.17C476.8 101.05 477.34 101.55 477.5 102.29" id="aCMmNMLEh"></path><path d="M477.46 103.7C477.46 103.7 476.67 108.38 475.21 110.9C476.83 111.79 479.01 110.68 479.01 110.68C478.91 110.22 478.39 107.89 477.46 103.7" id="bgy8tu4LF"></path><path d="M475.68 94.8C474.9 94.85 474.18 95.62 473.69 96.9C473.15 98.28 472.94 100.1 473.08 102C473.23 103.91 473.71 105.67 474.45 106.97C475.13 108.17 475.97 108.83 476.73 108.77C478.43 108.65 479.61 105.36 479.33 101.57C479.18 99.66 478.7 97.9 477.96 96.61C477.31 95.45 476.51 94.8 475.76 94.8C475.75 94.8 475.69 94.8 475.68 94.8ZM476.64 109.41C475.63 109.41 474.65 108.66 473.86 107.27C473.08 105.9 472.57 104.04 472.42 102.05C472.27 100.05 472.5 98.15 473.06 96.68C473.66 95.13 474.57 94.24 475.63 94.17C476.68 94.09 477.73 94.85 478.55 96.3C479.33 97.67 479.84 99.53 479.99 101.52C480.31 105.8 478.9 109.26 476.78 109.41C476.77 109.41 476.73 109.41 476.64 109.41" id="acjJYi9UZ"></path><path d="M475.46 97.8C475.62 97.76 475.7 97.73 475.72 97.73C475.78 97.69 477.18 96.79 479.03 97.52C479.27 97.61 479.54 97.5 479.64 97.28C479.74 97.05 479.62 96.79 479.39 96.7C477.05 95.78 475.27 96.95 475.19 97C474.98 97.14 474.93 97.41 475.08 97.61C475.17 97.74 475.31 97.8 475.46 97.8" id="a3F7Nwc7Qj"></path><path d="M504.08 107.48C503.83 115.17 500.84 124.47 505.66 129.04C505.66 129.04 503.42 135.98 490.13 135.98C475.51 135.98 483.43 129.04 483.43 129.04C491.48 127.22 491.5 121.56 490.32 116.24C491.24 115.66 495.83 112.74 504.08 107.48" id="e3Y4ABBFh"></path><path d="M509.09 131.42C510.22 129.22 511.39 125.85 509.04 125.06C506.45 124.19 493.27 122 483.25 125.04C485.06 128.58 483.38 131.88 483.38 131.88C485.1 131.85 493.67 131.7 509.09 131.42" id="e1fmAPSorD"></path><path d="M525.2 449.02C524.99 449.06 524.84 449.16 524.74 449.33C524.51 449.69 524.63 449.85 524.67 449.9C525.07 450.42 527.07 450.42 528.54 450.18C527.72 449.69 526.36 448.99 525.47 448.99C525.42 449 525.23 449.02 525.2 449.02ZM526.63 450.77C525.63 450.77 524.66 450.63 524.3 450.16C524.14 449.96 524.03 449.61 524.34 449.1C524.51 448.83 524.77 448.65 525.11 448.58C526.54 448.29 529.15 450.04 529.26 450.12C529.27 450.13 529.3 450.21 529.36 450.34C529.25 450.44 529.2 450.5 529.18 450.51C528.68 450.63 527.64 450.77 526.63 450.77" id="d1j8VkUTC"></path><path d="M527.21 446.73C526.89 446.77 526.86 446.92 526.85 446.98C526.72 447.6 527.9 449.14 528.86 449.86C528.78 449.07 528.54 447.49 527.83 446.92C527.67 446.79 527.5 446.73 527.31 446.73C527.29 446.73 527.22 446.73 527.21 446.73ZM529.13 450.52C529.06 450.5 529.03 450.49 529.02 450.49C528.05 449.97 526.18 447.94 526.39 446.89C526.43 446.7 526.58 446.36 527.15 446.29C527.52 446.25 527.84 446.35 528.13 446.58C529.23 447.48 529.36 450.17 529.36 450.29C529.36 450.3 529.32 450.37 529.25 450.48L529.13 450.52" id="a2sJ63r6K4"></path><path d="M465.5 449.33C465.3 449.64 465.4 449.77 465.43 449.82C465.86 450.4 468.34 450.43 470.17 450.18C469.13 449.66 467.47 448.97 466.4 448.97C465.99 448.97 465.67 449.07 465.5 449.33ZM467.91 450.78C466.65 450.78 465.45 450.61 465.06 450.07C464.92 449.88 464.81 449.56 465.11 449.1C466.15 447.45 470.49 449.83 470.98 450.11C470.99 450.12 471.03 450.2 471.09 450.33C470.99 450.44 470.92 450.5 470.91 450.51C470.29 450.63 469.08 450.78 467.91 450.78" id="a3Ri9oRvWV"></path><path d="M468.5 446.73C468.06 446.78 468.03 446.95 468.02 447C467.91 447.66 469.42 449.22 470.59 449.9C470.5 449.18 470.22 447.66 469.43 447.02C469.19 446.82 468.93 446.73 468.63 446.73C468.61 446.73 468.51 446.73 468.5 446.73ZM470.87 450.52C470.81 450.51 470.78 450.5 470.77 450.5C469.6 449.99 467.38 448.01 467.56 446.93C467.61 446.67 467.8 446.36 468.45 446.29C468.92 446.25 469.36 446.38 469.73 446.68C470.93 447.66 471.09 450.18 471.1 450.28C471.09 450.3 471.06 450.36 471 450.48L470.87 450.52" id="dO0E2fJnx"></path><path d="M481.62 450.3L471.84 450.3L471.74 428.64L481.52 428.64L481.62 450.3" id="c34aaYBkzJ"></path><path d="M540.33 450.3L530.56 450.3L526.51 428.64L536.29 428.64L540.33 450.3" id="d7qQMDCNB"></path><path d="M529.91 449.21C536.5 449.21 540.16 449.21 540.89 449.21C541.29 449.21 541.63 449.48 541.7 449.85C541.86 450.68 543.13 457.33 543.29 458.16C543.46 459.03 542.72 459.84 541.79 459.83C537.96 459.76 536.11 459.55 531.28 459.55C528.3 459.55 522.17 459.84 518.06 459.84C514.05 459.84 513.58 455.96 515.27 455.61C522.87 454.03 525.8 451.86 528.29 449.79C528.74 449.41 529.32 449.21 529.91 449.21" id="bTEYimK9V"></path><path d="M471.95 449.21C478.36 449.21 481.92 449.21 482.63 449.21C483.03 449.21 483.36 449.48 483.44 449.85C483.6 450.68 484.87 457.33 485.03 458.16C485.2 459.02 484.48 459.84 483.56 459.83C479.71 459.76 474.15 459.55 469.31 459.55C463.65 459.55 458.74 459.84 452.11 459.84C448.09 459.84 447.13 455.96 448.83 455.61C456.54 454.01 462.8 453.84 469.56 449.94C470.3 449.52 471.11 449.21 471.95 449.21" id="bihWPEcBw"></path><path d="M524.32 131.15C533.4 133.16 542.95 157.05 542.95 157.05C541.06 158.26 525.94 167.91 524.05 169.12C524.05 169.12 517.46 159.79 512.69 149.35C507.7 138.42 515.03 129.1 524.32 131.15" id="cZ8i5Z2cv"></path><path d="M524.05 169.12C524.05 169.12 521.91 166.08 519.18 161.53C519.18 161.53 519.18 161.53 519.18 161.52C521.87 166 523.99 169.02 524.06 169.11C524.06 169.12 524.06 169.12 524.05 169.12M524.6 168.77L524.95 168.54C521.96 160.07 520.3 155.37 519.97 154.43C520.94 146.82 522.33 138.95 524.31 131.15C524.32 131.15 524.32 131.15 524.32 131.15C533.4 133.16 542.95 157.05 542.95 157.05C542.71 157.21 541.48 157.99 539.29 159.39L527.14 167.15L524.6 168.77M524.15 131.12C524.03 131.09 523.84 131.06 523.6 131.01C523.78 131.04 523.97 131.08 524.15 131.12" id="baLXRSj3T"></path><path d="M524.06 169.12C524.06 169.12 524.06 169.12 524.06 169.11C524.09 169.09 524.28 168.98 524.6 168.77L524.06 169.12" id="b4va5S1GvB"></path><path d="M524.06 169.11C523.99 169.02 521.87 166 519.18 161.52C519.4 159.19 519.67 156.82 519.97 154.43C520.3 155.37 521.96 160.07 524.95 168.54L524.6 168.77L524.06 169.11" id="d2grVwQ3WL"></path><path d="M463.31 172.92C463.38 183.36 464.04 196.34 465.67 212.45C470.9 212.45 512.75 212.45 517.98 212.45C518.65 204.78 515.12 167.32 524.31 131.15C524.31 131.15 515.42 129.43 506.89 129.03C500.23 128.73 490.56 128.52 484.66 129.03C476.89 129.71 469.52 131.63 469.52 131.63C469.52 131.63 465.04 136.26 463.69 157.99C463.42 162.28 463.28 167.22 463.31 172.92" id="a4BBahEMW"></path><path d="M517.98 212.45C486.59 212.45 469.16 212.45 465.67 212.45C465.49 210.72 465.33 209.02 465.18 207.36C463.91 193.57 463.38 182.23 463.31 172.92C465.31 169.43 468.35 163.71 470.1 158.38C475.02 152.2 479.79 145.07 479.8 140.62C479.8 140.44 479.79 140.26 479.78 140.09C479.26 134.54 475.76 131.53 471.05 131.53C470.55 131.53 470.04 131.56 469.51 131.63C469.52 131.63 469.52 131.63 469.52 131.63C469.52 131.63 476.89 129.71 484.66 129.03C487.26 128.81 490.58 128.72 494.06 128.72C498.49 128.72 503.16 128.86 506.89 129.03C515.42 129.43 524.31 131.15 524.31 131.15C522.33 138.95 520.94 146.81 519.97 154.43C519.67 156.82 519.4 159.19 519.18 161.52C519.18 161.53 519.18 161.53 519.18 161.53C518.11 172.52 517.85 182.74 517.85 191.17C517.85 199.03 518.08 205.35 518.08 209.3C518.08 209.42 518.08 209.54 518.07 209.66C518.07 210.82 518.04 211.76 517.98 212.45" id="gp71VAipO"></path><path d="M463.31 172.92C463.31 172.92 463.31 172.92 463.31 172.92C463.31 172.34 463.31 171.77 463.31 171.21C463.31 169.5 463.32 167.86 463.35 166.29C465.28 164.16 467.71 161.38 470.1 158.38C468.35 163.71 465.31 169.43 463.31 172.92" id="c3St6iUpDx"></path><path d="M479.78 140.09C480.6 148.96 459.48 170.43 459.48 170.43C457.78 169.11 444.24 158.56 442.54 157.24C442.54 157.24 449.51 145.71 458.37 137.51C468.27 128.36 478.85 130.1 479.78 140.09" id="h3cwfymvF"></path><path d="M459.48 170.43L456.96 168.47L445.67 159.68C443.8 158.22 442.75 157.41 442.54 157.24C442.54 157.24 449.51 145.71 458.37 137.51C462.76 133.45 467.29 131.53 471.05 131.53C475.76 131.53 479.26 134.54 479.78 140.09C479.79 140.26 479.8 140.44 479.8 140.62C479.79 145.07 475.02 152.2 470.1 158.38C467.71 161.38 465.28 164.16 463.35 166.29C461.07 168.82 459.48 170.43 459.48 170.43" id="b1GUJ25yAd"></path><path d="M481.58 439.81L481.57 439.81L481.56 437.65L481.57 437.65L481.58 439.81" id="hVi9BCd0V"></path><path d="M481.57 439.81L471.79 439.81L471.78 437.65L481.56 437.65L481.57 439.81" id="bsKIVS6Xv"></path><path d="M538.39 439.81L538.38 439.81L537.97 437.65L537.98 437.65L538.39 439.81" id="b2FLog9fIo"></path><path d="M538.38 439.81L528.6 439.81L528.2 437.65L537.97 437.65L538.38 439.81" id="b39CCysup"></path><path d="M502.66 94.56C504.1 103.77 505.42 109.07 501.71 114.87C496.12 123.6 483.61 122.24 479.36 113.73C475.54 106.07 473.84 92.3 482.23 86.47C490.5 80.73 501.23 85.36 502.66 94.56" id="by1jWBMwb"></path><path d="M486.31 92.04C455.54 91.33 480.72 73.53 480.72 73.53C475.66 82.02 490.16 81.24 493.81 77.42C498.27 72.76 506.3 79.26 505.66 84.35C510.34 83.78 514.07 87.11 512.29 97.8C510.52 108.5 506.89 111.5 504.97 114.12C503.05 116.73 503.22 114.24 496.83 115.38C492.44 116.16 485.07 107.1 484.27 101.81C483.38 95.95 486.31 92.04 486.31 92.04" id="e3wudqGDy8"></path><path d="M502.14 85.9C502.14 85.9 510.17 82.72 504.75 74.73C512.2 78.41 511.09 85.13 502.14 85.9" id="a8PoVvJyR"></path><path d="M490.57 100.26C490.57 102.71 489.54 105.11 488.22 106.74C486.25 109.18 483.96 107.97 483.43 105.26C482.94 102.81 483.39 98.6 485.89 97.12C488.36 95.67 490.58 97.46 490.57 100.26" id="avVLbOGGk"></path><path d="M484.23 212.45C484.23 212.45 492.44 283.91 497.45 310.68C502.94 340 524.13 437.65 524.13 437.65C525.92 437.65 540.25 437.65 542.04 437.65C542.04 437.65 529.32 342.36 526.68 313.34C523.82 281.84 517.98 212.45 517.98 212.45C515.73 212.45 504.48 212.45 484.23 212.45" id="d1jhrFVw5U"></path><path d="M521.53 431.34L523.11 437.92L543.26 437.92L543.13 432.05L521.53 431.34" id="c22hnC0Qux"></path><path d="M497.25 309.61C496.07 303.16 494.74 294.42 493.38 284.79C493.38 284.79 493.38 284.79 493.38 284.79C494.74 294.4 496.07 303.15 497.25 309.59C497.25 309.6 497.25 309.6 497.25 309.61" id="c3ZQ7L6Ga2"></path><path d="M497.25 309.59C496.07 303.15 494.74 294.4 493.38 284.79C494.46 271.99 495.71 258.22 496.84 246.16C501.46 260.9 499.15 291.67 497.25 309.59" id="a28aiE32IE"></path><path d="M465.67 212.45C465.67 212.45 461.5 282.36 461.41 310.88C461.32 340.54 468.24 437.65 468.24 437.65C469.89 437.65 483.15 437.65 484.8 437.65C484.8 437.65 489.26 342.27 491.18 313.14C493.26 281.39 500.05 212.45 500.05 212.45C497.76 212.45 486.3 212.45 465.67 212.45" id="b2HM2d7h01"></path><path d="M461.67 203.47C464.46 203.69 466.01 203.81 466.32 203.83C467.93 203.96 469.02 205.47 468.55 206.96C468.36 207.57 466.82 212.51 466.63 213.13C465.94 215.33 463.13 216.2 461.26 214.76C459.42 213.33 457.04 209.9 456.29 206.85C456.65 206.63 458.44 205.5 461.67 203.47" id="a24cAcQp79"></path><path d="M472.15 426.27C472.05 426.18 472 426.13 471.99 426.12C470.15 399.24 465.89 334.21 465.96 310.88C466.04 287.01 469 233.62 469.91 217.82C469.92 217.81 469.98 217.76 470.08 217.67C470.18 217.77 470.23 217.83 470.24 217.84C469.34 233.63 466.37 287.02 466.3 310.88C466.23 334.2 470.48 399.23 472.32 426.1C472.31 426.11 472.26 426.17 472.16 426.27L472.15 426.27" id="anAVVpWdD"></path><path d="M465.3 431.34L465.97 437.92L486.12 437.92L486.91 432.05L465.3 431.34" id="c1EPuxrZUx"></path></defs><g><g><use xlink:href="#a1wnOC55TD" opacity="1" fill="#e7e8e5" fill-opacity="1"></use><g><use xlink:href="#a1wnOC55TD" opacity="1" fill-opacity="0" stroke="#000000" stroke-width="1" stroke-opacity="0"></use></g></g><g><use xlink:href="#a1KPiKr1uQ" opacity="1" fill="#e7e8e5" fill-opacity="1"></use><g><use xlink:href="#a1KPiKr1uQ" opacity="1" fill-opacity="0" stroke="#000000" stroke-width="1" stroke-opacity="0"></use></g></g><g><use xlink:href="#a36WDuJv5T" opacity="1" fill="#e7e8e5" fill-opacity="1"></use><g><use xlink:href="#a36WDuJv5T" opacity="1" fill-opacity="0" stroke="#000000" stroke-width="1" stroke-opacity="0"></use></g></g><g><use xlink:href="#c3KEUvMiq" opacity="1" fill="#e7e8e5" fill-opacity="1"></use><g><use xlink:href="#c3KEUvMiq" opacity="1" fill-opacity="0" stroke="#000000" stroke-width="1" stroke-opacity="0"></use></g></g><g><use xlink:href="#a1OG4UuCvt" opacity="1" fill="#e7e8e5" fill-opacity="1"></use><g><use xlink:href="#a1OG4UuCvt" opacity="1" fill-opacity="0" stroke="#000000" stroke-width="1" stroke-opacity="0"></use></g></g><g><use xlink:href="#bpLav3sXG" opacity="1" fill="#e7e8e5" fill-opacity="1"></use><g><use xlink:href="#bpLav3sXG" opacity="1" fill-opacity="0" stroke="#000000" stroke-width="1" stroke-opacity="0"></use></g></g><g><use xlink:href="#dtgFizHFh" opacity="1" fill="#e7e8e5" fill-opacity="1"></use><g><use xlink:href="#dtgFizHFh" opacity="1" fill-opacity="0" stroke="#000000" stroke-width="1" stroke-opacity="0"></use></g></g><g><use xlink:href="#buO85KU4u" opacity="1" fill="#e7e8e5" fill-opacity="1"></use><g><use xlink:href="#buO85KU4u" opacity="1" fill-opacity="0" stroke="#000000" stroke-width="1" stroke-opacity="0"></use></g></g><g><use xlink:href="#e1JLkiiy81" opacity="1" fill="#e7e8e5" fill-opacity="1"></use><g><use xlink:href="#e1JLkiiy81" opacity="1" fill-opacity="0" stroke="#000000" stroke-width="1" stroke-opacity="0"></use></g></g><g><use xlink:href="#a1eIMkZUZs" opacity="1" fill="#e7e8e5" fill-opacity="1"></use><g><use xlink:href="#a1eIMkZUZs" opacity="1" fill-opacity="0" stroke="#000000" stroke-width="1" stroke-opacity="0"></use></g></g><g><use xlink:href="#afJpMFdM0" opacity="1" fill="#f0f0ee" fill-opacity="1"></use><g><use xlink:href="#afJpMFdM0" opacity="1" fill-opacity="0" stroke="#000000" stroke-width="1" stroke-opacity="0"></use></g></g><g><use xlink:href="#a9MLqLGyt" opacity="1" fill="#f9f9f8" fill-opacity="1"></use><g><use xlink:href="#a9MLqLGyt" opacity="1" fill-opacity="0" stroke="#000000" stroke-width="1" stroke-opacity="0"></use></g></g><g><use xlink:href="#eeIYsGwlr" opacity="1" fill="#e9e9e7" fill-opacity="1"></use><g><use xlink:href="#eeIYsGwlr" opacity="1" fill-opacity="0" stroke="#000000" stroke-width="1" stroke-opacity="0"></use></g></g><g><use xlink:href="#g9YxqQd27v" opacity="1" fill="#f0f0ee" fill-opacity="1"></use><g><use xlink:href="#g9YxqQd27v" opacity="1" fill-opacity="0" stroke="#000000" stroke-width="1" stroke-opacity="0"></use></g></g><g><use xlink:href="#gs09F4MR8" opacity="1" fill="#f9f9f8" fill-opacity="1"></use><g><use xlink:href="#gs09F4MR8" opacity="1" fill-opacity="0" stroke="#000000" stroke-width="1" stroke-opacity="0"></use></g></g><g><use xlink:href="#agKsUSiG8" opacity="1" fill="#e9e9e7" fill-opacity="1"></use><g><use xlink:href="#agKsUSiG8" opacity="1" fill-opacity="0" stroke="#000000" stroke-width="1" stroke-opacity="0"></use></g></g><g><use xlink:href="#bWVOvsV78" opacity="1" fill="#fafaf9" fill-opacity="1"></use><g><use xlink:href="#bWVOvsV78" opacity="1" fill-opacity="0" stroke="#000000" stroke-width="1" stroke-opacity="0"></use></g></g><g><use xlink:href="#bQpkJtJOm" opacity="1" fill="#ededeb" fill-opacity="1"></use><g><use xlink:href="#bQpkJtJOm" opacity="1" fill-opacity="0" stroke="#000000" stroke-width="1" stroke-opacity="0"></use></g></g><g><use xlink:href="#b1OFfKcVAI" opacity="1" fill="#f0f0ee" fill-opacity="1"></use><g><use xlink:href="#b1OFfKcVAI" opacity="1" fill-opacity="0" stroke="#000000" stroke-width="1" stroke-opacity="0"></use></g></g><g><use xlink:href="#dv0v14YPC" opacity="1" fill="#f7f7f5" fill-opacity="1"></use><g><use xlink:href="#dv0v14YPC" opacity="1" fill-opacity="0" stroke="#000000" stroke-width="1" stroke-opacity="0"></use></g></g><g><use xlink:href="#aqKTJjKnV" opacity="1" fill="#fafaf9" fill-opacity="1"></use><g><use xlink:href="#aqKTJjKnV" opacity="1" fill-opacity="0" stroke="#000000" stroke-width="1" stroke-opacity="0"></use></g></g><g><use xlink:href="#gk7r67zVi" opacity="1" fill="#f0f0ee" fill-opacity="1"></use><g><use xlink:href="#gk7r67zVi" opacity="1" fill-opacity="0" stroke="#000000" stroke-width="1" stroke-opacity="0"></use></g></g><g><use xlink:href="#b1OZKEqUQ" opacity="1" fill="#f7f7f5" fill-opacity="1"></use><g><use xlink:href="#b1OZKEqUQ" opacity="1" fill-opacity="0" stroke="#000000" stroke-width="1" stroke-opacity="0"></use></g></g><g><use xlink:href="#e69l6gny7E" opacity="1" fill="#ebebe8" fill-opacity="1"></use><g><use xlink:href="#e69l6gny7E" opacity="1" fill-opacity="0" stroke="#000000" stroke-width="1" stroke-opacity="0"></use></g></g><g><use xlink:href="#c1HtYLA0x0" opacity="1" fill="#fafaf9" fill-opacity="1"></use><g><use xlink:href="#c1HtYLA0x0" opacity="1" fill-opacity="0" stroke="#000000" stroke-width="1" stroke-opacity="0"></use></g></g><g><use xlink:href="#a1mhA4SNcD" opacity="1" fill="#f0f0ee" fill-opacity="1"></use><g><use xlink:href="#a1mhA4SNcD" opacity="1" fill-opacity="0" stroke="#000000" stroke-width="1" stroke-opacity="0"></use></g></g><g><use xlink:href="#fbaEZtUlp" opacity="1" fill="#f7f7f5" fill-opacity="1"></use><g><use xlink:href="#fbaEZtUlp" opacity="1" fill-opacity="0" stroke="#000000" stroke-width="1" stroke-opacity="0"></use></g></g><g><use xlink:href="#q1KR8Ipotb" opacity="1" fill="#ebebe8" fill-opacity="1"></use><g><use xlink:href="#q1KR8Ipotb" opacity="1" fill-opacity="0" stroke="#000000" stroke-width="1" stroke-opacity="0"></use></g></g><g><use xlink:href="#b4bqqk9aSY" opacity="1" fill="#f4f4f2" fill-opacity="1"></use><g><use xlink:href="#b4bqqk9aSY" opacity="1" fill-opacity="0" stroke="#000000" stroke-width="1" stroke-opacity="0"></use></g></g><g><use xlink:href="#a1yu07z9Am" opacity="1" fill="#ebebe8" fill-opacity="1"></use><g><use xlink:href="#a1yu07z9Am" opacity="1" fill-opacity="0" stroke="#000000" stroke-width="1" stroke-opacity="0"></use></g></g><g><use xlink:href="#d5RFKJyGR5" opacity="1" fill="#ebebe8" fill-opacity="1"></use><g><use xlink:href="#d5RFKJyGR5" opacity="1" fill-opacity="0" stroke="#000000" stroke-width="1" stroke-opacity="0"></use></g></g><g><use xlink:href="#a50fx1jvQg" opacity="1" fill="#f4f4f2" fill-opacity="1"></use><g><use xlink:href="#a50fx1jvQg" opacity="1" fill-opacity="0" stroke="#000000" stroke-width="1" stroke-opacity="0"></use></g></g><g><use xlink:href="#c42HTGutxy" opacity="1" fill="#ffffff" fill-opacity="1"></use><g><use xlink:href="#c42HTGutxy" opacity="1" fill-opacity="0" stroke="#000000" stroke-width="1" stroke-opacity="0"></use></g></g><g><use xlink:href="#d1WyV3SfrG" opacity="1" fill="#ffffff" fill-opacity="1"></use><g><use xlink:href="#d1WyV3SfrG" opacity="1" fill-opacity="0" stroke="#000000" stroke-width="1" stroke-opacity="0"></use></g></g><g><use xlink:href="#cfSTyWaqx" opacity="1" fill="#ffffff" fill-opacity="1"></use><g><use xlink:href="#cfSTyWaqx" opacity="1" fill-opacity="0" stroke="#000000" stroke-width="1" stroke-opacity="0"></use></g></g><g><use xlink:href="#a2ChuoKL7P" opacity="1" fill="#e9e9e7" fill-opacity="1"></use><g><use xlink:href="#a2ChuoKL7P" opacity="1" fill-opacity="0" stroke="#000000" stroke-width="1" stroke-opacity="0"></use></g></g><g><use xlink:href="#aS272pHlC" opacity="1" fill="#f9f9f8" fill-opacity="1"></use><g><use xlink:href="#aS272pHlC" opacity="1" fill-opacity="0" stroke="#000000" stroke-width="1" stroke-opacity="0"></use></g></g><g><use xlink:href="#ar4sRbtnU" opacity="1" fill="#ededeb" fill-opacity="1"></use><g><use xlink:href="#ar4sRbtnU" opacity="1" fill-opacity="0" stroke="#000000" stroke-width="1" stroke-opacity="0"></use></g></g><g><use xlink:href="#b3mQ5Pkwzo" opacity="1" fill="#ededeb" fill-opacity="1"></use><g><use xlink:href="#b3mQ5Pkwzo" opacity="1" fill-opacity="0" stroke="#000000" stroke-width="1" stroke-opacity="0"></use></g></g><g><use xlink:href="#b6lBeruLx0" opacity="1" fill="#eaeae8" fill-opacity="1"></use><g><use xlink:href="#b6lBeruLx0" opacity="1" fill-opacity="0" stroke="#000000" stroke-width="1" stroke-opacity="0"></use></g></g><g><use xlink:href="#bfQEPYOxW" opacity="1" fill="#e4e5e2" fill-opacity="1"></use><g><use xlink:href="#bfQEPYOxW" opacity="1" fill-opacity="0" stroke="#000000" stroke-width="1" stroke-opacity="0"></use></g></g><g><use xlink:href="#aEjmilkH8" opacity="1" fill="#f3f2f1" fill-opacity="1"></use><g><use xlink:href="#aEjmilkH8" opacity="1" fill-opacity="0" stroke="#000000" stroke-width="1" stroke-opacity="0"></use></g></g><g><use xlink:href="#a2iEbIkzvW" opacity="1" fill="#406fbf" fill-opacity="1"></use><g><use xlink:href="#a2iEbIkzvW" opacity="1" fill-opacity="0" stroke="#000000" stroke-width="1" stroke-opacity="0"></use></g></g><g><use xlink:href="#d4nnMK7EJt" opacity="1" fill="#406fbf" fill-opacity="1"></use><g><use xlink:href="#d4nnMK7EJt" opacity="1" fill-opacity="0" stroke="#000000" stroke-width="1" stroke-opacity="0"></use></g></g><g><use xlink:href="#ehZDBVZ1o" opacity="1" fill="#7ba4dc" fill-opacity="1"></use><g><use xlink:href="#ehZDBVZ1o" opacity="1" fill-opacity="0" stroke="#000000" stroke-width="1" stroke-opacity="0"></use></g></g><g><use xlink:href="#c2Pb3siWU1" opacity="1" fill="#ffffff" fill-opacity="1"></use><g><use xlink:href="#c2Pb3siWU1" opacity="1" fill-opacity="0" stroke="#000000" stroke-width="1" stroke-opacity="0"></use></g></g><g><use xlink:href="#gDRVpKGA" opacity="1" fill="#4f7bc7" fill-opacity="1"></use><g><use xlink:href="#gDRVpKGA" opacity="1" fill-opacity="0" stroke="#000000" stroke-width="1" stroke-opacity="0"></use></g></g><g><use xlink:href="#ciXwJEaUG" opacity="1" fill="#77a0da" fill-opacity="1"></use><g><use xlink:href="#ciXwJEaUG" opacity="1" fill-opacity="0" stroke="#000000" stroke-width="1" stroke-opacity="0"></use></g></g><g><use xlink:href="#a1B1cSXOVf" opacity="1" fill="#749dd9" fill-opacity="1"></use><g><use xlink:href="#a1B1cSXOVf" opacity="1" fill-opacity="0" stroke="#000000" stroke-width="1" stroke-opacity="0"></use></g></g><g><use xlink:href="#b26dUDIp4H" opacity="1" fill="#77a0da" fill-opacity="1"></use><g><use xlink:href="#b26dUDIp4H" opacity="1" fill-opacity="0" stroke="#000000" stroke-width="1" stroke-opacity="0"></use></g></g><g><use xlink:href="#a5qE3e3KwA" opacity="1" fill="#7ba4dc" fill-opacity="1"></use><g><use xlink:href="#a5qE3e3KwA" opacity="1" fill-opacity="0" stroke="#000000" stroke-width="1" stroke-opacity="0"></use></g></g><g><use xlink:href="#c48M3uDDLM" opacity="1" fill="#77a0da" fill-opacity="1"></use><g><use xlink:href="#c48M3uDDLM" opacity="1" fill-opacity="0" stroke="#000000" stroke-width="1" stroke-opacity="0"></use></g></g><g><use xlink:href="#l3Axe93Sxn" opacity="1" fill="#406fbf" fill-opacity="1"></use><g><use xlink:href="#l3Axe93Sxn" opacity="1" fill-opacity="0" stroke="#000000" stroke-width="1" stroke-opacity="0"></use></g></g><g><use xlink:href="#b3KWi0S5RU" opacity="1" fill="#5580ca" fill-opacity="1"></use><g><use xlink:href="#b3KWi0S5RU" opacity="1" fill-opacity="0" stroke="#000000" stroke-width="1" stroke-opacity="0"></use></g></g><g><use xlink:href="#a3fWjJScnE" opacity="1" fill="#7da6dd" fill-opacity="1"></use><g><use xlink:href="#a3fWjJScnE" opacity="1" fill-opacity="0" stroke="#000000" stroke-width="1" stroke-opacity="0"></use></g></g><g><use xlink:href="#e1AMscqw4p" opacity="1" fill="#ffffff" fill-opacity="1"></use><g><use xlink:href="#e1AMscqw4p" opacity="1" fill-opacity="0" stroke="#000000" stroke-width="1" stroke-opacity="0"></use></g></g><g><use xlink:href="#aUZOj6PCY" opacity="1" fill="#ffffff" fill-opacity="1"></use><g><use xlink:href="#aUZOj6PCY" opacity="1" fill-opacity="0" stroke="#000000" stroke-width="1" stroke-opacity="0"></use></g></g><g><use xlink:href="#a8T5yoWfW" opacity="1" fill="#ffffff" fill-opacity="1"></use><g><use xlink:href="#a8T5yoWfW" opacity="1" fill-opacity="0" stroke="#000000" stroke-width="1" stroke-opacity="0"></use></g></g><g><use xlink:href="#bT95yrGw2" opacity="1" fill="#ffffff" fill-opacity="1"></use><g><use xlink:href="#bT95yrGw2" opacity="1" fill-opacity="0" stroke="#000000" stroke-width="1" stroke-opacity="0"></use></g></g><g><use xlink:href="#a1DPRq7os" opacity="1" fill="#ffffff" fill-opacity="1"></use><g><use xlink:href="#a1DPRq7os" opacity="1" fill-opacity="0" stroke="#000000" stroke-width="1" stroke-opacity="0"></use></g></g><g><use xlink:href="#b1qfByFsaR" opacity="1" fill="#5d87ce" fill-opacity="1"></use><g><use xlink:href="#b1qfByFsaR" opacity="1" fill-opacity="0" stroke="#000000" stroke-width="1" stroke-opacity="0"></use></g></g><g><use xlink:href="#aeF8W1UFg" opacity="1" fill="#5983cb" fill-opacity="1"></use><g><use xlink:href="#aeF8W1UFg" opacity="1" fill-opacity="0" stroke="#000000" stroke-width="1" stroke-opacity="0"></use></g></g><g><use xlink:href="#b4JjMW81Hj" opacity="1" fill="#5c85cc" fill-opacity="1"></use><g><use xlink:href="#b4JjMW81Hj" opacity="1" fill-opacity="0" stroke="#000000" stroke-width="1" stroke-opacity="0"></use></g></g><g><use xlink:href="#b74UaFOO7" opacity="1" fill="#5a84cc" fill-opacity="1"></use><g><use xlink:href="#b74UaFOO7" opacity="1" fill-opacity="0" stroke="#000000" stroke-width="1" stroke-opacity="0"></use></g></g><g><use xlink:href="#a6qgEZxAc8" opacity="1" fill="#406fbf" fill-opacity="1"></use><g><use xlink:href="#a6qgEZxAc8" opacity="1" fill-opacity="0" stroke="#000000" stroke-width="1" stroke-opacity="0"></use></g></g><g><use xlink:href="#acwuqDzFd" opacity="1" fill="#4a77c4" fill-opacity="1"></use><g><use xlink:href="#acwuqDzFd" opacity="1" fill-opacity="0" stroke="#000000" stroke-width="1" stroke-opacity="0"></use></g></g><g><use xlink:href="#bkifN2vC5" opacity="1" fill="#5d87cd" fill-opacity="1"></use><g><use xlink:href="#bkifN2vC5" opacity="1" fill-opacity="0" stroke="#000000" stroke-width="1" stroke-opacity="0"></use></g></g><g><use xlink:href="#dyhQtdKul" opacity="1" fill="#17282f" fill-opacity="1"></use><g><use xlink:href="#dyhQtdKul" opacity="1" fill-opacity="0" stroke="#000000" stroke-width="1" stroke-opacity="0"></use></g></g><g><use xlink:href="#aMVSqdFT2" opacity="1" fill="#8eb4e3" fill-opacity="1"></use><g><use xlink:href="#aMVSqdFT2" opacity="1" fill-opacity="0" stroke="#000000" stroke-width="1" stroke-opacity="0"></use></g></g><g><use xlink:href="#bBHhh5D" opacity="1" fill="#8ab1e2" fill-opacity="1"></use><g><use xlink:href="#bBHhh5D" opacity="1" fill-opacity="0" stroke="#000000" stroke-width="1" stroke-opacity="0"></use></g></g><g><use xlink:href="#a1l1P2jDof" opacity="1" fill="#85aadf" fill-opacity="1"></use><g><use xlink:href="#a1l1P2jDof" opacity="1" fill-opacity="0" stroke="#000000" stroke-width="1" stroke-opacity="0"></use></g></g><g><use xlink:href="#h1t5vgHNkZ" opacity="1" fill="#4b70c0" fill-opacity="1"></use><g><use xlink:href="#h1t5vgHNkZ" opacity="1" fill-opacity="0" stroke="#000000" stroke-width="1" stroke-opacity="0"></use></g></g><g><use xlink:href="#ci1uby6iz" opacity="1" fill="#406fbf" fill-opacity="1"></use><g><use xlink:href="#ci1uby6iz" opacity="1" fill-opacity="0" stroke="#000000" stroke-width="1" stroke-opacity="0"></use></g></g><g><use xlink:href="#c5xCXsPPty" opacity="1" fill="#d1e1f5" fill-opacity="1"></use><g><use xlink:href="#c5xCXsPPty" opacity="1" fill-opacity="0" stroke="#000000" stroke-width="1" stroke-opacity="0"></use></g></g><g><use xlink:href="#aaLtDyjim" opacity="1" fill="#b8d2ef" fill-opacity="1"></use><g><use xlink:href="#aaLtDyjim" opacity="1" fill-opacity="0" stroke="#000000" stroke-width="1" stroke-opacity="0"></use></g></g><g><use xlink:href="#j5cGTHx52a" opacity="1" fill="#c2d8f2" fill-opacity="1"></use><g><use xlink:href="#j5cGTHx52a" opacity="1" fill-opacity="0" stroke="#000000" stroke-width="1" stroke-opacity="0"></use></g></g><g><use xlink:href="#b1KINXbNj" opacity="1" fill="#d3e4f6" fill-opacity="1"></use><g><use xlink:href="#b1KINXbNj" opacity="1" fill-opacity="0" stroke="#000000" stroke-width="1" stroke-opacity="0"></use></g></g><g><use xlink:href="#k1xgnCRlb" opacity="1" fill="#ffffff" fill-opacity="1"></use><g><use xlink:href="#k1xgnCRlb" opacity="1" fill-opacity="0" stroke="#000000" stroke-width="1" stroke-opacity="0"></use></g></g><g><use xlink:href="#e1KAMxiB89" opacity="1" fill="#fdfdfd" fill-opacity="1"></use><g><use xlink:href="#e1KAMxiB89" opacity="1" fill-opacity="0" stroke="#000000" stroke-width="1" stroke-opacity="0"></use></g></g><g><use xlink:href="#a11EKQ6zM1" opacity="1" fill="#f9f9f8" fill-opacity="1"></use><g><use xlink:href="#a11EKQ6zM1" opacity="1" fill-opacity="0" stroke="#000000" stroke-width="1" stroke-opacity="0"></use></g></g><g><use xlink:href="#cwtqNLZu" opacity="1" fill="#f7f7f5" fill-opacity="1"></use><g><use xlink:href="#cwtqNLZu" opacity="1" fill-opacity="0" stroke="#000000" stroke-width="1" stroke-opacity="0"></use></g></g><g><use xlink:href="#aQmJTh8X9" opacity="1" fill="#f4f3f1" fill-opacity="1"></use><g><use xlink:href="#aQmJTh8X9" opacity="1" fill-opacity="0" stroke="#000000" stroke-width="1" stroke-opacity="0"></use></g></g><g><use xlink:href="#d6wheVg7Gg" opacity="1" fill="#c2d9f2" fill-opacity="1"></use><g><use xlink:href="#d6wheVg7Gg" opacity="1" fill-opacity="0" stroke="#000000" stroke-width="1" stroke-opacity="0"></use></g></g><g><use xlink:href="#e2Y1eNRvRC" opacity="1" fill="#c2d8f2" fill-opacity="1"></use><g><use xlink:href="#e2Y1eNRvRC" opacity="1" fill-opacity="0" stroke="#000000" stroke-width="1" stroke-opacity="0"></use></g></g><g><use xlink:href="#a2ttMIVOx9" opacity="1" fill="#c1d7f1" fill-opacity="1"></use><g><use xlink:href="#a2ttMIVOx9" opacity="1" fill-opacity="0" stroke="#000000" stroke-width="1" stroke-opacity="0"></use></g></g><g><use xlink:href="#a2aweNqPiP" opacity="1" fill="#b1cbed" fill-opacity="1"></use><g><use xlink:href="#a2aweNqPiP" opacity="1" fill-opacity="0" stroke="#000000" stroke-width="1" stroke-opacity="0"></use></g></g><g><use xlink:href="#aej5B5tXL" opacity="1" fill="#17282f" fill-opacity="1"></use><g><use xlink:href="#aej5B5tXL" opacity="1" fill-opacity="0" stroke="#000000" stroke-width="1" stroke-opacity="0"></use></g></g><g><use xlink:href="#a20g2g8Aq9" opacity="1" fill="#8eb5e4" fill-opacity="1"></use><g><use xlink:href="#a20g2g8Aq9" opacity="1" fill-opacity="0" stroke="#000000" stroke-width="1" stroke-opacity="0"></use></g></g><g><use xlink:href="#f4DA2k4qB" opacity="1" fill="#4e73c2" fill-opacity="1"></use><g><use xlink:href="#f4DA2k4qB" opacity="1" fill-opacity="0" stroke="#000000" stroke-width="1" stroke-opacity="0"></use></g></g><g><use xlink:href="#dHbV0TfjQ" opacity="1" fill="#d3e4f6" fill-opacity="1"></use><g><use xlink:href="#dHbV0TfjQ" opacity="1" fill-opacity="0" stroke="#000000" stroke-width="1" stroke-opacity="0"></use></g></g><g><use xlink:href="#b6qfJJ9STS" opacity="1" fill="#406fbf" fill-opacity="1"></use><g><use xlink:href="#b6qfJJ9STS" opacity="1" fill-opacity="0" stroke="#000000" stroke-width="1" stroke-opacity="0"></use></g></g><g><use xlink:href="#h4wDknA5o" opacity="1" fill="#ffffff" fill-opacity="1"></use><g><use xlink:href="#h4wDknA5o" opacity="1" fill-opacity="0" stroke="#000000" stroke-width="1" stroke-opacity="0"></use></g></g><g><use xlink:href="#cPRYRKRE" opacity="1" fill="#c6daf2" fill-opacity="1"></use><g><use xlink:href="#cPRYRKRE" opacity="1" fill-opacity="0" stroke="#000000" stroke-width="1" stroke-opacity="0"></use></g></g><g><use xlink:href="#c8lRYGdkp" opacity="1" fill="#ffffff" fill-opacity="1"></use><g><use xlink:href="#c8lRYGdkp" opacity="1" fill-opacity="0" stroke="#000000" stroke-width="1" stroke-opacity="0"></use></g></g><g><use xlink:href="#g79zs5A5Im" opacity="1" fill="#ffffff" fill-opacity="1"></use><g><use xlink:href="#g79zs5A5Im" opacity="1" fill-opacity="0" stroke="#000000" stroke-width="1" stroke-opacity="0"></use></g></g><g><use xlink:href="#foCvkwohD" opacity="1" fill="#7da6dd" fill-opacity="1"></use><g><use xlink:href="#foCvkwohD" opacity="1" fill-opacity="0" stroke="#000000" stroke-width="1" stroke-opacity="0"></use></g></g><g><use xlink:href="#bgDbEeaxb" opacity="1" fill="#759ad7" fill-opacity="1"></use><g><use xlink:href="#bgDbEeaxb" opacity="1" fill-opacity="0" stroke="#000000" stroke-width="1" stroke-opacity="0"></use></g></g><g><use xlink:href="#c2qgh5dIJ4" opacity="1" fill="#7da6dd" fill-opacity="1"></use><g><use xlink:href="#c2qgh5dIJ4" opacity="1" fill-opacity="0" stroke="#000000" stroke-width="1" stroke-opacity="0"></use></g></g><g><use xlink:href="#b145XSfiow" opacity="1" fill="#a3c3ea" fill-opacity="1"></use><g><use xlink:href="#b145XSfiow" opacity="1" fill-opacity="0" stroke="#000000" stroke-width="1" stroke-opacity="0"></use></g></g><g><use xlink:href="#b1FDL3hFT" opacity="1" fill="#96b8e5" fill-opacity="1"></use><g><use xlink:href="#b1FDL3hFT" opacity="1" fill-opacity="0" stroke="#000000" stroke-width="1" stroke-opacity="0"></use></g></g><g><use xlink:href="#dLfpxDNVk" opacity="1" fill="#99bae6" fill-opacity="1"></use><g><use xlink:href="#dLfpxDNVk" opacity="1" fill-opacity="0" stroke="#000000" stroke-width="1" stroke-opacity="0"></use></g></g><g><use xlink:href="#dD444fD8e" opacity="1" fill="#406fbf" fill-opacity="1"></use><g><use xlink:href="#dD444fD8e" opacity="1" fill-opacity="0" stroke="#000000" stroke-width="1" stroke-opacity="0"></use></g></g><g><use xlink:href="#e1jHc3xqOg" opacity="1" fill="#628dd1" fill-opacity="1"></use><g><use xlink:href="#e1jHc3xqOg" opacity="1" fill-opacity="0" stroke="#000000" stroke-width="1" stroke-opacity="0"></use></g></g><g><use xlink:href="#b3CaECm7uf" opacity="1" fill="#a4c3e9" fill-opacity="1"></use><g><use xlink:href="#b3CaECm7uf" opacity="1" fill-opacity="0" stroke="#000000" stroke-width="1" stroke-opacity="0"></use></g></g><g><use xlink:href="#av9G2lKO1" opacity="1" fill="#96b8e5" fill-opacity="1"></use><g><use xlink:href="#av9G2lKO1" opacity="1" fill-opacity="0" stroke="#000000" stroke-width="1" stroke-opacity="0"></use></g></g><g><use xlink:href="#a7SejUBb4M" opacity="1" fill="#99bae6" fill-opacity="1"></use><g><use xlink:href="#a7SejUBb4M" opacity="1" fill-opacity="0" stroke="#000000" stroke-width="1" stroke-opacity="0"></use></g></g><g><use xlink:href="#a4yxKei46p" opacity="1" fill="#aac5ea" fill-opacity="1"></use><g><use xlink:href="#a4yxKei46p" opacity="1" fill-opacity="0" stroke="#000000" stroke-width="1" stroke-opacity="0"></use></g></g><g><use xlink:href="#a22Z12mNdE" opacity="1" fill="#78a0da" fill-opacity="1"></use><g><use xlink:href="#a22Z12mNdE" opacity="1" fill-opacity="0" stroke="#000000" stroke-width="1" stroke-opacity="0"></use></g></g><g><use xlink:href="#c1G02ChQAU" opacity="1" fill="#79a2db" fill-opacity="1"></use><g><use xlink:href="#c1G02ChQAU" opacity="1" fill-opacity="0" stroke="#000000" stroke-width="1" stroke-opacity="0"></use></g></g><g><use xlink:href="#f2dzWcW8C6" opacity="1" fill="#406fbf" fill-opacity="1"></use><g><use xlink:href="#f2dzWcW8C6" opacity="1" fill-opacity="0" stroke="#000000" stroke-width="1" stroke-opacity="0"></use></g></g><g><use xlink:href="#a461iU3wIz" opacity="1" fill="#5682cb" fill-opacity="1"></use><g><use xlink:href="#a461iU3wIz" opacity="1" fill-opacity="0" stroke="#000000" stroke-width="1" stroke-opacity="0"></use></g></g><g><use xlink:href="#a1PmM8jPlw" opacity="1" fill="#80a8de" fill-opacity="1"></use><g><use xlink:href="#a1PmM8jPlw" opacity="1" fill-opacity="0" stroke="#000000" stroke-width="1" stroke-opacity="0"></use></g></g><g><use xlink:href="#bj0x9WMLr" opacity="1" fill="#b8d2ef" fill-opacity="1"></use><g><use xlink:href="#bj0x9WMLr" opacity="1" fill-opacity="0" stroke="#000000" stroke-width="1" stroke-opacity="0"></use></g></g><g><use xlink:href="#bLXMJUTT" opacity="1" fill="#81a9de" fill-opacity="1"></use><g><use xlink:href="#bLXMJUTT" opacity="1" fill-opacity="0" stroke="#000000" stroke-width="1" stroke-opacity="0"></use></g></g><g><use xlink:href="#a1onNWBWl" opacity="1" fill="#406fbf" fill-opacity="1"></use><g><use xlink:href="#a1onNWBWl" opacity="1" fill-opacity="0" stroke="#000000" stroke-width="1" stroke-opacity="0"></use></g></g><g><use xlink:href="#i5nIrqhfIe" opacity="1" fill="#5682cb" fill-opacity="1"></use><g><use xlink:href="#i5nIrqhfIe" opacity="1" fill-opacity="0" stroke="#000000" stroke-width="1" stroke-opacity="0"></use></g></g><g><use xlink:href="#a2jz2ZelF8" opacity="1" fill="#80a8de" fill-opacity="1"></use><g><use xlink:href="#a2jz2ZelF8" opacity="1" fill-opacity="0" stroke="#000000" stroke-width="1" stroke-opacity="0"></use></g></g><g><use xlink:href="#fsOlxRWrT" opacity="1" fill="#406fbf" fill-opacity="1"></use><g><use xlink:href="#fsOlxRWrT" opacity="1" fill-opacity="0" stroke="#000000" stroke-width="1" stroke-opacity="0"></use></g></g><g><use xlink:href="#b5e4r6K2H6" opacity="1" fill="#f7f6f5" fill-opacity="1"></use><g><use xlink:href="#b5e4r6K2H6" opacity="1" fill-opacity="0" stroke="#000000" stroke-width="1" stroke-opacity="0"></use></g></g><g><use xlink:href="#f54AHWWfy6" opacity="1" fill="#d2e2f5" fill-opacity="1"></use><g><use xlink:href="#f54AHWWfy6" opacity="1" fill-opacity="0" stroke="#000000" stroke-width="1" stroke-opacity="0"></use></g></g><g><use xlink:href="#aoR0Qa7Np" opacity="1" fill="#d4e4f6" fill-opacity="1"></use><g><use xlink:href="#aoR0Qa7Np" opacity="1" fill-opacity="0" stroke="#000000" stroke-width="1" stroke-opacity="0"></use></g></g><g><use xlink:href="#jdJr3uGIu" opacity="1" fill="#406fbf" fill-opacity="1"></use><g><use xlink:href="#jdJr3uGIu" opacity="1" fill-opacity="0" stroke="#000000" stroke-width="1" stroke-opacity="0"></use></g></g><g><use xlink:href="#i2fbDOhswg" opacity="1" fill="#ffffff" fill-opacity="1"></use><g><use xlink:href="#i2fbDOhswg" opacity="1" fill-opacity="0" stroke="#000000" stroke-width="1" stroke-opacity="0"></use></g></g><g><use xlink:href="#a26oa4ypS2" opacity="1" fill="#f46b74" fill-opacity="1"></use><g><use xlink:href="#a26oa4ypS2" opacity="1" fill-opacity="0" stroke="#000000" stroke-width="1" stroke-opacity="0"></use></g></g><g><use xlink:href="#cCKChFzSx" opacity="1" fill="#f46b74" fill-opacity="1"></use><g><use xlink:href="#cCKChFzSx" opacity="1" fill-opacity="0" stroke="#000000" stroke-width="1" stroke-opacity="0"></use></g></g><g><use xlink:href="#k55lGB55fH" opacity="1" fill="#f46b74" fill-opacity="1"></use><g><use xlink:href="#k55lGB55fH" opacity="1" fill-opacity="0" stroke="#000000" stroke-width="1" stroke-opacity="0"></use></g></g><g><use xlink:href="#b2nts50002" opacity="1" fill="#f46b74" fill-opacity="1"></use><g><use xlink:href="#b2nts50002" opacity="1" fill-opacity="0" stroke="#000000" stroke-width="1" stroke-opacity="0"></use></g></g><g><use xlink:href="#c1E5ViFS2h" opacity="1" fill="#f46b74" fill-opacity="1"></use><g><use xlink:href="#c1E5ViFS2h" opacity="1" fill-opacity="0" stroke="#000000" stroke-width="1" stroke-opacity="0"></use></g></g><g><use xlink:href="#aCMmNMLEh" opacity="1" fill="#17282f" fill-opacity="1"></use><g><use xlink:href="#aCMmNMLEh" opacity="1" fill-opacity="0" stroke="#000000" stroke-width="1" stroke-opacity="0"></use></g></g><g><use xlink:href="#bgy8tu4LF" opacity="1" fill="#f14358" fill-opacity="1"></use><g><use xlink:href="#bgy8tu4LF" opacity="1" fill-opacity="0" stroke="#000000" stroke-width="1" stroke-opacity="0"></use></g></g><g><use xlink:href="#acjJYi9UZ" opacity="1" fill="#17282f" fill-opacity="1"></use><g><use xlink:href="#acjJYi9UZ" opacity="1" fill-opacity="0" stroke="#000000" stroke-width="1" stroke-opacity="0"></use></g></g><g><use xlink:href="#a3F7Nwc7Qj" opacity="1" fill="#17282f" fill-opacity="1"></use><g><use xlink:href="#a3F7Nwc7Qj" opacity="1" fill-opacity="0" stroke="#000000" stroke-width="1" stroke-opacity="0"></use></g></g><g><use xlink:href="#e3Y4ABBFh" opacity="1" fill="#f46b74" fill-opacity="1"></use><g><use xlink:href="#e3Y4ABBFh" opacity="1" fill-opacity="0" stroke="#000000" stroke-width="1" stroke-opacity="0"></use></g></g><g><use xlink:href="#e1fmAPSorD" opacity="1" fill="#17282f" fill-opacity="1"></use><g><use xlink:href="#e1fmAPSorD" opacity="1" fill-opacity="0" stroke="#000000" stroke-width="1" stroke-opacity="0"></use></g></g><g><use xlink:href="#d1j8VkUTC" opacity="1" fill="#ffffff" fill-opacity="1"></use><g><use xlink:href="#d1j8VkUTC" opacity="1" fill-opacity="0" stroke="#000000" stroke-width="1" stroke-opacity="0"></use></g></g><g><use xlink:href="#a2sJ63r6K4" opacity="1" fill="#ffffff" fill-opacity="1"></use><g><use xlink:href="#a2sJ63r6K4" opacity="1" fill-opacity="0" stroke="#000000" stroke-width="1" stroke-opacity="0"></use></g></g><g><use xlink:href="#a3Ri9oRvWV" opacity="1" fill="#ffffff" fill-opacity="1"></use><g><use xlink:href="#a3Ri9oRvWV" opacity="1" fill-opacity="0" stroke="#000000" stroke-width="1" stroke-opacity="0"></use></g></g><g><use xlink:href="#dO0E2fJnx" opacity="1" fill="#ffffff" fill-opacity="1"></use><g><use xlink:href="#dO0E2fJnx" opacity="1" fill-opacity="0" stroke="#000000" stroke-width="1" stroke-opacity="0"></use></g></g><g><use xlink:href="#c34aaYBkzJ" opacity="1" fill="#f46b74" fill-opacity="1"></use><g><use xlink:href="#c34aaYBkzJ" opacity="1" fill-opacity="0" stroke="#000000" stroke-width="1" stroke-opacity="0"></use></g></g><g><use xlink:href="#d7qQMDCNB" opacity="1" fill="#f46b74" fill-opacity="1"></use><g><use xlink:href="#d7qQMDCNB" opacity="1" fill-opacity="0" stroke="#000000" stroke-width="1" stroke-opacity="0"></use></g></g><g><use xlink:href="#bTEYimK9V" opacity="1" fill="#17282f" fill-opacity="1"></use><g><use xlink:href="#bTEYimK9V" opacity="1" fill-opacity="0" stroke="#000000" stroke-width="1" stroke-opacity="0"></use></g></g><g><use xlink:href="#bihWPEcBw" opacity="1" fill="#17282f" fill-opacity="1"></use><g><use xlink:href="#bihWPEcBw" opacity="1" fill-opacity="0" stroke="#000000" stroke-width="1" stroke-opacity="0"></use></g></g><g><use xlink:href="#cZ8i5Z2cv" opacity="1" fill="#406fbf" fill-opacity="1"></use><g><use xlink:href="#cZ8i5Z2cv" opacity="1" fill-opacity="0" stroke="#000000" stroke-width="1" stroke-opacity="0"></use></g></g><g><use xlink:href="#baLXRSj3T" opacity="1" fill="#6b95d5" fill-opacity="1"></use><g><use xlink:href="#baLXRSj3T" opacity="1" fill-opacity="0" stroke="#000000" stroke-width="1" stroke-opacity="0"></use></g></g><g><use xlink:href="#b4va5S1GvB" opacity="1" fill="#bec0be" fill-opacity="1"></use><g><use xlink:href="#b4va5S1GvB" opacity="1" fill-opacity="0" stroke="#000000" stroke-width="1" stroke-opacity="0"></use></g></g><g><use xlink:href="#d2grVwQ3WL" opacity="1" fill="#537dc8" fill-opacity="1"></use><g><use xlink:href="#d2grVwQ3WL" opacity="1" fill-opacity="0" stroke="#000000" stroke-width="1" stroke-opacity="0"></use></g></g><g><use xlink:href="#a4BBahEMW" opacity="1" fill="#406fbf" fill-opacity="1"></use><g><use xlink:href="#a4BBahEMW" opacity="1" fill-opacity="0" stroke="#000000" stroke-width="1" stroke-opacity="0"></use></g></g><g><use xlink:href="#gp71VAipO" opacity="1" fill="#6b95d5" fill-opacity="1"></use><g><use xlink:href="#gp71VAipO" opacity="1" fill-opacity="0" stroke="#000000" stroke-width="1" stroke-opacity="0"></use></g></g><g><use xlink:href="#c3St6iUpDx" opacity="1" fill="#537dc8" fill-opacity="1"></use><g><use xlink:href="#c3St6iUpDx" opacity="1" fill-opacity="0" stroke="#000000" stroke-width="1" stroke-opacity="0"></use></g></g><g><use xlink:href="#h3cwfymvF" opacity="1" fill="#406fbf" fill-opacity="1"></use><g><use xlink:href="#h3cwfymvF" opacity="1" fill-opacity="0" stroke="#000000" stroke-width="1" stroke-opacity="0"></use></g></g><g><use xlink:href="#b1GUJ25yAd" opacity="1" fill="#6b95d5" fill-opacity="1"></use><g><use xlink:href="#b1GUJ25yAd" opacity="1" fill-opacity="0" stroke="#000000" stroke-width="1" stroke-opacity="0"></use></g></g><g><use xlink:href="#hVi9BCd0V" opacity="1" fill="#c3c5c2" fill-opacity="1"></use><g><use xlink:href="#hVi9BCd0V" opacity="1" fill-opacity="0" stroke="#000000" stroke-width="1" stroke-opacity="0"></use></g></g><g><use xlink:href="#bsKIVS6Xv" opacity="1" fill="#ea5b5b" fill-opacity="1"></use><g><use xlink:href="#bsKIVS6Xv" opacity="1" fill-opacity="0" stroke="#000000" stroke-width="1" stroke-opacity="0"></use></g></g><g><use xlink:href="#b2FLog9fIo" opacity="1" fill="#c3c5c2" fill-opacity="1"></use><g><use xlink:href="#b2FLog9fIo" opacity="1" fill-opacity="0" stroke="#000000" stroke-width="1" stroke-opacity="0"></use></g></g><g><use xlink:href="#b39CCysup" opacity="1" fill="#ea5b5b" fill-opacity="1"></use><g><use xlink:href="#b39CCysup" opacity="1" fill-opacity="0" stroke="#000000" stroke-width="1" stroke-opacity="0"></use></g></g><g><use xlink:href="#by1jWBMwb" opacity="1" fill="#f46b74" fill-opacity="1"></use><g><use xlink:href="#by1jWBMwb" opacity="1" fill-opacity="0" stroke="#000000" stroke-width="1" stroke-opacity="0"></use></g></g><g><use xlink:href="#e3wudqGDy8" opacity="1" fill="#17282f" fill-opacity="1"></use><g><use xlink:href="#e3wudqGDy8" opacity="1" fill-opacity="0" stroke="#000000" stroke-width="1" stroke-opacity="0"></use></g></g><g><use xlink:href="#a8PoVvJyR" opacity="1" fill="#17282f" fill-opacity="1"></use><g><use xlink:href="#a8PoVvJyR" opacity="1" fill-opacity="0" stroke="#000000" stroke-width="1" stroke-opacity="0"></use></g></g><g><use xlink:href="#avVLbOGGk" opacity="1" fill="#f46b74" fill-opacity="1"></use><g><use xlink:href="#avVLbOGGk" opacity="1" fill-opacity="0" stroke="#000000" stroke-width="1" stroke-opacity="0"></use></g></g><g><use xlink:href="#d1jhrFVw5U" opacity="1" fill="#17282f" fill-opacity="1"></use><g><use xlink:href="#d1jhrFVw5U" opacity="1" fill-opacity="0" stroke="#000000" stroke-width="1" stroke-opacity="0"></use></g></g><g><use xlink:href="#c22hnC0Qux" opacity="1" fill="#406fbf" fill-opacity="1"></use><g><use xlink:href="#c22hnC0Qux" opacity="1" fill-opacity="0" stroke="#000000" stroke-width="1" stroke-opacity="0"></use></g></g><g><use xlink:href="#c3ZQ7L6Ga2" opacity="1" fill="#c3c5c2" fill-opacity="1"></use><g><use xlink:href="#c3ZQ7L6Ga2" opacity="1" fill-opacity="0" stroke="#000000" stroke-width="1" stroke-opacity="0"></use></g></g><g><use xlink:href="#a28aiE32IE" opacity="1" fill="#111d23" fill-opacity="1"></use><g><use xlink:href="#a28aiE32IE" opacity="1" fill-opacity="0" stroke="#000000" stroke-width="1" stroke-opacity="0"></use></g></g><g><use xlink:href="#b2HM2d7h01" opacity="1" fill="#17282f" fill-opacity="1"></use><g><use xlink:href="#b2HM2d7h01" opacity="1" fill-opacity="0" stroke="#000000" stroke-width="1" stroke-opacity="0"></use></g></g><g><use xlink:href="#a24cAcQp79" opacity="1" fill="#f46b74" fill-opacity="1"></use><g><use xlink:href="#a24cAcQp79" opacity="1" fill-opacity="0" stroke="#000000" stroke-width="1" stroke-opacity="0"></use></g></g><g><use xlink:href="#anAVVpWdD" opacity="1" fill="#3f4f56" fill-opacity="1"></use><g><use xlink:href="#anAVVpWdD" opacity="1" fill-opacity="0" stroke="#000000" stroke-width="1" stroke-opacity="0"></use></g></g><g><use xlink:href="#c1EPuxrZUx" opacity="1" fill="#406fbf" fill-opacity="1"></use><g><use xlink:href="#c1EPuxrZUx" opacity="1" fill-opacity="0" stroke="#000000" stroke-width="1" stroke-opacity="0"></use></g></g></g></svg>