<?xml version="1.0" encoding="UTF-8" standalone="no"?>
<!DOCTYPE svg PUBLIC "-//W3C//DTD SVG 1.1//EN" "http://www.w3.org/Graphics/SVG/1.1/DTD/svg11.dtd">
<svg version="1.1" xmlns="http://www.w3.org/2000/svg" xmlns:xlink="http://www.w3.org/1999/xlink" preserveAspectRatio="xMidYMid meet" viewBox="-0.7876537609740808 -0.9986597773408903 669.575267587431 499.99866976097024" width="665.58" height="496"><defs><path d="M0.21 436.21L665.79 436.21L665.79 435.88L0.21 435.88L0.21 436.21Z" id="b4J8X9Al68"></path><path d="M58.67 0.33C54.66 0.33 51.4 3.59 51.4 7.6C51.4 43.73 51.4 332.78 51.4 368.92C51.4 372.92 54.66 376.18 58.67 376.18C84.37 376.18 290.01 376.18 315.71 376.18C319.72 376.18 322.98 372.92 322.98 368.92C322.98 332.78 322.98 43.73 322.98 7.6C322.98 3.59 319.72 0.33 315.71 0.33C298.58 0.33 212.9 0.33 58.67 0.33M315.71 376.51C161.49 376.51 75.81 376.51 58.67 376.51C54.48 376.51 51.07 373.11 51.07 368.92C51.07 332.78 51.07 43.73 51.07 7.6C51.07 3.41 54.48 0 58.67 0C84.37 0 290.01 0 315.71 0C319.9 0 323.31 3.41 323.31 7.6C323.31 43.73 323.31 332.78 323.31 368.92C323.31 373.11 319.9 376.51 315.71 376.51" id="d2SETmN10T"></path><path d="M346.59 0.33C342.59 0.33 339.33 3.59 339.33 7.6C339.33 43.73 339.33 332.78 339.33 368.92C339.33 372.92 342.59 376.18 346.59 376.18C372.3 376.18 577.93 376.18 603.64 376.18C607.64 376.18 610.9 372.92 610.9 368.92C610.9 332.78 610.9 43.73 610.9 7.6C610.9 3.59 607.64 0.33 603.64 0.33C586.5 0.33 500.82 0.33 346.59 0.33M603.64 376.51C449.41 376.51 363.73 376.51 346.59 376.51C342.4 376.51 339 373.11 339 368.92C339 332.78 339 43.73 339 7.6C339 3.41 342.4 0 346.59 0C372.3 0 577.93 0 603.64 0C607.83 0 611.24 3.41 611.24 7.6C611.24 43.73 611.24 332.78 611.24 368.92C611.24 373.11 607.83 376.51 603.64 376.51" id="e34BL8GbQG"></path><path d="M232.42 448.89L267.02 448.89L267.02 448.56L232.42 448.56L232.42 448.89" id="a2QrqIPxuI"></path><path d="M70.04 445.28L142.06 445.28L142.06 444.95L70.04 444.95L70.04 445.28Z" id="fPRaEzTIL"></path><path d="M196.05 461.25L231.08 461.25L231.08 460.92L196.05 460.92L196.05 461.25Z" id="a4mfv39NXk"></path><path d="M343.95 459.02L395.64 459.02L395.64 458.68L343.95 458.68L343.95 459.02Z" id="bjGb7ZNQ"></path><path d="M407.49 459.02L421.73 459.02L421.73 458.68L407.49 458.68L407.49 459.02" id="a6NmHZuIL"></path><path d="M526.48 453.4L599.1 453.4L599.1 453.06L526.48 453.06L526.48 453.4Z" id="azaY8LJVA"></path><path d="M507.46 424.07L568.23 424.07L568.23 257.05L507.46 257.05L507.46 424.07Z" id="c2HES58yEu"></path><path d="M242.13 435.88L556.56 435.88L556.56 424.07L242.13 424.07L242.13 435.88Z" id="b64DJRe9JO"></path><path d="M230.47 424.07L507.46 424.07L507.46 257.05L230.47 257.05L230.47 424.07Z" id="d3nmk44tBo"></path><path d="M230.47 329.49L508.52 329.49L508.52 268.35L230.47 268.35L230.47 329.49Z" id="bBaiAAjr"></path><path d="M230.47 401.77L508.52 401.77L508.52 340.64L230.47 340.64L230.47 401.77Z" id="b119PTHSYn"></path><path d="M507.46 329.49L517.97 329.49L517.97 268.35L507.46 268.35L507.46 329.49" id="a1eM7ozGmw"></path><path d="M507.46 401.77L517.97 401.77L517.97 340.64L507.46 340.64L507.46 401.77" id="bkQmx7PTh"></path><path d="M222.37 257.05L507.46 257.05L507.46 246.77L222.37 246.77L222.37 257.05Z" id="a2dlD5fwXk"></path><path d="M507.46 257.05L576.72 257.05L576.72 246.77L507.46 246.77L507.46 257.05Z" id="akO55tcz1"></path><path d="M437.02 215.35L580.03 215.35L580.03 35.58L437.02 35.58L437.02 215.35Z" id="af0EtwzK"></path><path d="M405.45 215.35L574.55 215.35L574.55 35.58L405.45 35.58L405.45 215.35Z" id="cCeE71Pf"></path><path d="M419.62 201.18L560.38 201.18L560.38 49.75L419.62 49.75L419.62 201.18Z" id="e3WLPcgFt"></path><path d="M505.59 141.86L532.49 129.39L532.49 121.54L505.59 109.05L505.59 118.44L521.94 125.48L505.59 132.53L505.59 141.86" id="c22lfO0qpy"></path><path d="M488.05 105.42L483.13 105.42L491.84 145.51L496.71 145.51L488.05 105.42" id="a2Dx9e5UbO"></path><path d="M474.41 132.53L458.06 125.48L474.41 118.44L474.41 109.05L447.51 121.54L447.51 129.39L474.41 141.86L474.41 132.53" id="a2EdlWDfpr"></path><path d="M156.24 435.88L165.62 435.88L165.62 130.81L156.24 130.81L156.24 435.88Z" id="b1wkt9jM5u"></path><path d="M154.3 433.76C154.14 432.97 154.06 432.54 154.04 432.45C154.14 432.43 156.6 431.88 158.47 428.57C160.91 424.26 162.39 415.07 155.61 395.79C145.17 366.08 151.4 342.11 163.82 294.35C165.98 286.04 168.43 276.61 170.98 266.43C180.52 228.27 171.69 204.6 164.6 185.58C159.1 170.82 154.75 159.15 160.31 145.65C160.44 145.7 161.42 146.1 161.54 146.15C156.18 159.18 160.45 170.62 165.85 185.12C173.01 204.31 181.91 228.19 172.27 266.75C169.72 276.94 167.27 286.37 165.11 294.69C152.76 342.18 146.56 366.02 156.87 395.34C163.84 415.17 162.2 424.75 159.59 429.3C157.41 433.11 154.42 433.73 154.3 433.76" id="b5kWULn1j3"></path><path d="M143.97 435.88L177.89 435.88L168.46 430.32L153.4 430.32L143.97 435.88" id="d16w7pGaPG"></path><path d="M93.81 169.66L228.05 169.66L213.27 56.86L108.58 56.86L93.81 169.66" id="b27qHof49U"></path><path d="M292.9 188.26L364.57 188.26L355.14 246.77L302.34 246.77L292.9 188.26" id="cP9Y0RIyt"></path><path d="M321.7 207.3C341.24 200.22 356.21 189.6 339.46 168.12C322.71 146.63 296.76 146.72 279.28 156.23C256.99 168.35 261.46 203.42 261.46 203.42C261.46 203.42 302.16 214.37 321.7 207.3" id="a1q5U8rWUg"></path><path d="M340.7 187.72C325.75 177.54 315.15 165.75 332.49 153.32C349.84 140.89 371.23 147.26 384.09 158.81C400.47 173.53 391.02 199.37 391.02 199.37C391.02 199.37 355.65 197.89 340.7 187.72" id="d4B8LTOlX"></path><path d="M314.38 161.92C331.87 160.86 346.54 156.3 338.26 137.35C329.97 118.41 309.01 113.11 292.59 116.36C271.65 120.49 266.71 146.69 266.71 146.69C266.71 146.69 296.89 162.98 314.38 161.92" id="a4JGHlVaSl"></path><path d="M336.33 150.75C321.78 146.07 310.37 139.04 321.46 124.83C332.56 110.61 351.41 110.66 364.59 116.96C381.39 124.98 379.89 148.18 379.89 148.18C379.89 148.18 350.87 155.42 336.33 150.75" id="b57bl3NAuZ"></path><path d="M309.06 126.48C323.57 131.26 336.93 132.3 336.33 114.28C335.74 96.25 320.46 85.19 306.11 82.52C287.81 79.11 275.35 98.74 275.35 98.74C275.35 98.74 294.54 121.69 309.06 126.48" id="c6zU6MYiF"></path><path d="M345.89 118.74C335.51 119.45 326.51 117.88 329.95 106.08C333.39 94.28 345.34 89.57 355.27 90.22C367.92 91.06 372.83 106.13 372.83 106.13C372.83 106.13 356.28 118.03 345.89 118.74" id="dFY5TYZJG"></path><path d="M591.1 480.93C591.1 489.25 475.54 496 333 496C190.46 496 74.9 489.25 74.9 480.93C74.9 472.6 190.46 465.85 333 465.85C475.54 465.85 591.1 472.6 591.1 480.93" id="aQx6B1y2a"></path><path d="M106.05 277.31L558.32 277.31L558.32 261.08L106.05 261.08L106.05 277.31Z" id="cw1pGU7zK"></path><path d="M227.09 277.31L106.05 277.31L106.05 261.08L223.83 261.08L223.83 261.08L227.09 261.08L227.09 277.31" id="c3jnuBBEFZ"></path><path d="M229.03 277.31L218.49 277.31L224.01 480.68L234.04 480.68L239.56 277.31L229.03 277.31" id="aggqWsJ0h"></path><path d="M229.03 480.68L224.01 480.68L218.66 283.58L229.03 281.68L229.03 480.68" id="dpNl2OUHE"></path><path d="M129.23 277.31L118.69 277.31L124.21 480.68L134.24 480.68L139.76 277.31L129.23 277.31" id="bbIhQHK3W"></path><path d="M129.23 480.68L129.23 480.68L124.21 480.68L118.86 283.58L129.23 281.68L129.23 480.68" id="aPcbjhHR8"></path><path d="M535.14 277.31L524.61 277.31L530.12 480.68L540.16 480.68L545.68 277.31L535.14 277.31" id="a6vxe2dE5"></path><path d="M529.87 471.18L529.87 471.18L529.38 453.4L529.38 453.4L529.87 471.18M529.38 453.06L529.38 453.06L528.92 436.21L528.92 436.21L529.38 453.06" id="e447hWSaNA"></path><path d="M528.92 436.21L528.92 436.21L528.91 435.88L528.91 435.88L528.92 436.21" id="cOjoSFdzB"></path><path d="M529.38 453.4L529.38 453.4L529.38 453.06L529.38 453.06L529.38 453.4" id="iF5Um90aG"></path><path d="M528.59 424.07L528.59 424.07L524.78 283.58L528.59 424.07" id="a4UzY0CU9"></path><path d="M528.91 435.88L528.91 435.88L528.59 424.07L528.59 424.07L528.91 435.88" id="f7vi9H9GX"></path><path d="M535.14 480.68L530.12 480.68L529.87 471.18L529.87 471.18L530.12 480.68L535.14 480.68" id="d1aqoTw3w3"></path><path d="M535.14 480.68L535.14 480.68L530.12 480.68L529.87 471.18L529.38 453.4L529.38 453.06L528.92 436.21L528.91 435.88L528.59 424.07L524.78 283.58L535.14 281.68L535.14 480.68" id="g4wJX1LIw2"></path><path d="M435.34 277.31L424.81 277.31L430.32 480.68L440.36 480.68L445.87 277.31L435.34 277.31" id="dfTIy2fi0"></path><path d="M429.95 466.95L429.95 466.95L429.12 436.21L429.12 436.21L429.95 466.95" id="a521AlmuQX"></path><path d="M429.12 436.21L429.12 436.21L429.11 435.88L429.11 435.88L429.12 436.21" id="b1vBPE8nSL"></path><path d="M429.11 435.88L429.11 435.88L428.79 424.07L428.79 424.07L429.11 435.88" id="e1RJd5xOIY"></path><path d="M428.79 424.07L428.79 424.07L428.18 401.77L428.18 401.77L428.79 424.07M426.52 340.64L426.52 340.64L426.39 335.55L426.39 335.55L426.52 340.64" id="aYCPtf10X"></path><path d="M428.18 401.77L428.18 401.77L426.52 340.64L426.52 340.64L428.18 401.77" id="j86j4YQENo"></path><path d="M435.34 480.68L430.32 480.68L429.95 466.95L429.95 466.95L430.32 480.68L435.34 480.68" id="b1bFd02NL4"></path><path d="M435.34 480.68L435.34 480.68L430.32 480.68L429.95 466.95L429.12 436.21L429.11 435.88L428.79 424.07L428.18 401.77L426.52 340.64C426.44 337.58 426.39 335.89 426.39 335.55C429.56 334.9 432.57 334.08 435.34 332.98C435.34 342.83 435.34 392.06 435.34 480.68" id="ch69Cwkmf"></path><path d="M320.73 174.22C256.17 174.22 220.3 174.22 213.12 174.22C209.26 174.22 206.76 177.38 207.57 181.24C209.01 188.08 220.47 242.76 221.9 249.59C222.71 253.46 226.54 256.62 230.4 256.62C241.16 256.62 327.24 256.62 338 256.62C341.87 256.62 344.36 253.46 343.55 249.59C342.12 242.76 330.66 188.08 329.22 181.24C328.41 177.38 324.59 174.22 320.73 174.22" id="avvYTHk0w"></path><path d="M231.39 252.72C228.87 252.72 226.18 250.48 225.65 247.93C224.22 241.09 212.75 186.41 211.32 179.57C211.1 178.52 211.27 177.57 211.82 176.91C212.32 176.28 213.14 175.94 214.12 175.94C224.88 175.94 310.96 175.94 321.72 175.94C324.25 175.94 326.93 178.17 327.47 180.73C328.9 187.56 340.37 242.24 341.8 249.08C342.02 250.13 341.84 251.08 341.3 251.75C340.79 252.38 339.99 252.72 339 252.72C331.83 252.72 295.96 252.72 231.39 252.72" id="ahZ8fXxgL"></path><path d="M332.62 249.35C322.15 249.35 316.33 249.35 315.16 249.35C313.92 249.35 312.84 248.47 312.58 247.25C311.23 240.77 300.36 188.96 299.01 182.49C298.66 180.85 299.91 179.31 301.59 179.31C303.33 179.31 317.3 179.31 319.05 179.31C320.3 179.31 321.37 180.18 321.63 181.4C322.99 187.88 333.85 239.69 335.21 246.17C335.55 247.81 334.3 249.35 332.62 249.35" id="ddY98ryQJ"></path><path d="M220.28 184.93L219.69 182.12L241.26 182.12L241.85 184.93L220.28 184.93" id="e1C1fIFP4L"></path><path d="M230.24 191.89L229.65 189.08L267.44 189.08L268.03 191.89L230.24 191.89" id="c2JBYCvrpi"></path><path d="M232.23 198.86L231.64 196.05L274 196.05L274.59 198.86L232.23 198.86" id="f1fLihrh"></path><path d="M234.22 205.83L233.63 203.02L267.74 203.02L268.33 205.83L234.22 205.83" id="b4vnnnQpf"></path><path d="M226.83 217.14L226.25 214.33L239.89 214.33L240.47 217.14L226.83 217.14" id="dFKQO2T6U"></path><path d="M236.79 224.1L236.2 221.29L252.82 221.29L253.41 224.1L236.79 224.1" id="cbbL5zZd2"></path><path d="M257.39 224.1L256.8 221.29L273.42 221.29L274.01 224.1L257.39 224.1" id="aZ05egoGM"></path><path d="M238.78 231.07L238.19 228.26L294.37 228.26L294.95 231.07L238.78 231.07" id="a69hwXWVWw"></path><path d="M240.77 238.04L240.18 235.23L283.01 235.23L283.6 238.04L240.77 238.04" id="bOyM0tQ3A"></path><path d="M370.97 256.21C286.01 256.21 238.82 256.21 229.38 256.21C225.52 256.21 223.02 258.4 223.83 261.08C239.39 261.08 363.9 261.08 379.46 261.08C378.65 258.4 374.83 256.21 370.97 256.21" id="a6ey5cDk"></path><path d="M268.66 159.03L226.65 159.03L225.67 151.53L242.74 151.53L242.22 149.05L225.35 149.05L225.15 147.58L236.05 147.58L235.53 145.09L224.83 145.09L224.64 143.62L251.41 143.62L250.89 141.13L224.31 141.13L223.27 133.21L245.05 133.21L244.53 130.73L222.95 130.73L222.75 129.25L224.24 129.25L223.72 126.77L222.43 126.77L222.23 125.29L247.59 125.29L247.07 122.81L221.91 122.81L221.72 121.33L249.86 121.33L249.35 118.85L221.39 118.85L221.2 117.37L228.26 117.37L227.75 114.89L220.87 114.89L220.68 113.41L245.11 113.41L244.59 110.93L220.35 110.93L219.32 103.01L236 103.01L235.48 100.52L218.99 100.52L218.8 99.05L239.82 99.05L239.31 96.56L218.47 96.56L217.48 88.99C256.08 88.99 277.53 88.99 281.82 88.99C282.47 88.99 283.07 89.23 283.54 89.63C278.34 94.04 275.35 98.74 275.35 98.74C275.35 98.74 276.56 100.19 278.6 102.43C278.15 102.43 275.89 102.43 271.82 102.43L272.34 104.91C277.48 104.91 280.33 104.91 280.91 104.91C281.36 105.39 281.83 105.88 282.32 106.39C281.67 106.39 278.45 106.39 272.65 106.39L273.17 108.87C280.13 108.87 284 108.87 284.77 108.87C286.08 110.18 287.49 111.53 288.97 112.89C289.06 113.3 289.75 116.63 289.84 117.05C287.72 117.7 285.78 118.59 284.01 119.66C283.3 119.66 279.8 119.66 273.48 119.66L274 122.15C277.91 122.15 280.08 122.15 280.52 122.15C279.94 122.62 279.39 123.11 278.86 123.62C277.69 123.62 271.83 123.62 261.28 123.62L261.8 126.11C270.64 126.11 275.55 126.11 276.53 126.11C276.12 126.59 275.72 127.08 275.34 127.58C274.46 127.58 270.05 127.58 262.11 127.58L262.62 130.06C269.2 130.06 272.86 130.06 273.59 130.06C271.83 132.77 270.48 135.52 269.46 137.98C269.11 137.98 267.39 137.98 264.28 137.98L264.79 140.47C267.02 140.47 268.26 140.47 268.5 140.47C268.32 140.98 268.15 141.48 268 141.94C267.81 141.94 266.84 141.94 265.1 141.94L265.62 144.43C266.6 144.43 267.15 144.43 267.26 144.43C267.09 145.03 266.97 145.53 266.88 145.9C266.82 145.9 266.5 145.9 265.93 145.9L266.45 148.39C268.59 148.39 269.78 148.39 270.02 148.39C270.89 148.82 271.91 149.32 273.05 149.86C272.63 149.86 270.53 149.86 266.75 149.86L267.27 152.35C273.97 152.35 277.7 152.35 278.44 152.35C279.53 152.83 280.68 153.33 281.86 153.82C281.69 153.82 280.82 153.82 279.25 153.82C279.52 155.13 279.67 155.86 279.7 156C279.56 156.08 279.42 156.15 279.28 156.23C278.39 156.71 277.54 157.23 276.74 157.79C276.18 157.79 273.4 157.79 268.4 157.79L268.66 159.03M267.58 153.82L268.1 156.31L278.35 156.31L277.84 153.82L267.58 153.82M236.68 145.09L237.2 147.58L253.38 147.58L252.86 145.09L236.68 145.09M224.85 126.77L225.37 129.25L237.06 129.25L236.55 126.77L224.85 126.77M272.57 122.15L272.57 122.15L272.05 119.66L260.46 119.66L260.97 122.15L272.57 122.15M229 114.89L229.52 117.37L244.21 117.37L243.69 114.89L229 114.89M233.6 95.09L233.6 95.09L233.09 92.61L218.81 92.61L219.33 95.09L233.6 95.09" id="c5OrXciZdB"></path><path d="M226.65 159.03L213.33 159.03L212.88 156.9L192.62 156.9L193.07 159.03L191.63 159.03L191.19 156.9L182.85 156.9L182.54 155.42L211.14 155.42L210.62 152.94L182.02 152.94C174.37 116.48 170.13 96.22 169.28 92.17C168.94 90.53 170.19 88.99 171.86 88.99C174.9 88.99 190.11 88.99 217.48 88.99L218.47 96.56L209.23 96.56L209.75 99.05L218.8 99.05L218.99 100.52L210.06 100.52L210.57 103.01L219.32 103.01L220.35 110.93L212.23 110.93L212.74 113.41L220.68 113.41L220.87 114.89L213.05 114.89L213.57 117.37L221.2 117.37L221.39 118.85L213.88 118.85L214.39 121.33L221.72 121.33L221.91 122.81L214.7 122.81L215.22 125.29L222.23 125.29L222.43 126.77L215.53 126.77L216.05 129.25L222.75 129.25L222.95 130.73L216.35 130.73L216.87 133.21L223.27 133.21L224.31 141.13L218.52 141.13L219.04 143.62L224.64 143.62L224.83 145.09L219.35 145.09L219.87 147.58L225.15 147.58L225.35 149.05L220.17 149.05L220.69 151.53L225.67 151.53L226.65 159.03M218.19 95.09L218.19 95.09L217.67 92.61L208.41 92.61L208.92 95.09L218.19 95.09" id="d9z7tOLz3"></path><path d="M292.25 157.79C282.94 157.79 277.77 157.79 276.74 157.79C277.54 157.23 278.39 156.71 279.28 156.23C279.42 156.15 279.56 156.08 279.7 156C279.71 156.02 279.73 156.12 279.77 156.31C284.77 156.31 287.55 156.31 288.11 156.31C289.47 156.82 290.85 157.31 292.25 157.79" id="b2JPxVTMbG"></path><path d="M297.64 157.79C294.4 157.79 292.61 157.79 292.25 157.79C290.85 157.31 289.47 156.82 288.11 156.31C288.53 156.31 290.63 156.31 294.41 156.31L293.89 153.82C286.67 153.82 282.66 153.82 281.86 153.82C280.68 153.33 279.53 152.83 278.44 152.35C279.69 152.35 285.96 152.35 297.24 152.35C297.68 154.45 297.93 155.62 297.98 155.85C298.12 156.55 297.98 157.23 297.64 157.79M296.72 149.86C282.52 149.86 274.62 149.86 273.05 149.86C271.91 149.32 270.89 148.82 270.02 148.39C271.78 148.39 280.58 148.39 296.41 148.39L296.72 149.86M295.89 145.9C278.49 145.9 268.82 145.9 266.88 145.9C266.97 145.53 267.09 145.03 267.26 144.43C268.37 144.43 273.96 144.43 284.02 144.43L283.5 141.94C274.2 141.94 269.03 141.94 268 141.94C268.15 141.48 268.32 140.98 268.5 140.47C270.25 140.47 279 140.47 294.75 140.47L295.06 141.94L285.07 141.94L285.58 144.43L295.58 144.43L295.89 145.9M294.23 137.98C279.37 137.98 271.11 137.98 269.46 137.98C270.48 135.52 271.83 132.77 273.59 130.06C274.85 130.06 281.18 130.06 292.57 130.06L294.23 137.98M292.05 127.58C282.02 127.58 276.45 127.58 275.34 127.58C275.72 127.08 276.12 126.59 276.53 126.11C277.55 126.11 282.62 126.11 291.74 126.11L292.05 127.58M291.22 123.62C283.81 123.62 279.69 123.62 278.86 123.62C279.39 123.11 279.94 122.62 280.52 122.15C281.21 122.15 284.67 122.15 290.91 122.15L291.22 123.62M290.39 119.66C286.56 119.66 284.43 119.66 284.01 119.66C285.78 118.59 287.72 117.7 289.84 117.05C289.88 117.22 290.06 118.09 290.39 119.66" id="h2ms4ZZOp2"></path><path d="M288.97 112.89C287.49 111.53 286.08 110.18 284.77 108.87C284.99 108.87 286.11 108.87 288.13 108.87L288.97 112.89M287.61 106.39C284.43 106.39 282.67 106.39 282.32 106.39C281.83 105.88 281.36 105.39 280.91 104.91C281.33 104.91 283.46 104.91 287.3 104.91L287.61 106.39M286.78 102.43C281.87 102.43 279.15 102.43 278.6 102.43C276.56 100.19 275.35 98.74 275.35 98.74C275.35 98.74 278.34 94.04 283.54 89.63C283.97 90 284.28 90.5 284.4 91.09C284.56 91.85 285.35 95.63 286.78 102.43" id="b1haWYDIV2"></path><path d="M221.94 91.13L198.86 91.13L198.34 88.65L221.42 88.65L221.94 91.13" id="b22lXPiLFg"></path><path d="M218.19 95.09L208.92 95.09L208.41 92.61L217.67 92.61L218.19 95.09" id="d1cbTggGv7"></path><path d="M233.6 95.09L219.33 95.09L218.81 92.61L233.09 92.61L233.6 95.09" id="c1L4oF39rB"></path><path d="M239.82 99.05L218.8 99.05L218.47 96.56L239.31 96.56L239.82 99.05" id="d3zMzUeIOF"></path><path d="M218.8 99.05L209.75 99.05L209.23 96.56L218.47 96.56L218.8 99.05" id="f22oSCUs8m"></path><path d="M236 103.01L219.32 103.01L218.99 100.52L235.48 100.52L236 103.01" id="a1ZxeonkbZ"></path><path d="M219.32 103.01L210.57 103.01L210.06 100.52L218.99 100.52L219.32 103.01" id="a2BrBzrTQe"></path><path d="M253.38 147.58L237.2 147.58L236.68 145.09L252.86 145.09L253.38 147.58" id="f1e3NUoAhC"></path><path d="M232.68 139.66L208.98 139.66L208.46 137.17L232.16 137.17L232.68 139.66" id="gNgDQppFj"></path><path d="M242.74 151.53L225.67 151.53L225.35 149.05L242.22 149.05L242.74 151.53" id="eaEEKPVzxp"></path><path d="M225.67 151.53L220.69 151.53L220.17 149.05L225.35 149.05L225.67 151.53" id="aHpRsxSEP"></path><path d="M236.05 147.58L225.15 147.58L224.83 145.09L235.53 145.09L236.05 147.58" id="fh36sNu7"></path><path d="M225.15 147.58L219.87 147.58L219.35 145.09L224.83 145.09L225.15 147.58" id="e6sRXBcNTu"></path><path d="M251.41 143.62L224.64 143.62L224.31 141.13L250.89 141.13L251.41 143.62" id="e3IpMV6oCm"></path><path d="M224.64 143.62L219.04 143.62L218.52 141.13L224.31 141.13L224.64 143.62" id="f9jW7zntM"></path><path d="M221.13 72.66L195.01 72.66L194.49 70.17L220.61 70.17L221.13 72.66" id="a1Y4b6uJrN"></path><path d="M234.54 84.53L216.9 84.53L216.57 82.05L234.02 82.05L234.54 84.53" id="bGJ7jYfLG"></path><path d="M216.9 84.53L205.74 84.53L205.22 82.05L216.57 82.05L216.9 84.53" id="a17knkuowb"></path><path d="M228.78 80.58L216.38 80.58L216.05 78.09L228.26 78.09L228.78 80.58" id="b2FPYcbU0"></path><path d="M216.38 80.58L204.92 80.58L204.4 78.09L216.05 78.09L216.38 80.58" id="b4Sklp5kwg"></path><path d="M230.37 76.61L215.86 76.61L215.54 74.13L229.85 74.13L230.37 76.61" id="a55lLi3iQy"></path><path d="M215.86 76.61L204.09 76.61L203.57 74.13L215.54 74.13L215.86 76.61" id="b6cHyM0jVA"></path><path d="M220.83 109.45L202.68 109.45L202.16 106.97L220.31 106.97L220.83 109.45" id="b1OsdldCle"></path><path d="M249.86 121.33L221.72 121.33L221.39 118.85L249.35 118.85L249.86 121.33" id="a1yyyhw2u8"></path><path d="M221.72 121.33L214.39 121.33L213.88 118.85L221.39 118.85L221.72 121.33" id="d4m1Ee6D9"></path><path d="M228.26 117.37L221.2 117.37L220.87 114.89L227.75 114.89L228.26 117.37" id="cu5xlPG4r"></path><path d="M221.2 117.37L213.57 117.37L213.05 114.89L220.87 114.89L221.2 117.37" id="a295B0AOeb"></path><path d="M244.21 117.37L229.52 117.37L229 114.89L243.69 114.89L244.21 117.37" id="ahec1lTI5"></path><path d="M245.11 113.41L220.68 113.41L220.35 110.93L244.59 110.93L245.11 113.41" id="a9tw6ItuO"></path><path d="M220.68 113.41L212.74 113.41L212.23 110.93L220.35 110.93L220.68 113.41" id="ad7X1HGHk"></path><path d="M245.05 133.21L223.27 133.21L222.95 130.73L244.53 130.73L245.05 133.21" id="a2GunBkOs"></path><path d="M223.27 133.21L216.87 133.21L216.35 130.73L222.95 130.73L223.27 133.21" id="dNzQsA03s"></path><path d="M224.24 129.25L222.75 129.25L222.43 126.77L223.72 126.77L224.24 129.25" id="ak1auMZW"></path><path d="M222.75 129.25L216.05 129.25L215.53 126.77L222.43 126.77L222.75 129.25" id="fH0JDlFYg"></path><path d="M237.06 129.25L225.37 129.25L224.85 126.77L236.55 126.77L237.06 129.25" id="c2BWXTquHW"></path><path d="M247.59 125.29L222.23 125.29L221.91 122.81L247.07 122.81L247.59 125.29" id="c1zI6kU6Tk"></path><path d="M222.23 125.29L215.22 125.29L214.7 122.81L221.91 122.81L222.23 125.29" id="dcw5EU7kk"></path><path d="M272.57 122.15L260.97 122.15L260.46 119.66L272.05 119.66L272.57 122.15" id="ckXWERysh"></path><path d="M291.87 122.15L290.91 122.15L290.39 119.66L291.35 119.66L291.87 122.15" id="b7wmVOEFWF"></path><path d="M280.52 122.15L274 122.15L273.48 119.66C279.8 119.66 283.3 119.66 284.01 119.66C282.76 120.41 281.6 121.25 280.52 122.15" id="a3u58HyBjM"></path><path d="M290.91 122.15C284.67 122.15 281.21 122.15 280.52 122.15C281.6 121.25 282.76 120.41 284.01 119.66C284.43 119.66 286.56 119.66 290.39 119.66L290.91 122.15" id="alOEi1LXO"></path><path d="M299.45 126.11L291.74 126.11L291.22 123.62L298.94 123.62L299.45 126.11" id="bvkrWkaa6"></path><path d="M276.53 126.11L261.8 126.11L261.28 123.62C271.83 123.62 277.69 123.62 278.86 123.62C278.04 124.42 277.26 125.25 276.53 126.11" id="hmFIqwY5B"></path><path d="M291.74 126.11C282.62 126.11 277.55 126.11 276.53 126.11C277.26 125.25 278.04 124.42 278.86 123.62C279.69 123.62 283.81 123.62 291.22 123.62L291.74 126.11" id="a4TONc3JIB"></path><path d="M294.45 130.06L292.57 130.06L292.05 127.58L293.94 127.58L294.45 130.06" id="e1t7izCTe"></path><path d="M273.59 130.06L262.62 130.06L262.11 127.58C270.05 127.58 274.46 127.58 275.34 127.58C274.72 128.4 274.13 129.23 273.59 130.06" id="bPQZ7vJtr"></path><path d="M292.57 130.06C281.18 130.06 274.85 130.06 273.59 130.06C274.13 129.23 274.72 128.4 275.34 127.58C276.45 127.58 282.02 127.58 292.05 127.58L292.57 130.06" id="a34FCmFndC"></path><path d="M309.22 108.87L288.13 108.87L287.61 106.39L308.71 106.39L309.22 108.87" id="aIi9kxELr"></path><path d="M284.77 108.87L273.17 108.87L272.65 106.39C278.45 106.39 281.67 106.39 282.32 106.39C283.09 107.19 283.91 108.02 284.77 108.87" id="a5aNJXIReQ"></path><path d="M288.13 108.87C286.11 108.87 284.99 108.87 284.77 108.87C283.91 108.02 283.09 107.19 282.32 106.39C282.67 106.39 284.43 106.39 287.61 106.39L288.13 108.87" id="g8UME6ZPq"></path><path d="M302.22 104.91L287.3 104.91L286.78 102.43L301.7 102.43L302.22 104.91" id="eBBERUAH5"></path><path d="M280.91 104.91L272.34 104.91L271.82 102.43C275.89 102.43 278.15 102.43 278.6 102.43C279.28 103.18 280.05 104.01 280.91 104.91" id="e3ohYnA1pl"></path><path d="M287.3 104.91C283.46 104.91 281.33 104.91 280.91 104.91C280.05 104.01 279.28 103.18 278.6 102.43C279.15 102.43 281.87 102.43 286.78 102.43L287.3 104.91" id="jo17dQsxQ"></path><path d="M296.3 98.47L263.39 98.47L263.91 100.95L296.81 100.95L296.3 98.47" id="i2UgtAaTwa"></path><path d="M310.85 148.39L296.41 148.39L295.89 145.9L310.33 145.9L310.85 148.39" id="a1pE7wHWkr"></path><path d="M270.02 148.39L266.45 148.39L265.93 145.9C266.5 145.9 266.82 145.9 266.88 145.9C266.77 146.41 266.71 146.69 266.71 146.69C266.71 146.69 267.93 147.34 270.02 148.39" id="gvripP9dC"></path><path d="M296.41 148.39C280.58 148.39 271.78 148.39 270.02 148.39C267.93 147.34 266.71 146.69 266.71 146.69C266.71 146.69 266.77 146.41 266.88 145.9C268.82 145.9 278.49 145.9 295.89 145.9L296.41 148.39" id="e3eUWQQ6xQ"></path><path d="M267.26 144.43L265.62 144.43L265.1 141.94C266.84 141.94 267.81 141.94 268 141.94C267.69 142.89 267.45 143.73 267.26 144.43" id="c14FyZr0c"></path><path d="M284.02 144.43C273.96 144.43 268.37 144.43 267.26 144.43C267.45 143.73 267.69 142.89 268 141.94C269.03 141.94 274.2 141.94 283.5 141.94L284.02 144.43" id="bjKYSUR1"></path><path d="M303.98 144.43L295.58 144.43L295.06 141.94L303.46 141.94L303.98 144.43" id="g5AvbNoNX"></path><path d="M295.58 144.43L285.58 144.43L285.07 141.94L295.06 141.94L295.58 144.43" id="d2EB2YvP05"></path><path d="M305.32 140.47L294.75 140.47L294.23 137.98L304.8 137.98L305.32 140.47" id="b18WT7epap"></path><path d="M268.5 140.47L264.79 140.47L264.28 137.98C267.39 137.98 269.11 137.98 269.46 137.98C269.1 138.85 268.78 139.68 268.5 140.47" id="a2ME0ysFNq"></path><path d="M294.75 140.47C279 140.47 270.25 140.47 268.5 140.47C268.78 139.68 269.1 138.85 269.46 137.98C271.11 137.98 279.37 137.98 294.23 137.98L294.75 140.47" id="a1d5YsDdrv"></path><path d="M273.61 160.27L268.92 160.27L268.66 159.03C272.5 159.03 274.63 159.03 275.06 159.03C274.56 159.43 274.08 159.84 273.61 160.27" id="fDh2Lx49p"></path><path d="M300.65 160.27C284.43 160.27 275.41 160.27 273.61 160.27C274.08 159.84 274.56 159.43 275.06 159.03C277.09 159.03 293.36 159.03 295.4 159.03C295.59 159.03 295.77 159.01 295.95 158.97C297.52 159.45 299.09 159.88 300.65 160.27" id="i8si032L4"></path><path d="M304.2 160.27C302.07 160.27 300.89 160.27 300.65 160.27C299.09 159.88 297.52 159.45 295.95 158.97C296.67 158.82 297.27 158.38 297.64 157.79C298.04 157.79 300.05 157.79 303.68 157.79L304.2 160.27" id="a4pEfs4oxy"></path><path d="M275.06 159.03L268.66 159.03L268.4 157.79C273.4 157.79 276.18 157.79 276.74 157.79C276.16 158.18 275.6 158.6 275.06 159.03" id="eWDQuto5x"></path><path d="M295.4 159.03C283.19 159.03 276.41 159.03 275.06 159.03C275.6 158.6 276.16 158.18 276.74 157.79C278.29 157.79 290.7 157.79 292.25 157.79C293.47 158.2 294.71 158.6 295.95 158.97C295.77 159.01 295.59 159.03 295.4 159.03" id="aVC8V8vEw"></path><path d="M295.95 158.97C294.71 158.6 293.47 158.2 292.25 157.79C292.79 157.79 297.1 157.79 297.64 157.79C297.27 158.38 296.67 158.82 295.95 158.97" id="a7fpy9fd5"></path><path d="M278.35 156.31L268.1 156.31L267.58 153.82L277.84 153.82L278.35 156.31" id="aMB4m7LXQ"></path><path d="M279.7 156L279.25 153.82C280.82 153.82 281.69 153.82 281.86 153.82C282.28 154 282.7 154.18 283.12 154.35C281.95 154.86 280.81 155.41 279.7 156" id="b9PyFQtC3"></path><path d="M288.11 156.31L279.77 156.31C279.73 156.12 279.71 156.02 279.7 156C280.81 155.41 281.95 154.86 283.12 154.35C284.73 155.01 286.4 155.67 288.11 156.31" id="b1CRq4P3sO"></path><path d="M294.41 156.31C290.63 156.31 288.53 156.31 288.11 156.31C286.4 155.67 284.73 155.01 283.12 154.35C282.7 154.18 282.28 154 281.86 153.82C282.66 153.82 286.67 153.82 293.89 153.82L294.41 156.31" id="m2pIOuVVyp"></path><path d="M307.79 152.35L297.24 152.35L296.72 149.86L307.28 149.86L307.79 152.35" id="a64PIFDlAE"></path><path d="M278.44 152.35L267.27 152.35L266.75 149.86C270.53 149.86 272.63 149.86 273.05 149.86C274.63 150.62 276.45 151.46 278.44 152.35" id="b9FNmukz3n"></path><path d="M297.24 152.35C285.96 152.35 279.69 152.35 278.44 152.35C276.45 151.46 274.63 150.62 273.05 149.86C274.62 149.86 282.52 149.86 296.72 149.86L297.24 152.35" id="d8a6UlJkpk"></path><path d="M199.87 163.34L172.27 163.34L171.75 160.85L199.35 160.85L199.87 163.34" id="a4IM1GCWCU"></path><path d="M191.7 159.38L171.44 159.38L170.92 156.9L182.85 156.9C182.85 156.92 182.85 156.93 182.86 156.93C183.11 158.16 184.19 159.03 185.44 159.03C185.85 159.03 187.91 159.03 191.63 159.03L191.7 159.38" id="a4WajOpxLX"></path><path d="M191.63 159.03C187.91 159.03 185.85 159.03 185.44 159.03C184.19 159.03 183.11 158.16 182.86 156.93C182.85 156.93 182.85 156.92 182.85 156.9L191.19 156.9L191.63 159.03" id="d1v4LdHQL6"></path><path d="M213.4 159.38L193.14 159.38L193.07 159.03L213.33 159.03L213.4 159.38" id="b99FKOEB8"></path><path d="M213.33 159.03L193.07 159.03L192.62 156.9L212.88 156.9L213.33 159.03" id="bvuwt0hMQ"></path><path d="M182.54 155.42L170.62 155.42L170.1 152.94L182.02 152.94L182.54 155.42" id="baALeGGse"></path><path d="M211.14 155.42L182.54 155.42L182.02 152.94L210.62 152.94L211.14 155.42" id="a1WxjOMJSD"></path><path d="M520.63 235.23L503.54 235.23L505.53 261.08L518.64 261.08L520.63 235.23" id="b1iuq6hbbZ"></path><path d="M518.64 261.08L505.53 261.08L503.54 235.23L520.63 235.23L519.74 246.77L518.95 257.05L518.64 261.08" id="d96I8czC0x"></path><path d="M148.15 217.27L172.72 217.27L164.33 261.08L139.76 261.08L148.15 217.27" id="dvpzZZdHO"></path><path d="M179.44 205.53L144.74 205.53L154.45 261.08L189.16 261.08L179.44 205.53" id="a20NYbYqSu"></path><path d="M142.68 205.53L144.74 205.53L154.45 261.08L152.4 261.08L142.68 205.53" id="c5RaEYcgKx"></path><path d="M154.45 261.08L152.4 261.08L142.68 205.53L144.74 205.53L154.45 261.08" id="cpX180Yw"></path><path d="M159.44 255.14L151.8 211.47L174.45 211.47L182.09 255.14L159.44 255.14" id="eEKc3kZ9V"></path><path d="M182.09 255.14L181.01 255.14L173.38 211.47L174.45 211.47L182.09 255.14" id="igo8J4Qo2"></path><path d="M351.33 134.46C351.82 135.53 351.66 136.66 350.96 136.98C350.26 137.3 349.3 136.7 348.8 135.63C348.31 134.56 348.48 133.44 349.17 133.11C349.87 132.79 350.84 133.4 351.33 134.46" id="bOHBTcvEg"></path><path d="M351.76 136.61C351.76 136.61 352.18 143.89 350.88 148.09C353.58 148.98 356.42 146.69 356.42 146.69C356.11 146.02 354.55 142.66 351.76 136.61" id="a1aZDy5tEX"></path><path d="M351.46 125.72C351.35 125.8 351.21 125.86 351.06 125.87C348.02 126.04 346.73 128.16 346.68 128.26C346.49 128.58 346.07 128.69 345.74 128.5C345.41 128.31 345.3 127.89 345.49 127.56C345.55 127.45 347.17 124.7 350.99 124.49C351.37 124.47 351.69 124.76 351.71 125.14C351.73 125.37 351.63 125.58 351.46 125.72" id="b7z2lW6NZ4"></path><path d="M390.53 132.85C394.65 147.1 399.23 158.17 404.85 164.46C404.85 164.46 404.95 175.66 385.87 180.98C364.89 186.84 372.93 173.37 372.93 173.37C383.62 167.44 382.57 158.49 374.56 155.09C375.62 153.6 380.95 146.19 390.53 132.85" id="b4zqcAoTN"></path><path d="M409.29 161.74C408.91 156.52 408.43 150.59 405.21 150.44C401.68 150.27 381.18 159.43 376.8 165.89C372.42 172.34 380.97 178.66 380.97 178.66C382.86 177.54 392.3 171.89 409.29 161.74" id="bn7yC9MhY"></path><path d="M367.33 242.34L349.62 241.76C349.81 250.66 349.92 255.6 349.94 256.59C349.94 256.59 365.39 255 366.07 250.94C366.15 250.36 366.57 247.5 367.33 242.34" id="g11SbJH6fW"></path><path d="M340.27 249.04L338.41 256.62L349.94 256.59L349.62 241.76L340.27 249.04" id="a1jsI5GRkq"></path><path d="M438.39 180.71C438.17 183 438.05 184.27 438.02 184.52C437.9 185.74 437.73 186.95 437.57 188.16C437.26 190.57 436.88 192.97 436.47 195.37C435.67 200.17 434.63 204.95 433.44 209.76C432.19 214.55 430.82 219.38 429.02 224.23C428.1 226.67 427.14 229.1 425.99 231.58C424.85 234.06 423.61 236.55 421.99 239.1C421.62 239.73 421.17 240.38 420.74 241.02C420.31 241.66 419.87 242.3 419.35 242.96C418.84 243.62 418.39 244.25 417.78 244.92C417.7 245.02 417 245.81 416.92 245.9C416.63 246.22 416.34 246.55 415.93 246.94C412.84 249.98 409.68 251.81 406.71 253.14C400.77 255.74 395.39 256.74 390.16 257.32C387.56 257.63 385 257.75 382.47 257.81C379.95 257.88 377.45 257.83 374.98 257.69C372.5 257.57 370.05 257.33 367.61 257.05C365.14 256.74 362.81 256.37 360.22 255.85C360.26 254.46 360.6 243.33 360.64 241.94C369.19 240.24 378.14 238.5 385.8 235.94C387.73 235.32 389.55 234.61 391.21 233.86C392.87 233.14 394.37 232.34 395.5 231.54C396.62 230.74 397.35 229.97 397.43 229.65C397.47 229.59 397.79 229.1 397.83 229.04C397.99 228.84 398.15 228.49 398.32 228.22C398.5 227.95 398.67 227.62 398.84 227.27C399.02 226.93 399.2 226.62 399.37 226.22C400.76 223.26 402.13 219.55 403.21 215.66C404.3 211.75 405.34 207.66 406.16 203.45C407.07 199.26 407.78 194.97 408.52 190.67C408.58 190.24 408.92 188.08 409.53 184.2L410.44 177.9L438.39 180.71" id="eFpBnLWaN"></path><path d="M369.18 257.22C368.66 257.17 368.13 257.11 367.61 257.05C365.14 256.74 362.81 256.37 360.22 255.85C360.26 254.46 360.6 243.33 360.64 241.94C362.87 241.5 365.13 241.05 367.38 240.59C368.05 245.84 368.66 251.38 369.18 257.22" id="cRKeCMiuM"></path><path d="M359.79 198.35C364.07 216.16 369.61 246.03 370.88 285.07C378.67 285.07 441.03 285.07 448.82 285.07C449.25 275.44 447.62 221.22 439.78 181.96C436.8 167.03 422.15 157.38 407.3 160.71C407.18 160.74 407.05 160.77 406.93 160.8C397.2 163.01 383.23 166.58 375.01 169.71C374.98 169.72 374.71 169.82 374.68 169.83C363.26 174.22 356.93 186.46 359.79 198.35" id="a6pAV88492"></path><path d="M366.66 235.16C366.09 231 365.47 227.04 364.85 223.3C365.87 221.78 374.04 209.63 375.06 208.11C375.06 208.11 373.04 228.5 366.66 235.16" id="b3u5nFmct1"></path><path d="M300.11 243.3L282.47 241.65C282.12 250.54 281.93 255.48 281.89 256.47C281.89 256.47 290.97 259.45 298.33 251.8C298.45 251.24 299.04 248.4 300.11 243.3" id="bwPVEcDf8"></path><path d="M274.01 246.02L268.33 256.21L281.89 256.47L282.47 241.65L274.01 246.02" id="f4YSoxMr4Z"></path><path d="M389.03 191.57C387.8 193.91 386.72 195.97 385.49 198.1C384.29 200.21 383.09 202.3 381.83 204.37C379.33 208.52 376.72 212.6 373.99 216.63C368.51 224.69 362.64 232.56 355.74 240.11C352.31 243.91 348.55 247.59 344.17 251.11C343.64 251.56 343.03 251.99 342.47 252.42C341.87 252.87 341.39 253.26 340.53 253.8C339.75 254.32 338.97 254.79 338.19 255.2C337.4 255.64 336.62 256.01 335.84 256.36C332.69 257.74 329.62 258.59 326.68 259.14C320.76 260.19 315.26 260.1 310.01 259.52C307.38 259.17 304.81 258.77 302.29 258.15C301.03 257.86 299.78 257.53 298.53 257.15C297.25 256.78 296.13 256.36 294.7 255.86C294.92 254.49 296.68 243.5 296.9 242.12C305.26 240.99 314.29 239.53 320.53 236.72C322.08 236.06 323.42 235.28 324.4 234.49C324.9 234.1 325.35 233.75 325.66 233.38C325.76 233.26 326.16 232.9 326.48 232.61C326.81 232.3 327.14 232.03 327.48 231.69C330.15 229.1 332.84 226 335.47 222.7C340.72 216.07 345.69 208.71 350.48 201.19C352.87 197.42 355.21 193.59 357.53 189.74C357.76 189.36 358.91 187.43 360.97 183.96L364.29 178.28L389.03 191.57" id="a6Us8Yo0tX"></path><path d="M367.64 469.43L353.07 469.43L345.74 435.69L360.32 435.69L367.64 469.43" id="j11jf4YZeA"></path><path d="M352.26 466.31C362.08 466.31 367.54 466.31 368.63 466.31C369.23 466.31 369.74 466.72 369.87 467.3C370.16 468.6 372.46 478.96 372.75 480.26C373.05 481.6 371.99 482.87 370.62 482.85C364.9 482.75 362.12 482.42 354.93 482.42C350.5 482.42 344.81 482.88 338.69 482.88C332.71 482.88 331.78 476.83 334.28 476.28C345.51 473.82 346.3 470.44 349.89 467.2C350.54 466.62 351.39 466.31 352.26 466.31" id="a2zotENb6G"></path><path d="M364.09 453.09L362.85 447.37L362.86 447.37L364.1 453.09L364.09 453.09" id="f5utwbaHJ7"></path><path d="M349.81 454.38L348.61 448.89L362.85 447.37L364.09 453.09L349.81 454.38" id="a20LIHMWcT"></path><path d="M385.87 115.74C391.12 129.22 394.88 136.83 391.38 146.62C386.1 161.34 367.15 162.82 357.98 151.19C349.72 140.72 342.51 120.44 352.92 109.3C363.18 98.32 380.61 102.27 385.87 115.74" id="b1EjlLedB8"></path><path d="M360.27 135.92C358.09 138.86 356.42 141.07 356.42 141.07C356.42 141.07 351.93 129.93 353.65 124.82C351.46 120.5 347.06 126.87 345.4 118.44C343.73 110.02 350.93 100.97 353.65 99.09C354.03 99.72 354.01 102.12 354.01 102.12C354.01 102.12 364.78 92.52 380.11 93.86C379.06 94.92 378.65 97.79 378.65 97.79C378.65 97.79 394.45 100.5 398.04 109.39C395.78 108.3 394.06 107.99 394.06 107.99C394.06 107.99 398.59 113.61 397.26 122.27C395.93 130.93 395.31 140.49 395.47 144.27C395.62 148.05 385.24 155.27 378.92 147.55C372.6 139.83 360.27 135.92 360.27 135.92" id="awrI9JbZE"></path><path d="M366.87 133.02C367.78 136.32 367.32 139.87 366.2 142.48C364.51 146.39 361.04 145.5 359.31 142.02C357.76 138.89 356.76 133.08 359.52 130.3C362.23 127.56 365.83 129.25 366.87 133.02" id="b1xdscHBgx"></path><path d="M394.24 285.07C394.24 285.07 326.56 309.61 324.57 342.08C320.89 401.89 345.36 449.24 345.36 449.24C347.6 449 365.53 447.08 367.77 446.84C367.77 446.84 363.79 427.59 360.81 373.41C357.07 305.33 472.62 375 448.82 285.07C445.18 285.07 426.99 285.07 394.24 285.07" id="cAxdGDRJ8"></path><path d="M345.36 449.24C345.36 449.24 324.19 408.27 324.19 354.41C324.19 350.45 324.31 346.42 324.55 342.33C337.36 338.64 354.18 336.77 370.8 335.79C399.92 334.07 427.19 317.47 438.5 290.58C438.65 290.21 439.43 288.37 440.82 285.07L394.24 285.07L394.24 285.07C426.99 285.07 445.18 285.07 448.82 285.07C451.05 293.48 452.05 300.49 452.05 306.35C452.05 321.6 445.24 329.05 435.34 332.98C432.57 334.08 429.56 334.9 426.39 335.55C426.39 335.55 426.39 335.55 426.39 335.55C399.37 341.02 360.71 333.31 360.72 370.27C360.72 371.28 360.75 372.33 360.81 373.41C363.79 427.59 367.77 446.84 367.77 446.84C367.45 446.88 365.81 447.05 362.85 447.37L348.61 448.89L348.61 448.89L345.36 449.24" id="a1Pdh12qIx"></path><path d="M339.15 440.99L342.71 450.93L370.7 448.2L369.3 439.14L339.15 440.99" id="d249VCH4bZ"></path><path d="M304.69 471.08L290.11 471.08L285.86 437.34L300.43 437.34L304.69 471.08" id="azAfWPEY3"></path><path d="M290 466.3C299.55 466.29 304.85 466.28 305.91 466.28C306.51 466.28 307.03 466.69 307.15 467.28C307.44 468.57 309.76 478.93 310.05 480.22C310.35 481.57 309.33 482.84 307.96 482.82C302.22 482.73 293.92 482.41 286.71 482.42C278.27 482.43 276.65 482.89 266.76 482.9C260.78 482.91 259.11 476.86 261.61 476.31C273.01 473.8 276.65 473.53 286.49 467.44C287.56 466.78 288.74 466.31 290 466.3" id="a5NRImWo9"></path><path d="M302.62 454.74L301.72 447.6L301.73 447.6L302.63 454.74L302.62 454.74" id="beJfi8Cr"></path><path d="M288.18 455.73L287.15 447.6L301.72 447.6L302.62 454.74L288.18 455.73" id="e2l7uvuIMl"></path><path d="M370.88 285.07C370.88 285.07 259.98 294.91 261.18 350.6C262.42 408.52 284.06 447.6 284.06 447.6C286.23 447.6 303.55 447.6 305.72 447.6C305.72 447.6 301.61 417.55 302.34 360.52C302.56 343.43 337.08 337.78 370.8 335.79C399.92 334.07 427.19 317.47 438.5 290.58C438.65 290.21 439.43 288.37 440.82 285.07L370.88 285.07" id="b2TWeUp8Mj"></path><path d="M305.72 447.6C292.72 447.6 285.51 447.6 284.06 447.6C284.06 447.6 262.42 408.52 261.18 350.6C261.17 350.3 261.17 350 261.17 349.7C261.17 294.8 370.88 285.07 370.88 285.07C375.54 285.07 398.85 285.07 440.82 285.07C439.43 288.37 438.65 290.21 438.5 290.58C427.19 317.47 399.92 334.07 370.8 335.79C354.18 336.77 337.36 338.64 324.55 342.33C311.38 346.13 302.45 351.85 302.34 360.52C302.28 365.17 302.25 369.64 302.25 373.93C302.25 422.25 305.72 447.6 305.72 447.6" id="c5ZDAWYEtM"></path><path d="M279 441.77L282.71 451.78L308.85 449.92L307.32 440.86L279 441.77" id="b5tKDCfR6C"></path><path d="M399.98 222.47C391.54 255.01 386.85 273.08 385.91 276.69C382.32 290.52 380.5 304.84 380.5 319.22C380.5 321.74 380.5 341.9 380.5 344.42C380.5 350.78 385.19 355.94 390.98 355.94C398.2 355.94 455.9 355.94 463.11 355.94C468.9 355.94 473.59 350.78 473.59 344.42C473.59 341.9 473.59 321.74 473.59 319.22C473.59 304.84 475.41 290.52 479 276.69C480.24 271.9 490.18 233.59 491.42 228.8C493.33 221.44 488.31 214.11 481.35 214.11C474.22 214.11 417.18 214.11 410.05 214.11C405.37 214.11 401.26 217.53 399.98 222.47" id="cyvu4tY7O"></path><path d="M310.27 329.69C311.69 337.76 312.48 342.24 312.64 343.14C313.88 350.21 320.1 355.94 326.53 355.94C334.55 355.94 398.69 355.94 406.71 355.94C413.14 355.94 417.35 350.21 416.1 343.14C415.87 341.79 413.98 331.04 413.74 329.69C412.33 321.64 405.25 315.12 397.93 315.12C390.24 315.12 328.66 315.12 320.97 315.12C313.65 315.12 308.86 321.64 310.27 329.69" id="h8B7wXw1DQ"></path><path d="M414.43 369.45L372.43 369.45L368.32 355.94L418.53 355.94L414.43 369.45" id="aVzwbJW8"></path><path d="M385.92 469.83L400.93 469.83L400.93 369.45L385.92 369.45L385.92 469.83Z" id="abxlzkZcB"></path><path d="M400.93 469.83L397.27 469.83L397.27 373.01L395.04 372.78L400.93 373.38L400.93 401.77L400.93 424.07L400.93 435.88L400.93 436.21L400.93 469.83M393.68 469.83L385.92 469.83L385.92 371.86L393.68 372.65L393.68 469.83" id="b1xWI7ym8u"></path><path d="M395.04 372.78L393.68 372.65L393.68 372.65L395.04 372.78" id="c1NJEJIhxE"></path><path d="M397.27 469.83L393.68 469.83L393.68 372.65L395.04 372.78L397.27 373.01L397.27 469.83" id="c34LUrr0Bb"></path><path d="M427.93 485.34C386.53 485.34 363.52 485.34 358.92 485.34C357.08 485.34 356.3 482.99 357.79 481.89C358.89 481.09 367.65 474.67 368.75 473.86C374 470.01 380.35 467.93 386.87 467.93C388.18 467.93 398.67 467.93 399.98 467.93C406.5 467.93 412.85 470.01 418.1 473.86C419.2 474.67 427.96 481.09 429.06 481.89C430.55 482.99 429.77 485.34 427.93 485.34" id="b1DUfOQb7d"></path></defs><g><g><use xlink:href="#b4J8X9Al68" opacity="1" fill="#e7e8e5" fill-opacity="1"></use><g><use xlink:href="#b4J8X9Al68" opacity="1" fill-opacity="0" stroke="#000000" stroke-width="1" stroke-opacity="0"></use></g></g><g><use xlink:href="#d2SETmN10T" opacity="1" fill="#e7e8e5" fill-opacity="1"></use><g><use xlink:href="#d2SETmN10T" opacity="1" fill-opacity="0" stroke="#000000" stroke-width="1" stroke-opacity="0"></use></g></g><g><use xlink:href="#e34BL8GbQG" opacity="1" fill="#e7e8e5" fill-opacity="1"></use><g><use xlink:href="#e34BL8GbQG" opacity="1" fill-opacity="0" stroke="#000000" stroke-width="1" stroke-opacity="0"></use></g></g><g><use xlink:href="#a2QrqIPxuI" opacity="1" fill="#e7e8e5" fill-opacity="1"></use><g><use xlink:href="#a2QrqIPxuI" opacity="1" fill-opacity="0" stroke="#000000" stroke-width="1" stroke-opacity="0"></use></g></g><g><use xlink:href="#fPRaEzTIL" opacity="1" fill="#e7e8e5" fill-opacity="1"></use><g><use xlink:href="#fPRaEzTIL" opacity="1" fill-opacity="0" stroke="#000000" stroke-width="1" stroke-opacity="0"></use></g></g><g><use xlink:href="#a4mfv39NXk" opacity="1" fill="#e7e8e5" fill-opacity="1"></use><g><use xlink:href="#a4mfv39NXk" opacity="1" fill-opacity="0" stroke="#000000" stroke-width="1" stroke-opacity="0"></use></g></g><g><use xlink:href="#bjGb7ZNQ" opacity="1" fill="#e7e8e5" fill-opacity="1"></use><g><use xlink:href="#bjGb7ZNQ" opacity="1" fill-opacity="0" stroke="#000000" stroke-width="1" stroke-opacity="0"></use></g></g><g><use xlink:href="#a6NmHZuIL" opacity="1" fill="#e7e8e5" fill-opacity="1"></use><g><use xlink:href="#a6NmHZuIL" opacity="1" fill-opacity="0" stroke="#000000" stroke-width="1" stroke-opacity="0"></use></g></g><g><use xlink:href="#azaY8LJVA" opacity="1" fill="#e7e8e5" fill-opacity="1"></use><g><use xlink:href="#azaY8LJVA" opacity="1" fill-opacity="0" stroke="#000000" stroke-width="1" stroke-opacity="0"></use></g></g><g><use xlink:href="#c2HES58yEu" opacity="1" fill="#ededeb" fill-opacity="1"></use><g><use xlink:href="#c2HES58yEu" opacity="1" fill-opacity="0" stroke="#000000" stroke-width="1" stroke-opacity="0"></use></g></g><g><use xlink:href="#b64DJRe9JO" opacity="1" fill="#ededeb" fill-opacity="1"></use><g><use xlink:href="#b64DJRe9JO" opacity="1" fill-opacity="0" stroke="#000000" stroke-width="1" stroke-opacity="0"></use></g></g><g><use xlink:href="#d3nmk44tBo" opacity="1" fill="#f3f2f1" fill-opacity="1"></use><g><use xlink:href="#d3nmk44tBo" opacity="1" fill-opacity="0" stroke="#000000" stroke-width="1" stroke-opacity="0"></use></g></g><g><use xlink:href="#bBaiAAjr" opacity="1" fill="#ededeb" fill-opacity="1"></use><g><use xlink:href="#bBaiAAjr" opacity="1" fill-opacity="0" stroke="#000000" stroke-width="1" stroke-opacity="0"></use></g></g><g><use xlink:href="#b119PTHSYn" opacity="1" fill="#ededeb" fill-opacity="1"></use><g><use xlink:href="#b119PTHSYn" opacity="1" fill-opacity="0" stroke="#000000" stroke-width="1" stroke-opacity="0"></use></g></g><g><use xlink:href="#a1eM7ozGmw" opacity="1" fill="#e2e2e0" fill-opacity="1"></use><g><use xlink:href="#a1eM7ozGmw" opacity="1" fill-opacity="0" stroke="#000000" stroke-width="1" stroke-opacity="0"></use></g></g><g><use xlink:href="#bkQmx7PTh" opacity="1" fill="#e2e2e0" fill-opacity="1"></use><g><use xlink:href="#bkQmx7PTh" opacity="1" fill-opacity="0" stroke="#000000" stroke-width="1" stroke-opacity="0"></use></g></g><g><use xlink:href="#a2dlD5fwXk" opacity="1" fill="#ededeb" fill-opacity="1"></use><g><use xlink:href="#a2dlD5fwXk" opacity="1" fill-opacity="0" stroke="#000000" stroke-width="1" stroke-opacity="0"></use></g></g><g><use xlink:href="#akO55tcz1" opacity="1" fill="#e2e2e0" fill-opacity="1"></use><g><use xlink:href="#akO55tcz1" opacity="1" fill-opacity="0" stroke="#000000" stroke-width="1" stroke-opacity="0"></use></g></g><g><use xlink:href="#af0EtwzK" opacity="1" fill="#ededeb" fill-opacity="1"></use><g><use xlink:href="#af0EtwzK" opacity="1" fill-opacity="0" stroke="#000000" stroke-width="1" stroke-opacity="0"></use></g></g><g><use xlink:href="#cCeE71Pf" opacity="1" fill="#f3f2f1" fill-opacity="1"></use><g><use xlink:href="#cCeE71Pf" opacity="1" fill-opacity="0" stroke="#000000" stroke-width="1" stroke-opacity="0"></use></g></g><g><use xlink:href="#e3WLPcgFt" opacity="1" fill="#ffffff" fill-opacity="1"></use><g><use xlink:href="#e3WLPcgFt" opacity="1" fill-opacity="0" stroke="#000000" stroke-width="1" stroke-opacity="0"></use></g></g><g><use xlink:href="#c22lfO0qpy" opacity="1" fill="#e2e2e0" fill-opacity="1"></use><g><use xlink:href="#c22lfO0qpy" opacity="1" fill-opacity="0" stroke="#000000" stroke-width="1" stroke-opacity="0"></use></g></g><g><use xlink:href="#a2Dx9e5UbO" opacity="1" fill="#e2e2e0" fill-opacity="1"></use><g><use xlink:href="#a2Dx9e5UbO" opacity="1" fill-opacity="0" stroke="#000000" stroke-width="1" stroke-opacity="0"></use></g></g><g><use xlink:href="#a2EdlWDfpr" opacity="1" fill="#e2e2e0" fill-opacity="1"></use><g><use xlink:href="#a2EdlWDfpr" opacity="1" fill-opacity="0" stroke="#000000" stroke-width="1" stroke-opacity="0"></use></g></g><g><use xlink:href="#b1wkt9jM5u" opacity="1" fill="#ededeb" fill-opacity="1"></use><g><use xlink:href="#b1wkt9jM5u" opacity="1" fill-opacity="0" stroke="#000000" stroke-width="1" stroke-opacity="0"></use></g></g><g><use xlink:href="#b5kWULn1j3" opacity="1" fill="#ededeb" fill-opacity="1"></use><g><use xlink:href="#b5kWULn1j3" opacity="1" fill-opacity="0" stroke="#000000" stroke-width="1" stroke-opacity="0"></use></g></g><g><use xlink:href="#d16w7pGaPG" opacity="1" fill="#ededeb" fill-opacity="1"></use><g><use xlink:href="#d16w7pGaPG" opacity="1" fill-opacity="0" stroke="#000000" stroke-width="1" stroke-opacity="0"></use></g></g><g><use xlink:href="#b27qHof49U" opacity="1" fill="#f3f2f1" fill-opacity="1"></use><g><use xlink:href="#b27qHof49U" opacity="1" fill-opacity="0" stroke="#000000" stroke-width="1" stroke-opacity="0"></use></g></g><g><use xlink:href="#cP9Y0RIyt" opacity="1" fill="#ededeb" fill-opacity="1"></use><g><use xlink:href="#cP9Y0RIyt" opacity="1" fill-opacity="0" stroke="#000000" stroke-width="1" stroke-opacity="0"></use></g></g><g><use xlink:href="#a1q5U8rWUg" opacity="1" fill="#dadbd8" fill-opacity="1"></use><g><use xlink:href="#a1q5U8rWUg" opacity="1" fill-opacity="0" stroke="#000000" stroke-width="1" stroke-opacity="0"></use></g></g><g><use xlink:href="#d4B8LTOlX" opacity="1" fill="#e2e2e0" fill-opacity="1"></use><g><use xlink:href="#d4B8LTOlX" opacity="1" fill-opacity="0" stroke="#000000" stroke-width="1" stroke-opacity="0"></use></g></g><g><use xlink:href="#a4JGHlVaSl" opacity="1" fill="#ededeb" fill-opacity="1"></use><g><use xlink:href="#a4JGHlVaSl" opacity="1" fill-opacity="0" stroke="#000000" stroke-width="1" stroke-opacity="0"></use></g></g><g><use xlink:href="#b57bl3NAuZ" opacity="1" fill="#e7e8e5" fill-opacity="1"></use><g><use xlink:href="#b57bl3NAuZ" opacity="1" fill-opacity="0" stroke="#000000" stroke-width="1" stroke-opacity="0"></use></g></g><g><use xlink:href="#c6zU6MYiF" opacity="1" fill="#f3f2f1" fill-opacity="1"></use><g><use xlink:href="#c6zU6MYiF" opacity="1" fill-opacity="0" stroke="#000000" stroke-width="1" stroke-opacity="0"></use></g></g><g><use xlink:href="#dFY5TYZJG" opacity="1" fill="#fafaf9" fill-opacity="1"></use><g><use xlink:href="#dFY5TYZJG" opacity="1" fill-opacity="0" stroke="#000000" stroke-width="1" stroke-opacity="0"></use></g></g><g><use xlink:href="#aQx6B1y2a" opacity="1" fill="#f3f2f1" fill-opacity="1"></use><g><use xlink:href="#aQx6B1y2a" opacity="1" fill-opacity="0" stroke="#000000" stroke-width="1" stroke-opacity="0"></use></g></g><g><use xlink:href="#cw1pGU7zK" opacity="1" fill="#406fbf" fill-opacity="1"></use><g><use xlink:href="#cw1pGU7zK" opacity="1" fill-opacity="0" stroke="#000000" stroke-width="1" stroke-opacity="0"></use></g></g><g><use xlink:href="#c3jnuBBEFZ" opacity="1" fill="#6d97d6" fill-opacity="1"></use><g><use xlink:href="#c3jnuBBEFZ" opacity="1" fill-opacity="0" stroke="#000000" stroke-width="1" stroke-opacity="0"></use></g></g><g><use xlink:href="#aggqWsJ0h" opacity="1" fill="#406fbf" fill-opacity="1"></use><g><use xlink:href="#aggqWsJ0h" opacity="1" fill-opacity="0" stroke="#000000" stroke-width="1" stroke-opacity="0"></use></g></g><g><use xlink:href="#dpNl2OUHE" opacity="1" fill="#6d97d6" fill-opacity="1"></use><g><use xlink:href="#dpNl2OUHE" opacity="1" fill-opacity="0" stroke="#000000" stroke-width="1" stroke-opacity="0"></use></g></g><g><use xlink:href="#bbIhQHK3W" opacity="1" fill="#406fbf" fill-opacity="1"></use><g><use xlink:href="#bbIhQHK3W" opacity="1" fill-opacity="0" stroke="#000000" stroke-width="1" stroke-opacity="0"></use></g></g><g><use xlink:href="#aPcbjhHR8" opacity="1" fill="#6d97d6" fill-opacity="1"></use><g><use xlink:href="#aPcbjhHR8" opacity="1" fill-opacity="0" stroke="#000000" stroke-width="1" stroke-opacity="0"></use></g></g><g><use xlink:href="#a6vxe2dE5" opacity="1" fill="#406fbf" fill-opacity="1"></use><g><use xlink:href="#a6vxe2dE5" opacity="1" fill-opacity="0" stroke="#000000" stroke-width="1" stroke-opacity="0"></use></g></g><g><use xlink:href="#e447hWSaNA" opacity="1" fill="#ffffff" fill-opacity="1"></use><g><use xlink:href="#e447hWSaNA" opacity="1" fill-opacity="0" stroke="#000000" stroke-width="1" stroke-opacity="0"></use></g></g><g><use xlink:href="#cOjoSFdzB" opacity="1" fill="#eeeeec" fill-opacity="1"></use><g><use xlink:href="#cOjoSFdzB" opacity="1" fill-opacity="0" stroke="#000000" stroke-width="1" stroke-opacity="0"></use></g></g><g><use xlink:href="#iF5Um90aG" opacity="1" fill="#eeeeec" fill-opacity="1"></use><g><use xlink:href="#iF5Um90aG" opacity="1" fill-opacity="0" stroke="#000000" stroke-width="1" stroke-opacity="0"></use></g></g><g><use xlink:href="#a4UzY0CU9" opacity="1" fill="#f3f2f1" fill-opacity="1"></use><g><use xlink:href="#a4UzY0CU9" opacity="1" fill-opacity="0" stroke="#000000" stroke-width="1" stroke-opacity="0"></use></g></g><g><use xlink:href="#f7vi9H9GX" opacity="1" fill="#f3f2f1" fill-opacity="1"></use><g><use xlink:href="#f7vi9H9GX" opacity="1" fill-opacity="0" stroke="#000000" stroke-width="1" stroke-opacity="0"></use></g></g><g><use xlink:href="#d1aqoTw3w3" opacity="1" fill="#f7f7f6" fill-opacity="1"></use><g><use xlink:href="#d1aqoTw3w3" opacity="1" fill-opacity="0" stroke="#000000" stroke-width="1" stroke-opacity="0"></use></g></g><g><use xlink:href="#g4wJX1LIw2" opacity="1" fill="#6d97d6" fill-opacity="1"></use><g><use xlink:href="#g4wJX1LIw2" opacity="1" fill-opacity="0" stroke="#000000" stroke-width="1" stroke-opacity="0"></use></g></g><g><use xlink:href="#dfTIy2fi0" opacity="1" fill="#406fbf" fill-opacity="1"></use><g><use xlink:href="#dfTIy2fi0" opacity="1" fill-opacity="0" stroke="#000000" stroke-width="1" stroke-opacity="0"></use></g></g><g><use xlink:href="#a521AlmuQX" opacity="1" fill="#ffffff" fill-opacity="1"></use><g><use xlink:href="#a521AlmuQX" opacity="1" fill-opacity="0" stroke="#000000" stroke-width="1" stroke-opacity="0"></use></g></g><g><use xlink:href="#b1vBPE8nSL" opacity="1" fill="#eeeeec" fill-opacity="1"></use><g><use xlink:href="#b1vBPE8nSL" opacity="1" fill-opacity="0" stroke="#000000" stroke-width="1" stroke-opacity="0"></use></g></g><g><use xlink:href="#e1RJd5xOIY" opacity="1" fill="#f3f2f1" fill-opacity="1"></use><g><use xlink:href="#e1RJd5xOIY" opacity="1" fill-opacity="0" stroke="#000000" stroke-width="1" stroke-opacity="0"></use></g></g><g><use xlink:href="#aYCPtf10X" opacity="1" fill="#f7f7f6" fill-opacity="1"></use><g><use xlink:href="#aYCPtf10X" opacity="1" fill-opacity="0" stroke="#000000" stroke-width="1" stroke-opacity="0"></use></g></g><g><use xlink:href="#j86j4YQENo" opacity="1" fill="#f3f2f1" fill-opacity="1"></use><g><use xlink:href="#j86j4YQENo" opacity="1" fill-opacity="0" stroke="#000000" stroke-width="1" stroke-opacity="0"></use></g></g><g><use xlink:href="#b1bFd02NL4" opacity="1" fill="#f7f7f6" fill-opacity="1"></use><g><use xlink:href="#b1bFd02NL4" opacity="1" fill-opacity="0" stroke="#000000" stroke-width="1" stroke-opacity="0"></use></g></g><g><use xlink:href="#ch69Cwkmf" opacity="1" fill="#6d97d6" fill-opacity="1"></use><g><use xlink:href="#ch69Cwkmf" opacity="1" fill-opacity="0" stroke="#000000" stroke-width="1" stroke-opacity="0"></use></g></g><g><use xlink:href="#avvYTHk0w" opacity="1" fill="#17282f" fill-opacity="1"></use><g><use xlink:href="#avvYTHk0w" opacity="1" fill-opacity="0" stroke="#000000" stroke-width="1" stroke-opacity="0"></use></g></g><g><use xlink:href="#ahZ8fXxgL" opacity="1" fill="#ffffff" fill-opacity="1"></use><g><use xlink:href="#ahZ8fXxgL" opacity="1" fill-opacity="0" stroke="#000000" stroke-width="1" stroke-opacity="0"></use></g></g><g><use xlink:href="#ddY98ryQJ" opacity="1" fill="#a4c3e9" fill-opacity="1"></use><g><use xlink:href="#ddY98ryQJ" opacity="1" fill-opacity="0" stroke="#000000" stroke-width="1" stroke-opacity="0"></use></g></g><g><use xlink:href="#e1C1fIFP4L" opacity="1" fill="#406fbf" fill-opacity="1"></use><g><use xlink:href="#e1C1fIFP4L" opacity="1" fill-opacity="0" stroke="#000000" stroke-width="1" stroke-opacity="0"></use></g></g><g><use xlink:href="#c2JBYCvrpi" opacity="1" fill="#e7e8e5" fill-opacity="1"></use><g><use xlink:href="#c2JBYCvrpi" opacity="1" fill-opacity="0" stroke="#000000" stroke-width="1" stroke-opacity="0"></use></g></g><g><use xlink:href="#f1fLihrh" opacity="1" fill="#e7e8e5" fill-opacity="1"></use><g><use xlink:href="#f1fLihrh" opacity="1" fill-opacity="0" stroke="#000000" stroke-width="1" stroke-opacity="0"></use></g></g><g><use xlink:href="#b4vnnnQpf" opacity="1" fill="#e7e8e5" fill-opacity="1"></use><g><use xlink:href="#b4vnnnQpf" opacity="1" fill-opacity="0" stroke="#000000" stroke-width="1" stroke-opacity="0"></use></g></g><g><use xlink:href="#dFKQO2T6U" opacity="1" fill="#406fbf" fill-opacity="1"></use><g><use xlink:href="#dFKQO2T6U" opacity="1" fill-opacity="0" stroke="#000000" stroke-width="1" stroke-opacity="0"></use></g></g><g><use xlink:href="#cbbL5zZd2" opacity="1" fill="#e7e8e5" fill-opacity="1"></use><g><use xlink:href="#cbbL5zZd2" opacity="1" fill-opacity="0" stroke="#000000" stroke-width="1" stroke-opacity="0"></use></g></g><g><use xlink:href="#aZ05egoGM" opacity="1" fill="#e7e8e5" fill-opacity="1"></use><g><use xlink:href="#aZ05egoGM" opacity="1" fill-opacity="0" stroke="#000000" stroke-width="1" stroke-opacity="0"></use></g></g><g><use xlink:href="#a69hwXWVWw" opacity="1" fill="#e7e8e5" fill-opacity="1"></use><g><use xlink:href="#a69hwXWVWw" opacity="1" fill-opacity="0" stroke="#000000" stroke-width="1" stroke-opacity="0"></use></g></g><g><use xlink:href="#bOyM0tQ3A" opacity="1" fill="#e7e8e5" fill-opacity="1"></use><g><use xlink:href="#bOyM0tQ3A" opacity="1" fill-opacity="0" stroke="#000000" stroke-width="1" stroke-opacity="0"></use></g></g><g><use xlink:href="#a6ey5cDk" opacity="1" fill="#17282f" fill-opacity="1"></use><g><use xlink:href="#a6ey5cDk" opacity="1" fill-opacity="0" stroke="#000000" stroke-width="1" stroke-opacity="0"></use></g></g><g><use xlink:href="#c5OrXciZdB" opacity="1" fill="#e5effa" fill-opacity="1"></use><g><use xlink:href="#c5OrXciZdB" opacity="1" fill-opacity="0" stroke="#000000" stroke-width="1" stroke-opacity="0"></use></g></g><g><use xlink:href="#d9z7tOLz3" opacity="1" fill="#dce6f6" fill-opacity="1"></use><g><use xlink:href="#d9z7tOLz3" opacity="1" fill-opacity="0" stroke="#000000" stroke-width="1" stroke-opacity="0"></use></g></g><g><use xlink:href="#b2JPxVTMbG" opacity="1" fill="#c6d1df" fill-opacity="1"></use><g><use xlink:href="#b2JPxVTMbG" opacity="1" fill-opacity="0" stroke="#000000" stroke-width="1" stroke-opacity="0"></use></g></g><g><use xlink:href="#h2ms4ZZOp2" opacity="1" fill="#d5e0f0" fill-opacity="1"></use><g><use xlink:href="#h2ms4ZZOp2" opacity="1" fill-opacity="0" stroke="#000000" stroke-width="1" stroke-opacity="0"></use></g></g><g><use xlink:href="#b1haWYDIV2" opacity="1" fill="#dce6f6" fill-opacity="1"></use><g><use xlink:href="#b1haWYDIV2" opacity="1" fill-opacity="0" stroke="#000000" stroke-width="1" stroke-opacity="0"></use></g></g><g><use xlink:href="#b22lXPiLFg" opacity="1" fill="#406fbf" fill-opacity="1"></use><g><use xlink:href="#b22lXPiLFg" opacity="1" fill-opacity="0" stroke="#000000" stroke-width="1" stroke-opacity="0"></use></g></g><g><use xlink:href="#d1cbTggGv7" opacity="1" fill="#91b5e4" fill-opacity="1"></use><g><use xlink:href="#d1cbTggGv7" opacity="1" fill-opacity="0" stroke="#000000" stroke-width="1" stroke-opacity="0"></use></g></g><g><use xlink:href="#c1L4oF39rB" opacity="1" fill="#96bae6" fill-opacity="1"></use><g><use xlink:href="#c1L4oF39rB" opacity="1" fill-opacity="0" stroke="#000000" stroke-width="1" stroke-opacity="0"></use></g></g><g><use xlink:href="#d3zMzUeIOF" opacity="1" fill="#96bae6" fill-opacity="1"></use><g><use xlink:href="#d3zMzUeIOF" opacity="1" fill-opacity="0" stroke="#000000" stroke-width="1" stroke-opacity="0"></use></g></g><g><use xlink:href="#f22oSCUs8m" opacity="1" fill="#91b5e4" fill-opacity="1"></use><g><use xlink:href="#f22oSCUs8m" opacity="1" fill-opacity="0" stroke="#000000" stroke-width="1" stroke-opacity="0"></use></g></g><g><use xlink:href="#a1ZxeonkbZ" opacity="1" fill="#96bae6" fill-opacity="1"></use><g><use xlink:href="#a1ZxeonkbZ" opacity="1" fill-opacity="0" stroke="#000000" stroke-width="1" stroke-opacity="0"></use></g></g><g><use xlink:href="#a2BrBzrTQe" opacity="1" fill="#91b5e4" fill-opacity="1"></use><g><use xlink:href="#a2BrBzrTQe" opacity="1" fill-opacity="0" stroke="#000000" stroke-width="1" stroke-opacity="0"></use></g></g><g><use xlink:href="#f1e3NUoAhC" opacity="1" fill="#96bae6" fill-opacity="1"></use><g><use xlink:href="#f1e3NUoAhC" opacity="1" fill-opacity="0" stroke="#000000" stroke-width="1" stroke-opacity="0"></use></g></g><g><use xlink:href="#gNgDQppFj" opacity="1" fill="#406fbf" fill-opacity="1"></use><g><use xlink:href="#gNgDQppFj" opacity="1" fill-opacity="0" stroke="#000000" stroke-width="1" stroke-opacity="0"></use></g></g><g><use xlink:href="#eaEEKPVzxp" opacity="1" fill="#96bae6" fill-opacity="1"></use><g><use xlink:href="#eaEEKPVzxp" opacity="1" fill-opacity="0" stroke="#000000" stroke-width="1" stroke-opacity="0"></use></g></g><g><use xlink:href="#aHpRsxSEP" opacity="1" fill="#91b5e4" fill-opacity="1"></use><g><use xlink:href="#aHpRsxSEP" opacity="1" fill-opacity="0" stroke="#000000" stroke-width="1" stroke-opacity="0"></use></g></g><g><use xlink:href="#fh36sNu7" opacity="1" fill="#96bae6" fill-opacity="1"></use><g><use xlink:href="#fh36sNu7" opacity="1" fill-opacity="0" stroke="#000000" stroke-width="1" stroke-opacity="0"></use></g></g><g><use xlink:href="#e6sRXBcNTu" opacity="1" fill="#91b5e4" fill-opacity="1"></use><g><use xlink:href="#e6sRXBcNTu" opacity="1" fill-opacity="0" stroke="#000000" stroke-width="1" stroke-opacity="0"></use></g></g><g><use xlink:href="#e3IpMV6oCm" opacity="1" fill="#96bae6" fill-opacity="1"></use><g><use xlink:href="#e3IpMV6oCm" opacity="1" fill-opacity="0" stroke="#000000" stroke-width="1" stroke-opacity="0"></use></g></g><g><use xlink:href="#f9jW7zntM" opacity="1" fill="#91b5e4" fill-opacity="1"></use><g><use xlink:href="#f9jW7zntM" opacity="1" fill-opacity="0" stroke="#000000" stroke-width="1" stroke-opacity="0"></use></g></g><g><use xlink:href="#a1Y4b6uJrN" opacity="1" fill="#406fbf" fill-opacity="1"></use><g><use xlink:href="#a1Y4b6uJrN" opacity="1" fill-opacity="0" stroke="#000000" stroke-width="1" stroke-opacity="0"></use></g></g><g><use xlink:href="#bGJ7jYfLG" opacity="1" fill="#a3c3ea" fill-opacity="1"></use><g><use xlink:href="#bGJ7jYfLG" opacity="1" fill-opacity="0" stroke="#000000" stroke-width="1" stroke-opacity="0"></use></g></g><g><use xlink:href="#a17knkuowb" opacity="1" fill="#9ebde7" fill-opacity="1"></use><g><use xlink:href="#a17knkuowb" opacity="1" fill-opacity="0" stroke="#000000" stroke-width="1" stroke-opacity="0"></use></g></g><g><use xlink:href="#b2FPYcbU0" opacity="1" fill="#a3c3ea" fill-opacity="1"></use><g><use xlink:href="#b2FPYcbU0" opacity="1" fill-opacity="0" stroke="#000000" stroke-width="1" stroke-opacity="0"></use></g></g><g><use xlink:href="#b4Sklp5kwg" opacity="1" fill="#9ebde7" fill-opacity="1"></use><g><use xlink:href="#b4Sklp5kwg" opacity="1" fill-opacity="0" stroke="#000000" stroke-width="1" stroke-opacity="0"></use></g></g><g><use xlink:href="#a55lLi3iQy" opacity="1" fill="#a3c3ea" fill-opacity="1"></use><g><use xlink:href="#a55lLi3iQy" opacity="1" fill-opacity="0" stroke="#000000" stroke-width="1" stroke-opacity="0"></use></g></g><g><use xlink:href="#b6cHyM0jVA" opacity="1" fill="#9ebde7" fill-opacity="1"></use><g><use xlink:href="#b6cHyM0jVA" opacity="1" fill-opacity="0" stroke="#000000" stroke-width="1" stroke-opacity="0"></use></g></g><g><use xlink:href="#b1OsdldCle" opacity="1" fill="#406fbf" fill-opacity="1"></use><g><use xlink:href="#b1OsdldCle" opacity="1" fill-opacity="0" stroke="#000000" stroke-width="1" stroke-opacity="0"></use></g></g><g><use xlink:href="#a1yyyhw2u8" opacity="1" fill="#96bae6" fill-opacity="1"></use><g><use xlink:href="#a1yyyhw2u8" opacity="1" fill-opacity="0" stroke="#000000" stroke-width="1" stroke-opacity="0"></use></g></g><g><use xlink:href="#d4m1Ee6D9" opacity="1" fill="#91b5e4" fill-opacity="1"></use><g><use xlink:href="#d4m1Ee6D9" opacity="1" fill-opacity="0" stroke="#000000" stroke-width="1" stroke-opacity="0"></use></g></g><g><use xlink:href="#cu5xlPG4r" opacity="1" fill="#96bae6" fill-opacity="1"></use><g><use xlink:href="#cu5xlPG4r" opacity="1" fill-opacity="0" stroke="#000000" stroke-width="1" stroke-opacity="0"></use></g></g><g><use xlink:href="#a295B0AOeb" opacity="1" fill="#91b5e4" fill-opacity="1"></use><g><use xlink:href="#a295B0AOeb" opacity="1" fill-opacity="0" stroke="#000000" stroke-width="1" stroke-opacity="0"></use></g></g><g><use xlink:href="#ahec1lTI5" opacity="1" fill="#96bae6" fill-opacity="1"></use><g><use xlink:href="#ahec1lTI5" opacity="1" fill-opacity="0" stroke="#000000" stroke-width="1" stroke-opacity="0"></use></g></g><g><use xlink:href="#a9tw6ItuO" opacity="1" fill="#96bae6" fill-opacity="1"></use><g><use xlink:href="#a9tw6ItuO" opacity="1" fill-opacity="0" stroke="#000000" stroke-width="1" stroke-opacity="0"></use></g></g><g><use xlink:href="#ad7X1HGHk" opacity="1" fill="#91b5e4" fill-opacity="1"></use><g><use xlink:href="#ad7X1HGHk" opacity="1" fill-opacity="0" stroke="#000000" stroke-width="1" stroke-opacity="0"></use></g></g><g><use xlink:href="#a2GunBkOs" opacity="1" fill="#96bae6" fill-opacity="1"></use><g><use xlink:href="#a2GunBkOs" opacity="1" fill-opacity="0" stroke="#000000" stroke-width="1" stroke-opacity="0"></use></g></g><g><use xlink:href="#dNzQsA03s" opacity="1" fill="#91b5e4" fill-opacity="1"></use><g><use xlink:href="#dNzQsA03s" opacity="1" fill-opacity="0" stroke="#000000" stroke-width="1" stroke-opacity="0"></use></g></g><g><use xlink:href="#ak1auMZW" opacity="1" fill="#96bae6" fill-opacity="1"></use><g><use xlink:href="#ak1auMZW" opacity="1" fill-opacity="0" stroke="#000000" stroke-width="1" stroke-opacity="0"></use></g></g><g><use xlink:href="#fH0JDlFYg" opacity="1" fill="#91b5e4" fill-opacity="1"></use><g><use xlink:href="#fH0JDlFYg" opacity="1" fill-opacity="0" stroke="#000000" stroke-width="1" stroke-opacity="0"></use></g></g><g><use xlink:href="#c2BWXTquHW" opacity="1" fill="#96bae6" fill-opacity="1"></use><g><use xlink:href="#c2BWXTquHW" opacity="1" fill-opacity="0" stroke="#000000" stroke-width="1" stroke-opacity="0"></use></g></g><g><use xlink:href="#c1zI6kU6Tk" opacity="1" fill="#96bae6" fill-opacity="1"></use><g><use xlink:href="#c1zI6kU6Tk" opacity="1" fill-opacity="0" stroke="#000000" stroke-width="1" stroke-opacity="0"></use></g></g><g><use xlink:href="#dcw5EU7kk" opacity="1" fill="#91b5e4" fill-opacity="1"></use><g><use xlink:href="#dcw5EU7kk" opacity="1" fill-opacity="0" stroke="#000000" stroke-width="1" stroke-opacity="0"></use></g></g><g><use xlink:href="#ckXWERysh" opacity="1" fill="#96bae6" fill-opacity="1"></use><g><use xlink:href="#ckXWERysh" opacity="1" fill-opacity="0" stroke="#000000" stroke-width="1" stroke-opacity="0"></use></g></g><g><use xlink:href="#b7wmVOEFWF" opacity="1" fill="#99b9e5" fill-opacity="1"></use><g><use xlink:href="#b7wmVOEFWF" opacity="1" fill-opacity="0" stroke="#000000" stroke-width="1" stroke-opacity="0"></use></g></g><g><use xlink:href="#a3u58HyBjM" opacity="1" fill="#96bae6" fill-opacity="1"></use><g><use xlink:href="#a3u58HyBjM" opacity="1" fill-opacity="0" stroke="#000000" stroke-width="1" stroke-opacity="0"></use></g></g><g><use xlink:href="#alOEi1LXO" opacity="1" fill="#8eb2e3" fill-opacity="1"></use><g><use xlink:href="#alOEi1LXO" opacity="1" fill-opacity="0" stroke="#000000" stroke-width="1" stroke-opacity="0"></use></g></g><g><use xlink:href="#bvkrWkaa6" opacity="1" fill="#99b9e5" fill-opacity="1"></use><g><use xlink:href="#bvkrWkaa6" opacity="1" fill-opacity="0" stroke="#000000" stroke-width="1" stroke-opacity="0"></use></g></g><g><use xlink:href="#hmFIqwY5B" opacity="1" fill="#96bae6" fill-opacity="1"></use><g><use xlink:href="#hmFIqwY5B" opacity="1" fill-opacity="0" stroke="#000000" stroke-width="1" stroke-opacity="0"></use></g></g><g><use xlink:href="#a4TONc3JIB" opacity="1" fill="#8eb2e3" fill-opacity="1"></use><g><use xlink:href="#a4TONc3JIB" opacity="1" fill-opacity="0" stroke="#000000" stroke-width="1" stroke-opacity="0"></use></g></g><g><use xlink:href="#e1t7izCTe" opacity="1" fill="#99b9e5" fill-opacity="1"></use><g><use xlink:href="#e1t7izCTe" opacity="1" fill-opacity="0" stroke="#000000" stroke-width="1" stroke-opacity="0"></use></g></g><g><use xlink:href="#bPQZ7vJtr" opacity="1" fill="#96bae6" fill-opacity="1"></use><g><use xlink:href="#bPQZ7vJtr" opacity="1" fill-opacity="0" stroke="#000000" stroke-width="1" stroke-opacity="0"></use></g></g><g><use xlink:href="#a34FCmFndC" opacity="1" fill="#8eb2e3" fill-opacity="1"></use><g><use xlink:href="#a34FCmFndC" opacity="1" fill-opacity="0" stroke="#000000" stroke-width="1" stroke-opacity="0"></use></g></g><g><use xlink:href="#aIi9kxELr" opacity="1" fill="#9ebde7" fill-opacity="1"></use><g><use xlink:href="#aIi9kxELr" opacity="1" fill-opacity="0" stroke="#000000" stroke-width="1" stroke-opacity="0"></use></g></g><g><use xlink:href="#a5aNJXIReQ" opacity="1" fill="#96bae6" fill-opacity="1"></use><g><use xlink:href="#a5aNJXIReQ" opacity="1" fill-opacity="0" stroke="#000000" stroke-width="1" stroke-opacity="0"></use></g></g><g><use xlink:href="#g8UME6ZPq" opacity="1" fill="#91b5e4" fill-opacity="1"></use><g><use xlink:href="#g8UME6ZPq" opacity="1" fill-opacity="0" stroke="#000000" stroke-width="1" stroke-opacity="0"></use></g></g><g><use xlink:href="#eBBERUAH5" opacity="1" fill="#9ebde7" fill-opacity="1"></use><g><use xlink:href="#eBBERUAH5" opacity="1" fill-opacity="0" stroke="#000000" stroke-width="1" stroke-opacity="0"></use></g></g><g><use xlink:href="#e3ohYnA1pl" opacity="1" fill="#96bae6" fill-opacity="1"></use><g><use xlink:href="#e3ohYnA1pl" opacity="1" fill-opacity="0" stroke="#000000" stroke-width="1" stroke-opacity="0"></use></g></g><g><use xlink:href="#jo17dQsxQ" opacity="1" fill="#91b5e4" fill-opacity="1"></use><g><use xlink:href="#jo17dQsxQ" opacity="1" fill-opacity="0" stroke="#000000" stroke-width="1" stroke-opacity="0"></use></g></g><g><use xlink:href="#i2UgtAaTwa" opacity="1" fill="#406fbf" fill-opacity="1"></use><g><use xlink:href="#i2UgtAaTwa" opacity="1" fill-opacity="0" stroke="#000000" stroke-width="1" stroke-opacity="0"></use></g></g><g><use xlink:href="#a1pE7wHWkr" opacity="1" fill="#99b9e5" fill-opacity="1"></use><g><use xlink:href="#a1pE7wHWkr" opacity="1" fill-opacity="0" stroke="#000000" stroke-width="1" stroke-opacity="0"></use></g></g><g><use xlink:href="#gvripP9dC" opacity="1" fill="#96bae6" fill-opacity="1"></use><g><use xlink:href="#gvripP9dC" opacity="1" fill-opacity="0" stroke="#000000" stroke-width="1" stroke-opacity="0"></use></g></g><g><use xlink:href="#e3eUWQQ6xQ" opacity="1" fill="#8eb2e3" fill-opacity="1"></use><g><use xlink:href="#e3eUWQQ6xQ" opacity="1" fill-opacity="0" stroke="#000000" stroke-width="1" stroke-opacity="0"></use></g></g><g><use xlink:href="#c14FyZr0c" opacity="1" fill="#96bae6" fill-opacity="1"></use><g><use xlink:href="#c14FyZr0c" opacity="1" fill-opacity="0" stroke="#000000" stroke-width="1" stroke-opacity="0"></use></g></g><g><use xlink:href="#bjKYSUR1" opacity="1" fill="#8eb2e3" fill-opacity="1"></use><g><use xlink:href="#bjKYSUR1" opacity="1" fill-opacity="0" stroke="#000000" stroke-width="1" stroke-opacity="0"></use></g></g><g><use xlink:href="#g5AvbNoNX" opacity="1" fill="#99b9e5" fill-opacity="1"></use><g><use xlink:href="#g5AvbNoNX" opacity="1" fill-opacity="0" stroke="#000000" stroke-width="1" stroke-opacity="0"></use></g></g><g><use xlink:href="#d2EB2YvP05" opacity="1" fill="#8eb2e3" fill-opacity="1"></use><g><use xlink:href="#d2EB2YvP05" opacity="1" fill-opacity="0" stroke="#000000" stroke-width="1" stroke-opacity="0"></use></g></g><g><use xlink:href="#b18WT7epap" opacity="1" fill="#99b9e5" fill-opacity="1"></use><g><use xlink:href="#b18WT7epap" opacity="1" fill-opacity="0" stroke="#000000" stroke-width="1" stroke-opacity="0"></use></g></g><g><use xlink:href="#a2ME0ysFNq" opacity="1" fill="#96bae6" fill-opacity="1"></use><g><use xlink:href="#a2ME0ysFNq" opacity="1" fill-opacity="0" stroke="#000000" stroke-width="1" stroke-opacity="0"></use></g></g><g><use xlink:href="#a1d5YsDdrv" opacity="1" fill="#8eb2e3" fill-opacity="1"></use><g><use xlink:href="#a1d5YsDdrv" opacity="1" fill-opacity="0" stroke="#000000" stroke-width="1" stroke-opacity="0"></use></g></g><g><use xlink:href="#fDh2Lx49p" opacity="1" fill="#a3c3ea" fill-opacity="1"></use><g><use xlink:href="#fDh2Lx49p" opacity="1" fill-opacity="0" stroke="#000000" stroke-width="1" stroke-opacity="0"></use></g></g><g><use xlink:href="#i8si032L4" opacity="1" fill="#8fb1e2" fill-opacity="1"></use><g><use xlink:href="#i8si032L4" opacity="1" fill-opacity="0" stroke="#000000" stroke-width="1" stroke-opacity="0"></use></g></g><g><use xlink:href="#a4pEfs4oxy" opacity="1" fill="#99b9e5" fill-opacity="1"></use><g><use xlink:href="#a4pEfs4oxy" opacity="1" fill-opacity="0" stroke="#000000" stroke-width="1" stroke-opacity="0"></use></g></g><g><use xlink:href="#eWDQuto5x" opacity="1" fill="#96bae6" fill-opacity="1"></use><g><use xlink:href="#eWDQuto5x" opacity="1" fill-opacity="0" stroke="#000000" stroke-width="1" stroke-opacity="0"></use></g></g><g><use xlink:href="#aVC8V8vEw" opacity="1" fill="#85ace0" fill-opacity="1"></use><g><use xlink:href="#aVC8V8vEw" opacity="1" fill-opacity="0" stroke="#000000" stroke-width="1" stroke-opacity="0"></use></g></g><g><use xlink:href="#a7fpy9fd5" opacity="1" fill="#8eb2e3" fill-opacity="1"></use><g><use xlink:href="#a7fpy9fd5" opacity="1" fill-opacity="0" stroke="#000000" stroke-width="1" stroke-opacity="0"></use></g></g><g><use xlink:href="#aMB4m7LXQ" opacity="1" fill="#96bae6" fill-opacity="1"></use><g><use xlink:href="#aMB4m7LXQ" opacity="1" fill-opacity="0" stroke="#000000" stroke-width="1" stroke-opacity="0"></use></g></g><g><use xlink:href="#b9PyFQtC3" opacity="1" fill="#96bae6" fill-opacity="1"></use><g><use xlink:href="#b9PyFQtC3" opacity="1" fill-opacity="0" stroke="#000000" stroke-width="1" stroke-opacity="0"></use></g></g><g><use xlink:href="#b1CRq4P3sO" opacity="1" fill="#85ace0" fill-opacity="1"></use><g><use xlink:href="#b1CRq4P3sO" opacity="1" fill-opacity="0" stroke="#000000" stroke-width="1" stroke-opacity="0"></use></g></g><g><use xlink:href="#m2pIOuVVyp" opacity="1" fill="#8eb2e3" fill-opacity="1"></use><g><use xlink:href="#m2pIOuVVyp" opacity="1" fill-opacity="0" stroke="#000000" stroke-width="1" stroke-opacity="0"></use></g></g><g><use xlink:href="#a64PIFDlAE" opacity="1" fill="#99b9e5" fill-opacity="1"></use><g><use xlink:href="#a64PIFDlAE" opacity="1" fill-opacity="0" stroke="#000000" stroke-width="1" stroke-opacity="0"></use></g></g><g><use xlink:href="#b9FNmukz3n" opacity="1" fill="#96bae6" fill-opacity="1"></use><g><use xlink:href="#b9FNmukz3n" opacity="1" fill-opacity="0" stroke="#000000" stroke-width="1" stroke-opacity="0"></use></g></g><g><use xlink:href="#d8a6UlJkpk" opacity="1" fill="#8eb2e3" fill-opacity="1"></use><g><use xlink:href="#d8a6UlJkpk" opacity="1" fill-opacity="0" stroke="#000000" stroke-width="1" stroke-opacity="0"></use></g></g><g><use xlink:href="#a4IM1GCWCU" opacity="1" fill="#9ebde7" fill-opacity="1"></use><g><use xlink:href="#a4IM1GCWCU" opacity="1" fill-opacity="0" stroke="#000000" stroke-width="1" stroke-opacity="0"></use></g></g><g><use xlink:href="#a4WajOpxLX" opacity="1" fill="#9ebde7" fill-opacity="1"></use><g><use xlink:href="#a4WajOpxLX" opacity="1" fill-opacity="0" stroke="#000000" stroke-width="1" stroke-opacity="0"></use></g></g><g><use xlink:href="#d1v4LdHQL6" opacity="1" fill="#91b5e4" fill-opacity="1"></use><g><use xlink:href="#d1v4LdHQL6" opacity="1" fill-opacity="0" stroke="#000000" stroke-width="1" stroke-opacity="0"></use></g></g><g><use xlink:href="#b99FKOEB8" opacity="1" fill="#9ebde7" fill-opacity="1"></use><g><use xlink:href="#b99FKOEB8" opacity="1" fill-opacity="0" stroke="#000000" stroke-width="1" stroke-opacity="0"></use></g></g><g><use xlink:href="#bvuwt0hMQ" opacity="1" fill="#91b5e4" fill-opacity="1"></use><g><use xlink:href="#bvuwt0hMQ" opacity="1" fill-opacity="0" stroke="#000000" stroke-width="1" stroke-opacity="0"></use></g></g><g><use xlink:href="#baALeGGse" opacity="1" fill="#9ebde7" fill-opacity="1"></use><g><use xlink:href="#baALeGGse" opacity="1" fill-opacity="0" stroke="#000000" stroke-width="1" stroke-opacity="0"></use></g></g><g><use xlink:href="#a1WxjOMJSD" opacity="1" fill="#91b5e4" fill-opacity="1"></use><g><use xlink:href="#a1WxjOMJSD" opacity="1" fill-opacity="0" stroke="#000000" stroke-width="1" stroke-opacity="0"></use></g></g><g><use xlink:href="#b1iuq6hbbZ" opacity="1" fill="#406fbf" fill-opacity="1"></use><g><use xlink:href="#b1iuq6hbbZ" opacity="1" fill-opacity="0" stroke="#000000" stroke-width="1" stroke-opacity="0"></use></g></g><g><use xlink:href="#d96I8czC0x" opacity="1" fill="#7da6dd" fill-opacity="1"></use><g><use xlink:href="#d96I8czC0x" opacity="1" fill-opacity="0" stroke="#000000" stroke-width="1" stroke-opacity="0"></use></g></g><g><use xlink:href="#dvpzZZdHO" opacity="1" fill="#17282f" fill-opacity="1"></use><g><use xlink:href="#dvpzZZdHO" opacity="1" fill-opacity="0" stroke="#000000" stroke-width="1" stroke-opacity="0"></use></g></g><g><use xlink:href="#a20NYbYqSu" opacity="1" fill="#406fbf" fill-opacity="1"></use><g><use xlink:href="#a20NYbYqSu" opacity="1" fill-opacity="0" stroke="#000000" stroke-width="1" stroke-opacity="0"></use></g></g><g><use xlink:href="#c5RaEYcgKx" opacity="1" fill="#406fbf" fill-opacity="1"></use><g><use xlink:href="#c5RaEYcgKx" opacity="1" fill-opacity="0" stroke="#000000" stroke-width="1" stroke-opacity="0"></use></g></g><g><use xlink:href="#cpX180Yw" opacity="1" fill="#2d5bb2" fill-opacity="1"></use><g><use xlink:href="#cpX180Yw" opacity="1" fill-opacity="0" stroke="#000000" stroke-width="1" stroke-opacity="0"></use></g></g><g><use xlink:href="#eEKc3kZ9V" opacity="1" fill="#ffffff" fill-opacity="1"></use><g><use xlink:href="#eEKc3kZ9V" opacity="1" fill-opacity="0" stroke="#000000" stroke-width="1" stroke-opacity="0"></use></g></g><g><use xlink:href="#igo8J4Qo2" opacity="1" fill="#7da6dd" fill-opacity="1"></use><g><use xlink:href="#igo8J4Qo2" opacity="1" fill-opacity="0" stroke="#000000" stroke-width="1" stroke-opacity="0"></use></g></g><g><use xlink:href="#bOHBTcvEg" opacity="1" fill="#17282f" fill-opacity="1"></use><g><use xlink:href="#bOHBTcvEg" opacity="1" fill-opacity="0" stroke="#000000" stroke-width="1" stroke-opacity="0"></use></g></g><g><use xlink:href="#a1aZDy5tEX" opacity="1" fill="#f14358" fill-opacity="1"></use><g><use xlink:href="#a1aZDy5tEX" opacity="1" fill-opacity="0" stroke="#000000" stroke-width="1" stroke-opacity="0"></use></g></g><g><use xlink:href="#b7z2lW6NZ4" opacity="1" fill="#17282f" fill-opacity="1"></use><g><use xlink:href="#b7z2lW6NZ4" opacity="1" fill-opacity="0" stroke="#000000" stroke-width="1" stroke-opacity="0"></use></g></g><g><use xlink:href="#b4zqcAoTN" opacity="1" fill="#f46b74" fill-opacity="1"></use><g><use xlink:href="#b4zqcAoTN" opacity="1" fill-opacity="0" stroke="#000000" stroke-width="1" stroke-opacity="0"></use></g></g><g><use xlink:href="#bn7yC9MhY" opacity="1" fill="#17282f" fill-opacity="1"></use><g><use xlink:href="#bn7yC9MhY" opacity="1" fill-opacity="0" stroke="#000000" stroke-width="1" stroke-opacity="0"></use></g></g><g><use xlink:href="#g11SbJH6fW" opacity="1" fill="#f46b74" fill-opacity="1"></use><g><use xlink:href="#g11SbJH6fW" opacity="1" fill-opacity="0" stroke="#000000" stroke-width="1" stroke-opacity="0"></use></g></g><g><use xlink:href="#a1jsI5GRkq" opacity="1" fill="#f46b74" fill-opacity="1"></use><g><use xlink:href="#a1jsI5GRkq" opacity="1" fill-opacity="0" stroke="#000000" stroke-width="1" stroke-opacity="0"></use></g></g><g><use xlink:href="#eFpBnLWaN" opacity="1" fill="#406fbf" fill-opacity="1"></use><g><use xlink:href="#eFpBnLWaN" opacity="1" fill-opacity="0" stroke="#000000" stroke-width="1" stroke-opacity="0"></use></g></g><g><use xlink:href="#cRKeCMiuM" opacity="1" fill="#3563b7" fill-opacity="1"></use><g><use xlink:href="#cRKeCMiuM" opacity="1" fill-opacity="0" stroke="#000000" stroke-width="1" stroke-opacity="0"></use></g></g><g><use xlink:href="#a6pAV88492" opacity="1" fill="#406fbf" fill-opacity="1"></use><g><use xlink:href="#a6pAV88492" opacity="1" fill-opacity="0" stroke="#000000" stroke-width="1" stroke-opacity="0"></use></g></g><g><use xlink:href="#b3u5nFmct1" opacity="1" fill="#3563b7" fill-opacity="1"></use><g><use xlink:href="#b3u5nFmct1" opacity="1" fill-opacity="0" stroke="#000000" stroke-width="1" stroke-opacity="0"></use></g></g><g><use xlink:href="#bwPVEcDf8" opacity="1" fill="#f46b74" fill-opacity="1"></use><g><use xlink:href="#bwPVEcDf8" opacity="1" fill-opacity="0" stroke="#000000" stroke-width="1" stroke-opacity="0"></use></g></g><g><use xlink:href="#f4YSoxMr4Z" opacity="1" fill="#f46b74" fill-opacity="1"></use><g><use xlink:href="#f4YSoxMr4Z" opacity="1" fill-opacity="0" stroke="#000000" stroke-width="1" stroke-opacity="0"></use></g></g><g><use xlink:href="#a6Us8Yo0tX" opacity="1" fill="#406fbf" fill-opacity="1"></use><g><use xlink:href="#a6Us8Yo0tX" opacity="1" fill-opacity="0" stroke="#000000" stroke-width="1" stroke-opacity="0"></use></g></g><g><use xlink:href="#j11jf4YZeA" opacity="1" fill="#f46b74" fill-opacity="1"></use><g><use xlink:href="#j11jf4YZeA" opacity="1" fill-opacity="0" stroke="#000000" stroke-width="1" stroke-opacity="0"></use></g></g><g><use xlink:href="#a2zotENb6G" opacity="1" fill="#17282f" fill-opacity="1"></use><g><use xlink:href="#a2zotENb6G" opacity="1" fill-opacity="0" stroke="#000000" stroke-width="1" stroke-opacity="0"></use></g></g><g><use xlink:href="#f5utwbaHJ7" opacity="1" fill="#c3c5c2" fill-opacity="1"></use><g><use xlink:href="#f5utwbaHJ7" opacity="1" fill-opacity="0" stroke="#000000" stroke-width="1" stroke-opacity="0"></use></g></g><g><use xlink:href="#a20LIHMWcT" opacity="1" fill="#ea5b5b" fill-opacity="1"></use><g><use xlink:href="#a20LIHMWcT" opacity="1" fill-opacity="0" stroke="#000000" stroke-width="1" stroke-opacity="0"></use></g></g><g><use xlink:href="#b1EjlLedB8" opacity="1" fill="#f46b74" fill-opacity="1"></use><g><use xlink:href="#b1EjlLedB8" opacity="1" fill-opacity="0" stroke="#000000" stroke-width="1" stroke-opacity="0"></use></g></g><g><use xlink:href="#awrI9JbZE" opacity="1" fill="#17282f" fill-opacity="1"></use><g><use xlink:href="#awrI9JbZE" opacity="1" fill-opacity="0" stroke="#000000" stroke-width="1" stroke-opacity="0"></use></g></g><g><use xlink:href="#b1xdscHBgx" opacity="1" fill="#f46b74" fill-opacity="1"></use><g><use xlink:href="#b1xdscHBgx" opacity="1" fill-opacity="0" stroke="#000000" stroke-width="1" stroke-opacity="0"></use></g></g><g><use xlink:href="#cAxdGDRJ8" opacity="1" fill="#406fbf" fill-opacity="1"></use><g><use xlink:href="#cAxdGDRJ8" opacity="1" fill-opacity="0" stroke="#000000" stroke-width="1" stroke-opacity="0"></use></g></g><g><use xlink:href="#a1Pdh12qIx" opacity="1" fill="#90b4e3" fill-opacity="1"></use><g><use xlink:href="#a1Pdh12qIx" opacity="1" fill-opacity="0" stroke="#000000" stroke-width="1" stroke-opacity="0"></use></g></g><g><use xlink:href="#d249VCH4bZ" opacity="1" fill="#406fbf" fill-opacity="1"></use><g><use xlink:href="#d249VCH4bZ" opacity="1" fill-opacity="0" stroke="#000000" stroke-width="1" stroke-opacity="0"></use></g></g><g><use xlink:href="#azAfWPEY3" opacity="1" fill="#f46b74" fill-opacity="1"></use><g><use xlink:href="#azAfWPEY3" opacity="1" fill-opacity="0" stroke="#000000" stroke-width="1" stroke-opacity="0"></use></g></g><g><use xlink:href="#a5NRImWo9" opacity="1" fill="#17282f" fill-opacity="1"></use><g><use xlink:href="#a5NRImWo9" opacity="1" fill-opacity="0" stroke="#000000" stroke-width="1" stroke-opacity="0"></use></g></g><g><use xlink:href="#beJfi8Cr" opacity="1" fill="#c3c5c2" fill-opacity="1"></use><g><use xlink:href="#beJfi8Cr" opacity="1" fill-opacity="0" stroke="#000000" stroke-width="1" stroke-opacity="0"></use></g></g><g><use xlink:href="#e2l7uvuIMl" opacity="1" fill="#ea5b5b" fill-opacity="1"></use><g><use xlink:href="#e2l7uvuIMl" opacity="1" fill-opacity="0" stroke="#000000" stroke-width="1" stroke-opacity="0"></use></g></g><g><use xlink:href="#b2TWeUp8Mj" opacity="1" fill="#406fbf" fill-opacity="1"></use><g><use xlink:href="#b2TWeUp8Mj" opacity="1" fill-opacity="0" stroke="#000000" stroke-width="1" stroke-opacity="0"></use></g></g><g><use xlink:href="#c5ZDAWYEtM" opacity="1" fill="#90b4e3" fill-opacity="1"></use><g><use xlink:href="#c5ZDAWYEtM" opacity="1" fill-opacity="0" stroke="#000000" stroke-width="1" stroke-opacity="0"></use></g></g><g><use xlink:href="#b5tKDCfR6C" opacity="1" fill="#406fbf" fill-opacity="1"></use><g><use xlink:href="#b5tKDCfR6C" opacity="1" fill-opacity="0" stroke="#000000" stroke-width="1" stroke-opacity="0"></use></g></g><g><use xlink:href="#cyvu4tY7O" opacity="1" fill="#17282f" fill-opacity="1"></use><g><use xlink:href="#cyvu4tY7O" opacity="1" fill-opacity="0" stroke="#000000" stroke-width="1" stroke-opacity="0"></use></g></g><g><use xlink:href="#h8B7wXw1DQ" opacity="1" fill="#17282f" fill-opacity="1"></use><g><use xlink:href="#h8B7wXw1DQ" opacity="1" fill-opacity="0" stroke="#000000" stroke-width="1" stroke-opacity="0"></use></g></g><g><use xlink:href="#aVzwbJW8" opacity="1" fill="#406fbf" fill-opacity="1"></use><g><use xlink:href="#aVzwbJW8" opacity="1" fill-opacity="0" stroke="#000000" stroke-width="1" stroke-opacity="0"></use></g></g><g><use xlink:href="#abxlzkZcB" opacity="1" fill="#406fbf" fill-opacity="1"></use><g><use xlink:href="#abxlzkZcB" opacity="1" fill-opacity="0" stroke="#000000" stroke-width="1" stroke-opacity="0"></use></g></g><g><use xlink:href="#b1xWI7ym8u" opacity="1" fill="#b8d2ef" fill-opacity="1"></use><g><use xlink:href="#b1xWI7ym8u" opacity="1" fill-opacity="0" stroke="#000000" stroke-width="1" stroke-opacity="0"></use></g></g><g><use xlink:href="#c1NJEJIhxE" opacity="1" fill="#b8d2ef" fill-opacity="1"></use><g><use xlink:href="#c1NJEJIhxE" opacity="1" fill-opacity="0" stroke="#000000" stroke-width="1" stroke-opacity="0"></use></g></g><g><use xlink:href="#c34LUrr0Bb" opacity="1" fill="#e7f1fa" fill-opacity="1"></use><g><use xlink:href="#c34LUrr0Bb" opacity="1" fill-opacity="0" stroke="#000000" stroke-width="1" stroke-opacity="0"></use></g></g><g><use xlink:href="#b1DUfOQb7d" opacity="1" fill="#406fbf" fill-opacity="1"></use><g><use xlink:href="#b1DUfOQb7d" opacity="1" fill-opacity="0" stroke="#000000" stroke-width="1" stroke-opacity="0"></use></g></g></g></svg>